<svg xmlns="http://www.w3.org/2000/svg" xmlns:xlink="http://www.w3.org/1999/xlink" version="1.1" x="0px" y="0px" viewBox="0 0 95 95" enable-background="new 0 0 95 95" xml:space="preserve" preserveAspectRatio="none" width="100%" height="100%" class="" fill="rgba(255, 255, 255, 1)">
                                            <path d="M82.02,55.453c-1.457-0.705-3.526-2.263-7.703-5.446c-3.926-2.992-9.301-7.089-11.883-8.288  c-4.743-2.204-11.894-6.036-14.382-7.381c-3.825,0.07-7.825,0.154-10.036,0.214c-0.081,0.156-0.161,0.312-0.234,0.453  c-1.604,3.133-4.03,7.867-8.036,9.47c-1.372,0.547-3.038,0.85-4.692,0.85c-2.627,0-4.605-0.785-5.718-2.269  c-0.768-1.024-1.059-2.293-0.825-3.544c0.354-3.467,1.3-10.338,3.458-14.879c-1.92-0.882-4.963-2.419-7.344-3.639  c-1.991-1.022-3.339-0.008-3.339-0.008c-0.973,0.547-1.438,1.804-1.438,1.804l-6.851,19.57c0,0-0.625,1.997-0.474,3.023  c0.119,0.809,0.302,1.647,1.859,2.784c1.874,1.364,4.267,3.282,5.717,5.097c1.103,1.378,1.373,3.161,1.905,5.116  c1.417-1.66,3.373-2.842,5.652-2.842c0.474,0,0.948,0.052,1.406,0.157c2.409,0.549,4.123,2.312,5.057,4.453  c0.82-0.295,1.667-0.468,2.513-0.468c1.2,0,2.375,0.321,3.397,0.925c1.434,0.849,2.384,2.127,2.878,3.65  c0.476-0.099,0.958-0.166,1.453-0.166c1.329,0,2.658,0.38,3.848,1.096c2.259,1.372,3.274,3.868,3.025,6.988  c1.102,0.053,2.131,0.339,2.991,0.861c2.948,1.799,3.665,6.405,2.845,9.828l-0.047,0.201l-0.064,0.179  c0.486,0.424,0.982,0.838,1.335,0.961c5.975,2.538,9.261-2.717,8.46-5.297c2.091,1.494,6.342,0.754,8.363-1.346  c2.022-2.097,1.039-5.782,1.039-5.782s5.568,3.184,9.602-0.785c2.621-2.575,0.54-5.775,0.54-5.775s5.278,2.121,7.754-1.394  C86.397,60.499,84.915,57.909,82.02,55.453z"></path>
                                            <path d="M40.917,84.736c-0.669-0.049-1.331-0.261-1.934-0.651c-1.901-1.235-2.333-3.439-1.1-5.342l0.349-0.65  c1.236-1.902,4.158-2.681,5.537-1.844c1.146,0.699,1.696,3.443,1.146,5.737l-0.141,0.393C43.516,84.663,42.363,84.842,40.917,84.736  z"></path>
                                            <path d="M22.234,40.104c0,0,1.302-13.113,4.521-15.967c3.216-2.854,5.739-3.684,10.114-4.425c4.373-0.742,13.848-3.938,17.117-2.985  c3.267,0.954,8.692,2.428,11.93,3.065c3.241,0.641,7.082,3.031,9.003,3.162c1.088,0.073,3.761-1.206,5.918-2.23  c1.098-0.521,2.075-0.17,2.761,0.287C84.668,21.724,84.98,23,84.98,23l6.57,20.443c0,0,0.342,1.14,0.222,2.019  c-0.091,0.674-0.3,1.437-1.594,2.286c-2.317,1.522-5.609,3.757-5.955,4.405c-0.54,1.002-14.546-11.222-20.202-13.849  s-15.048-7.75-15.048-7.75s-12.046,0.218-12.99,0.31c-0.945,0.09-3.526,8.472-7.634,10.113  C25.927,41.946,21.757,41.739,22.234,40.104z"></path>
                                            <path d="M16.913,69.691c-0.207-0.014-0.41-0.044-0.616-0.091c-2.211-0.503-3.598-2.702-3.098-4.916l0.239-1.046  c0.5-2.214,2.576-4.779,4.788-4.272c2.212,0.504,3.333,3.592,2.831,5.806l-0.227,1.47C20.375,68.648,18.906,69.838,16.913,69.691z"></path>
                                            <path d="M23.776,75.194c-0.611-0.045-1.04-0.013-1.607-0.348c-1.951-1.155-2.782-3.89-1.625-5.843l1.916-2.838  c1.159-1.955,3.699-3.476,5.654-2.32c1.953,1.155,1.6,3.876,0.726,5.903L27.3,73.01C26.48,74.396,25.281,75.303,23.776,75.194z"></path>
                                            <path d="M33.157,79.813c-0.629-0.047-1.254-0.237-1.83-0.585c-1.939-1.177-2.558-3.702-1.381-5.643l2.543-3.633  c1.178-1.938,3.331-2.72,5.271-1.546c1.938,1.175,1.289,4.524,0.465,6.681l-1.256,2.758C36.144,79.211,34.646,79.92,33.157,79.813z"></path>
                                        </svg>