<svg xmlns="http://www.w3.org/2000/svg" xmlns:xlink="http://www.w3.org/1999/xlink" version="1.1" x="0px" y="0px" viewBox="0 0 100 100" enable-background="new 0 0 100 100" xml:space="preserve" preserveAspectRatio="none" width="100%" height="100%" class="" fill="rgba(255, 255, 255, 1)">
                                            <path d="M56.069,18.344l5.312-8.553c-2.075-0.787-4.58,0.069-5.764,2.056L54.6,13.575l-1.021-1.731  c-1.755-2.951-6.417-2.955-8.179,0.003l-1.011,1.718l-1.025-1.718c-1.187-1.987-3.664-2.85-5.778-2.049l5.024,8.546H56.069z   M42.75,21.684c-0.874,0-1.586,0.712-1.586,1.587c0,0.877,0.712,1.587,1.586,1.587h13.104c0.877,0,1.588-0.71,1.588-1.587  c0-0.875-0.711-1.587-1.588-1.587H42.75z M82.847,65.386c-0.631-1.49-2.432-2.262-4.021-1.631l-8.678,5.727  c0.13,1.472-0.142,2.934-0.771,4.167c-1.04,2.042-3.241,3.215-6.036,3.215H51.964c-1.931,0-2.911-0.704-2.911-2.093  c0-0.981,0.504-2.15,2.911-2.15h11.377c2.072,0,2.506-1.426,2.506-2.62c0-1.003-0.67-2.489-2.516-2.489l-35.242-0.008l-12.174,6.879  v13.096l11.825-7.141l20.27,8.807c0.994,0.448,1.864,0.448,2.647,0.139l30.375-19.841c0.93-0.403,1.519-0.991,1.828-1.749  C83.164,66.952,83.16,66.133,82.847,65.386z M63.334,63.269c2.019,0,3.83,0.818,5.085,2.27l0.119-0.08  c2.463-3.629,3.887-8.156,3.887-12.858c0-5.256-1.727-10.198-5.007-14.297c-0.856-1.071-4.651-4.843-10.165-10.104H41.369  c-4.126,4.11-8.787,8.851-9.798,10.114c-3.263,4.096-4.993,9.034-4.993,14.287c0,3.701,0.913,7.374,2.643,10.661L63.334,63.269z   M41.583,54.769c0.116-0.21,0.3-0.441,0.55-0.703c0.25-0.268,0.623-0.615,1.124-1.047c0.458-0.382,0.846-0.925,1.152-1.617  c0.313-0.695,0.465-1.376,0.465-2.048c0-0.23-0.046-0.623-0.138-1.184H43.61c-0.662,0-1.159-0.079-1.498-0.241  c-0.338-0.162-0.504-0.483-0.504-0.967c0-0.877,0.568-1.316,1.706-1.316h0.792c-0.437-1.401-0.654-2.502-0.654-3.305  c0-1.101,0.257-2.083,0.778-2.94c0.518-0.867,1.261-1.538,2.229-2.024c0.97-0.492,2.076-0.733,3.32-0.733  c1.099,0,2.047,0.134,2.836,0.407c0.789,0.275,1.486,0.726,2.093,1.35c1.039,1.091,1.561,2.241,1.561,3.471  c0,0.434-0.169,0.832-0.511,1.166c-0.338,0.342-0.758,0.517-1.251,0.517c-0.866,0-1.448-0.492-1.729-1.456  c-0.261-0.934-0.617-1.615-1.071-2.063c-0.451-0.444-1.061-0.667-1.822-0.667c-0.825,0-1.487,0.271-1.994,0.801  c-0.504,0.534-0.758,1.223-0.758,2.063c0,0.509,0.049,0.984,0.158,1.429c0.109,0.444,0.3,1.104,0.564,1.985h2.004  c0.734,0,1.301,0.072,1.706,0.224c0.402,0.145,0.604,0.49,0.604,1.038c0,0.375-0.131,0.678-0.402,0.915  c-0.268,0.237-0.609,0.349-1.047,0.349h-2.378v0.227c0,0.906-0.2,1.736-0.609,2.493c-0.412,0.758-1.12,1.708-2.135,2.844  c0.3-0.072,0.595-0.142,0.88-0.197c0.293-0.065,0.621-0.12,0.983-0.175c0.359-0.045,0.758-0.072,1.191-0.072  c0.599,0,1.434,0.068,2.509,0.21c1.078,0.138,1.793,0.21,2.139,0.21c0.507,0,1.061-0.094,1.645-0.279  c0.586-0.183,0.959-0.274,1.107-0.274c0.404,0,0.761,0.161,1.078,0.484c0.312,0.321,0.469,0.7,0.469,1.14  c0,0.748-0.416,1.314-1.255,1.719c-0.839,0.396-1.729,0.599-2.682,0.599c-0.581,0-2.237-0.317-4.961-0.946  c-0.07-0.018-0.19-0.049-0.359-0.107c-0.169-0.051-0.384-0.097-0.63-0.134c-0.254-0.032-0.554-0.055-0.902-0.055  c-0.377,0-0.709,0.055-0.994,0.163c-0.289,0.104-0.781,0.304-1.486,0.591c-0.697,0.285-1.181,0.43-1.428,0.43  c-0.345,0-0.676-0.155-1-0.465c-0.331-0.307-0.493-0.716-0.493-1.212C41.408,55.168,41.463,54.975,41.583,54.769z"></path>
                                        </svg>