<svg xmlns="http://www.w3.org/2000/svg" xmlns:xlink="http://www.w3.org/1999/xlink" version="1.1" x="0px" y="0px" viewBox="0 0 48 48" enable-background="new 0 0 48 48" xml:space="preserve" preserveAspectRatio="none" width="100%" height="100%" class="" fill="rgba(255, 255, 255, 1)"><path d="M37.4,42.3l3.3-3.3c0.2-0.2,0.3-0.5,0.2-0.7l-4.2-20.7c-0.1-0.3,0-0.5,0.2-0.7l9.4-9.4  c1.6-1.6,1.6-4.2,0-5.8l0,0c-1.6-1.6-4.2-1.6-5.8,0l-9.7,9.7c-0.2,0.2-0.4,0.3-0.7,0.2l-21-3.9c-0.3,0-0.5,0-0.7,0.2L5,11.4  c-0.4,0.4-0.3,1.1,0.2,1.3l15.9,7c0.5,0.2,0.6,0.9,0.2,1.3L11,31.3c-0.2,0.2-0.5,0.3-0.7,0.2l-6.8-1.4c-0.3-0.1-0.5,0-0.7,0.2l-2,2  c-0.4,0.4-0.3,1,0.2,1.3l6.8,3.3C7.8,37,7.9,37,8,37.1l2.9,2.9c0.1,0.1,0.1,0.1,0.1,0.2l3.5,6.9c0.2,0.5,0.9,0.6,1.3,0.2l1.7-1.7  c0.2-0.2,0.3-0.5,0.2-0.7L16.3,38c-0.1-0.3,0-0.5,0.2-0.7l10.9-10.9c0.4-0.4,1-0.3,1.3,0.2l7.5,15.5C36.4,42.6,37,42.7,37.4,42.3z"></path></svg>