<svg xmlns="http://www.w3.org/2000/svg" xmlns:xlink="http://www.w3.org/1999/xlink" version="1.1" x="0px" y="0px" viewBox="0 0 128 128" style="
                                                enable-background: new 0 0 128
                                                    128;
                                            " xml:space="preserve" preserveAspectRatio="none" width="100%" height="100%" class="" fill="rgba(255, 255, 255, 1)">
                                            <g>
                                                <path d="M64,7C32.5,7,7,32.5,7,64s25.5,57,57,57s57-25.5,57-57S95.5,7,64,7z M88.7,35.9l1.8-1.8c0.4-0.4,1.1-0.4,1.6,0   c0.4,0.4,0.4,1.1,0,1.6l-1.8,1.8c-0.2,0.2-0.5,0.3-0.8,0.3c-0.3,0-0.6-0.1-0.8-0.3C88.3,37,88.3,36.3,88.7,35.9z M84.2,32.6   c0-0.6,0.5-1.1,1.1-1.1c0.6,0,1.1,0.5,1.1,1.1v2.5c0,0.6-0.5,1.1-1.1,1.1c-0.6,0-1.1-0.5-1.1-1.1V32.6z M78.3,34   c0.4-0.4,1.1-0.4,1.6,0l1.7,1.7c0.4,0.4,0.4,1.1,0,1.6c-0.2,0.2-0.5,0.3-0.8,0.3s-0.6-0.1-0.8-0.3l-1.7-1.7   C77.8,35.1,77.8,34.4,78.3,34z M81.1,44.6c0.4,0.4,0.4,1.1,0,1.6l-1.8,1.8c-0.2,0.2-0.5,0.3-0.8,0.3s-0.6-0.1-0.8-0.3   c-0.4-0.4-0.4-1.1,0-1.6l1.8-1.8C80,44.2,80.7,44.2,81.1,44.6z M76.2,40.2h2.5c0.6,0,1.1,0.5,1.1,1.1c0,0.6-0.5,1.1-1.1,1.1h-2.5   c-0.6,0-1.1-0.5-1.1-1.1C75.1,40.6,75.6,40.2,76.2,40.2z M39.9,59.2c1-8.6,9.2-15.2,19.3-15.8v-0.9c0-0.8,0.6-1.4,1.4-1.4   s1.4,0.6,1.4,1.4v0.9c10,0.6,18.2,7.2,19.3,15.8l0.3,2.1H61.9v9.2h-2.7v-9.2H39.6L39.9,59.2z M76,71.4v3.4H45v-3.4H76z M51,83.3V87   v8.4c0,0.6-0.5,1.1-1.1,1.1s-1.1-0.5-1.1-1.1v-9.5H38.5c0.1,2.8,0.2,6.7,0.1,9.5c0,0.6-0.5,1.1-1.1,1.1c0,0,0,0,0,0   c-0.6,0-1.1-0.5-1.1-1.1c0.1-4,0-8-0.3-12c0-0.1,0-0.2,0-0.3c0,0,0-0.1,0-0.1c-0.2-1.9-0.4-3.7-0.7-5.5c-0.5-3.3-1.2-6.6-2.1-9.9   c-0.2-0.6,0.2-1.2,0.8-1.3c0.6-0.2,1.2,0.2,1.3,0.8c0.9,3.3,1.6,6.7,2.1,10.1c0.3,1.6,0.5,3.2,0.6,4.9H51V83.3z M67.8,95.5   c-0.1,0.1-0.3,0.1-0.4,0.1c-0.4,0.1-0.9-0.2-1.1-0.6l-5.6-10.4l-5.4,11.1c-0.2,0.4-0.6,0.7-1.1,0.6c-0.1,0-0.3-0.1-0.4-0.1   c-0.5-0.3-0.7-1-0.5-1.6l6-12.4L55.9,76c0,0,0-0.1-0.1-0.1h2.5l2.1,3.9l1.9-3.9h2.4c0,0.1,0,0.3-0.1,0.4l-2.9,5.9l6.3,11.7   C68.5,94.4,68.3,95.1,67.8,95.5z M87.8,67.6c-0.9,3.2-1.6,6.6-2.1,9.9c-0.3,1.8-0.5,3.7-0.7,5.5c0,0,0,0.1,0,0.1c0,0.1,0,0.2,0,0.3   c-0.4,4-0.5,8-0.3,12c0,0.6-0.4,1.1-1.1,1.1c0,0,0,0,0,0c-0.6,0-1.1-0.5-1.1-1.1c-0.1-2.8-0.1-6.7,0.1-9.5H72.3v9.5   c0,0.6-0.5,1.1-1.1,1.1s-1.1-0.5-1.1-1.1V87v-3.7V82h12.8c0.2-1.6,0.4-3.2,0.6-4.9c0.5-3.4,1.2-6.8,2.1-10.1   c0.2-0.6,0.8-0.9,1.3-0.8C87.6,66.4,87.9,67,87.8,67.6z M84.2,49.7v-2.5c0-0.6,0.5-1.1,1.1-1.1s1.1,0.5,1.1,1.1v2.5   c0,0.6-0.5,1.1-1.1,1.1S84.2,50.3,84.2,49.7z M84.9,45.4c-2.4,0-4.3-1.9-4.3-4.3s1.9-4.3,4.3-4.3s4.3,1.9,4.3,4.3   S87.2,45.4,84.9,45.4z M92.5,47.9c-0.2,0.2-0.5,0.3-0.8,0.3s-0.6-0.1-0.8-0.3l-1.7-1.7c-0.4-0.4-0.4-1.1,0-1.6   c0.4-0.4,1.1-0.4,1.6,0l1.7,1.7C92.9,46.8,92.9,47.5,92.5,47.9z M93.7,42.4h-2.5c-0.6,0-1.1-0.5-1.1-1.1c0-0.6,0.5-1.1,1.1-1.1h2.5   c0.6,0,1.1,0.5,1.1,1.1C94.8,41.9,94.3,42.4,93.7,42.4z"></path>
                                            </g>
                                        </svg>