<svg width="121" height="93" viewBox="0 0 121 93" fill="none" xmlns="http://www.w3.org/2000/svg">
<path d="M96.4767 92L105 92C113.284 92 120 85.2843 120 77L120 16C120 7.71573 113.284 1 105 0.999999L16 0.999995C7.71573 0.999995 1.00001 7.71572 1.00001 16L1 77C1 85.2843 7.71573 92 16 92L100 92" stroke="white" stroke-width="2"/>
<path d="M52.6002 32.9172C52.1026 33.1595 51.6317 33.4099 51.1855 33.6624L54.9967 42.5596C55.2522 41.6108 55.7041 40.7353 56.318 40.0003C55.2084 38.9355 54.3847 37.5205 54.0072 35.8795C53.7327 34.6905 53.7136 33.4771 53.9348 32.3125C53.4906 32.4978 53.0444 32.6993 52.6002 32.9172Z" fill="white"/>
<path d="M92.7329 65.519H91.9398C91.8463 66.028 91.7339 66.6937 91.5165 67.1864C90.0104 70.5987 86.8856 70.9937 84.205 69.54C83.3203 69.0595 77.7094 66.0137 76.7962 65.519H59.4144L54.6786 44.8093C54.4727 43.9073 53.6109 43.3637 52.772 43.6019L47.96 44.966C47.144 45.1981 46.6502 46.0838 46.8504 46.9613C48.9838 56.3328 52.4517 71.694 52.4517 71.694H39.9449C39.0088 71.694 38.25 72.5044 38.25 73.504V74.182C38.25 75.1816 39.0088 75.9919 39.9449 75.9919H41.9677V79.3146C41.9677 79.8134 42.3471 80.2186 42.8142 80.2186H45.5062C45.9733 80.2186 46.3527 79.8155 46.3527 79.3146V75.996H86.5481V79.3187C86.5481 79.8175 86.9275 80.2227 87.3946 80.2227H90.0866C90.5537 80.2227 90.9331 79.8195 90.9331 79.3187V75.996H93.2419C93.9874 75.996 94.6585 75.371 94.6585 74.4141L94.2124 67.1009C94.2124 66.2275 93.5489 65.519 92.7329 65.519Z" fill="white"/>
<path d="M76.6123 48.9797C77.9907 49.7106 78.9497 51.2233 78.965 52.9681C78.9707 53.6115 78.8449 54.2284 78.6161 54.7944L79.2605 55.7268C79.2605 55.7268 89.5157 61.1363 89.6949 61.2422C89.6949 61.2422 87.0811 57.2864 81.3519 48.9186C80.4749 47.6523 78.8163 47.355 77.6018 48.2488L76.6123 48.9797Z" fill="white"/>
<path d="M58.8731 38.1884C59.9236 38.903 61.2352 39.1758 62.5393 38.8338C63.7957 38.504 64.8557 37.653 65.5021 36.4539C66.0874 35.3708 66.2914 34.0759 66.0092 32.7852C65.7518 31.6105 65.115 30.5844 64.219 29.8779C63.5479 30.5498 62.6594 30.9346 61.71 30.9346C61.1571 30.9346 61.0484 30.8185 60.1828 30.8185C59.3688 30.8185 58.4498 30.9366 57.4718 31.1585C56.8693 32.1337 56.6138 33.2697 56.7072 34.3813C56.835 35.9042 57.6033 37.3252 58.8731 38.1884Z" fill="white"/>
<path d="M61.6906 61.3326L61.6944 61.3265C62.0223 62.548 63.0518 63.3787 64.2968 63.3787C64.3044 63.3787 64.314 63.3787 64.3216 63.3787H77.2402L85.852 67.9759C87.2019 68.7089 88.8453 68.1307 89.5297 66.6953C90.2142 65.2579 89.6765 63.5009 88.3305 62.77L79.1449 57.7839C78.7616 57.5742 78.3365 57.4662 77.9056 57.4662H77.8827C77.8827 57.4662 66.2281 57.4662 66.1671 57.4662C64.2015 57.4662 62.8116 56.151 62.4608 55.1737C62.1253 54.2392 59.704 47.4778 59.3208 46.4109L64.3902 54.3879C64.394 54.396 64.3978 54.4001 64.4036 54.4062C64.7944 55.0088 65.4388 55.3061 66.19 55.3061H74.7751C76.0353 55.2939 77.0324 54.113 76.8913 52.755C76.7731 51.6108 75.8561 50.7048 74.7351 50.715L67.3015 50.7903L62.7125 43.5667L68.0679 48.5792L70.9697 48.5487L69.4787 42.0723C69.0574 40.244 67.3301 39.1282 65.618 39.5782L60.0929 41.0278C58.3808 41.4778 57.3361 43.3223 57.7574 45.1506C57.7536 45.1547 61.3016 59.6488 61.6906 61.3326Z" fill="white"/>
<path d="M42.4594 37.2381C42.7225 37.2381 42.9723 37.0935 43.1133 36.8513C44.446 34.5751 47.485 32.0077 51.3934 30.098C54.6212 28.5222 57.7803 27.718 60.1825 27.718C60.9794 27.718 61.7096 27.836 61.7096 27.836C61.9727 27.836 62.2206 27.6915 62.3636 27.4492C63.6962 25.173 66.7352 22.6057 70.6436 20.698C73.1927 19.452 75.6997 18.6885 77.8236 18.4238C78.1363 18.3851 78.3956 18.1469 78.4776 17.8232C78.5595 17.4995 78.4509 17.1534 78.1992 16.9498C75.2574 14.5595 70.0011 13 63.7839 13C58.6916 13 52.9568 14.0465 47.3191 16.5405L46.4155 14.4313C46.057 13.5925 45.1228 13.2097 44.3259 13.6006C43.5309 13.9895 43.1877 14.9912 43.548 15.832L44.4498 17.9413C32.3376 24.4401 24.9689 35.9921 24.5457 43.1566C24.5247 43.4905 24.6982 43.8061 24.9823 43.9507C25.2644 44.0952 25.6019 44.0423 25.8364 43.8163C27.4131 42.273 29.5941 40.7481 32.1432 39.5021C35.3709 37.9263 38.53 37.122 40.9323 37.122C41.7292 37.122 42.4594 37.2381 42.4594 37.2381Z" fill="white"/>
</svg>
