<svg width="178" height="122" viewBox="0 0 178 122" fill="none" xmlns="http://www.w3.org/2000/svg">
<path d="M13.604 83.9414V106.414L7.48885 83.9414H0V121.456H5.37275V94.3008L12.7827 121.456H18.923V83.9414H13.604Z" fill="#FF0000"/>
<path d="M31.7558 90.5871L34.6395 109.552H28.8722L31.7558 90.5871ZM27.6814 83.9414L21.6201 121.456H27.0968L28.1298 114.656H35.4357L36.4686 121.456H42.4762L36.4148 83.9414H27.6814Z" fill="#FF0000"/>
<path d="M61.9265 83.9414L57.8521 110.571L53.4585 83.9414H45.1734V121.456H50.3884V94.9275L54.8358 121.456H60.4703L64.5734 94.5637V121.456H70.2116V83.9414H61.9265Z" fill="#FF0000"/>
<path d="M83.335 100.626H91.699V112.53C91.699 118.809 88.7328 121.946 82.8077 121.946C76.8791 121.946 73.9165 118.809 73.9165 112.53V93.0148C73.9165 86.7365 76.8826 83.5991 82.8077 83.5991C88.7364 83.5991 91.699 86.7365 91.699 93.0148V96.678H86.0608V92.651C86.0608 90.1908 85.0278 88.9625 82.9655 88.9625C80.8997 88.9625 79.8703 90.1908 79.8703 92.651V112.898C79.8703 115.34 80.9032 116.561 82.9655 116.561C85.0314 116.561 86.0608 115.34 86.0608 112.898V105.993H83.335V100.626Z" fill="#58595B"/>
<path d="M101.465 89.3766V100.914H103.793C106.192 100.914 107.394 99.5883 107.394 96.9372V93.2487C107.394 90.6697 106.379 89.3766 104.349 89.3766H101.465ZM107.975 121.528C107.781 120.934 107.649 120.429 107.577 120.012C107.487 119.331 107.444 118.304 107.444 116.925V111.039C107.444 107.848 106.139 106.252 103.528 106.252H101.462V121.528H95.5079V84.0132H104.507C110.399 84.0132 113.348 86.8912 113.348 92.6472V95.6045C113.348 99.4586 112.042 101.998 109.431 103.219C112.078 104.3 113.401 106.958 113.401 111.198V116.979C113.401 119.003 113.613 120.52 114.036 121.532H107.975V121.528Z" fill="#58595B"/>
<path d="M122.766 112.894C122.766 115.369 123.799 116.608 125.861 116.608C127.927 116.608 128.957 115.369 128.957 112.894V92.6471C128.957 90.1869 127.924 88.9586 125.861 88.9586C123.796 88.9586 122.766 90.1869 122.766 92.6471V112.894ZM116.812 93.0145C116.812 86.7362 119.829 83.5952 125.865 83.5952C131.898 83.5952 134.918 86.7362 134.918 93.0145V112.53C134.918 118.808 131.901 121.949 125.865 121.949C119.832 121.949 116.812 118.812 116.812 112.53V93.0145Z" fill="#58595B"/>
<path d="M144.44 84.0132V112.948C144.44 115.39 145.473 116.611 147.535 116.611C149.601 116.611 150.631 115.39 150.631 112.948V84.0132H156.265V112.581C156.265 118.859 153.303 122 147.374 122C141.445 122 138.483 118.859 138.483 112.581V84.0132H144.44Z" fill="#58595B"/>
<path d="M166.275 89.3766V102.092H169.109C171.049 102.092 172.021 100.907 172.021 98.5329V92.9101C172.021 90.5544 171.049 89.3766 169.109 89.3766H166.275ZM169.105 84.0132C175.034 84.0132 177.996 87.1073 177.996 93.2992V98.1655C177.996 104.339 175.034 107.426 169.105 107.426H166.272V121.528H160.322V84.0132H169.105Z" fill="#58595B"/>
<path d="M121.167 64.4327L121.149 50.4425C121.145 46.682 119.298 43.1629 116.206 41.0305L56.8335 0L56.8514 13.9902C56.855 17.7507 58.7021 21.2663 61.7938 23.4022L121.167 64.4327Z" fill="#FF0000"/>
<path d="M84.3715 64.4329L61.7758 48.8182C58.6806 46.6786 56.8335 43.1558 56.8335 39.3917V25.4268L79.4112 41.0271C82.4993 43.163 84.3464 46.6786 84.3536 50.4391L84.3715 64.4329Z" fill="#FF0000"/>
<path d="M121.166 25.0412V39.0025L98.5888 23.4022C95.4971 21.2663 93.6536 17.7507 93.6464 13.9902L93.6285 0.014408V0L93.6464 0.014408L116.224 15.6147C119.319 17.7543 121.166 21.2771 121.166 25.0412Z" fill="#FF0000"/>
</svg>
