<svg width="288" height="205" viewBox="0 0 288 205" fill="none" xmlns="http://www.w3.org/2000/svg">
<path d="M99.4254 129.783H101.251C106.662 129.783 111.324 132.198 115.301 137.06C115.203 137.288 112.954 139.54 108.52 143.847H108.357C105.847 140.976 103.305 139.54 100.762 139.54C96.5242 139.54 94.0467 141.074 93.3295 144.174V144.5C93.3295 147.633 98.1215 151.124 107.705 154.91C111.324 156.835 113.769 158.597 114.975 160.196C116.833 162.839 117.778 165.874 117.778 169.301C117.778 174.424 115.692 178.895 111.487 182.68C108.39 184.899 104.837 185.976 100.762 185.976C91.1128 185.976 84.3323 182.713 80.4531 176.219L88.2116 169.268C92.156 173.673 95.7744 175.892 99.0994 175.892C104.609 175.892 107.347 173.869 107.347 169.79C107.347 166.69 102.848 163.329 93.8185 159.707C91.4388 158.532 89.2547 156.933 87.201 154.91C85.1473 152.593 84.0715 150.374 83.9086 148.285C85.9297 145.74 88.0811 144.467 90.363 144.467V144.304H83.9086C83.6804 144.304 83.5826 144.206 83.5826 143.978V143.815C83.5826 137.615 86.712 133.307 93.0035 130.925C95.155 130.174 97.3065 129.783 99.4254 129.783Z" fill="#213864"/>
<path d="M149.92 129.62H151.42C160.417 129.62 168.078 133.862 174.369 142.347C177.335 147.34 178.835 152.234 178.835 157.064V158.565C178.835 167.572 174.597 175.24 166.122 181.538C161.134 184.508 156.244 186.009 151.42 186.009H149.92C140.923 186.009 133.262 181.767 126.971 173.282C124.004 168.29 122.505 163.395 122.505 158.565V157.064C122.505 148.057 126.743 140.389 135.218 134.091C140.206 131.089 145.096 129.62 149.92 129.62ZM132.252 157.88C132.252 164.406 135.349 169.693 141.51 173.739C144.574 175.403 147.638 176.219 150.768 176.219C157.287 176.219 162.568 173.119 166.611 166.952C168.273 163.884 169.088 160.817 169.088 157.684C169.088 151.158 165.991 145.871 159.83 141.825C156.766 140.16 153.702 139.345 150.572 139.345C144.052 139.345 138.772 142.445 134.729 148.612C133.067 151.68 132.252 154.78 132.252 157.88Z" fill="#213864"/>
<path d="M223.332 129.783H232.59C232.819 129.816 232.916 129.914 232.916 130.11V185.487C232.916 185.715 232.819 185.813 232.59 185.813C231.938 185.03 219.877 173.739 196.439 151.908H196.243V185.617C196.243 185.846 196.145 185.944 195.917 185.944H186.822C186.594 185.944 186.496 185.846 186.496 185.617V129.946H186.659L223.006 163.688H223.169C223.169 162.677 224.767 161.469 227.961 160.066C228.646 159.838 229.2 159.74 229.624 159.74V159.577H223.332C223.104 159.577 223.006 159.479 223.006 159.25V130.11C223.039 129.881 223.137 129.783 223.332 129.783Z" fill="#213864"/>
<path d="M267.177 129.783H268.155C275.523 129.783 281.977 132.524 287.486 138.039C287.388 138.268 285.139 140.519 280.706 144.827C276.892 141.205 272.523 139.377 267.666 139.377C261.081 139.377 255.735 142.477 251.66 148.645C249.998 151.777 249.183 154.878 249.183 157.912C249.183 165.092 252.769 170.737 259.908 174.783C262.842 175.893 265.45 176.448 267.666 176.448C270.828 176.448 274.121 175.501 277.576 173.641V166.658C279.663 164.439 281.716 163.362 283.672 163.362V163.199H269.133C268.905 163.199 268.807 163.101 268.807 162.873V153.605C268.84 153.376 268.938 153.279 269.133 153.279H287.128C287.356 153.311 287.454 153.409 287.454 153.605V177.753C281.944 183.268 275.523 186.009 268.123 186.009H267.145C257.17 186.009 249.085 181.147 242.859 171.455C240.642 166.952 239.566 162.611 239.566 158.402V157.423C239.566 147.437 244.424 139.344 254.105 133.112C258.604 130.893 262.972 129.783 267.177 129.783Z" fill="#213864"/>
<path d="M0 155.367H20.3088V158.728H11.931V182.191H8.37778V158.728H0V155.367Z" fill="#213864"/>
<path d="M24.3838 155.367H27.937V167.31H42.7693V155.367H46.3551V182.191H42.7693V170.671H27.937V182.191H24.3838V155.367Z" fill="#213864"/>
<path d="M53.7871 155.367H71.8141V158.695H57.3403V166.984H70.2819V170.312H57.3403V178.862H72.2704V182.191H53.7871V155.367Z" fill="#213864"/>
<path d="M149.398 204.707C146.692 204.707 144.769 203.728 142.911 202.782C141.281 201.966 139.781 201.183 137.891 201.183C134.077 201.183 131.99 204.413 131.99 204.446L131.045 203.859C131.143 203.695 133.457 200.073 137.891 200.073C140.01 200.073 141.737 200.954 143.4 201.803C145.16 202.684 146.953 203.63 149.398 203.63C153.864 203.63 155.363 200.563 155.429 200.432L156.439 200.889C156.374 200.987 154.614 204.707 149.398 204.707Z" fill="#213864"/>
<path d="M149.398 200.955C146.692 200.955 144.769 199.976 142.911 199.029C141.281 198.213 139.781 197.43 137.891 197.43C134.077 197.43 131.99 200.661 131.99 200.693L131.045 200.073C131.143 199.91 133.457 196.288 137.891 196.288C140.01 196.288 141.737 197.169 143.4 198.018C145.16 198.899 146.953 199.845 149.398 199.845C153.896 199.845 155.396 196.68 155.429 196.647L156.439 197.104C156.374 197.234 154.614 200.955 149.398 200.955Z" fill="#213864"/>
<path d="M188.484 108.278H99.0011C92.9704 108.278 88.1133 103.383 88.1133 97.3789V0H199.372V97.3789C199.372 103.383 194.482 108.278 188.484 108.278Z" fill="#213864"/>
<path d="M133.36 46.6023V48.2665C133.36 48.8213 133.131 49.3434 132.773 49.7024L131.273 51.2035L129.806 49.735C129.415 49.3434 129.22 48.8213 129.22 48.2665V46.5044L131.306 48.5929L133.36 46.6023Z" fill="white"/>
<path d="M122.276 53.4873H123.939C124.493 53.4873 125.014 53.6831 125.406 54.0747L126.905 55.5758L125.438 57.0442C125.047 57.4358 124.525 57.6316 123.971 57.6316H122.211L124.297 55.5431L122.276 53.4873Z" fill="white"/>
<path d="M129.122 64.5826V62.9184C129.122 62.3636 129.318 61.8415 129.709 61.4825L131.208 59.9814L132.675 61.4499C133.066 61.8415 133.262 62.3636 133.262 62.9184V64.6805L131.176 62.592L129.122 64.5826Z" fill="white"/>
<path d="M140.238 57.665H138.543C137.988 57.665 137.467 57.4692 137.076 57.0776L135.576 55.5765L137.043 54.108C137.434 53.7165 137.956 53.488 138.51 53.5207H140.27L138.184 55.6418L140.238 57.665Z" fill="white"/>
<path d="M135.967 63.4075V62.0696C135.967 61.3843 135.674 60.699 135.185 60.2095L131.729 56.7505V58.1863C131.729 58.9042 132.023 59.5569 132.512 60.0464L135.967 63.4075Z" fill="white"/>
<path d="M139.032 60.2749H137.696C137.011 60.2749 136.327 60.0139 135.838 59.4918L132.35 56.0327H133.784C134.501 56.0327 135.153 56.3264 135.642 56.8159L139.032 60.2749Z" fill="white"/>
<path d="M139.032 50.8774H137.695C137.011 50.8774 136.326 51.1385 135.837 51.6606L132.382 55.1197H133.816C134.533 55.1197 135.185 54.826 135.674 54.3365L139.032 50.8774Z" fill="white"/>
<path d="M135.967 47.7769V49.1148C135.967 49.8001 135.674 50.4853 135.185 50.9748L131.729 54.4339V52.998C131.729 52.2801 132.023 51.6275 132.512 51.138L135.967 47.7769Z" fill="white"/>
<path d="M126.579 63.3748V62.0369C126.579 61.3516 126.84 60.6663 127.361 60.1768L130.817 56.7178V58.1536C130.817 58.8715 130.524 59.5242 130.035 60.0137L126.579 63.3748Z" fill="white"/>
<path d="M123.547 60.2749H124.883C125.568 60.2749 126.253 60.0139 126.742 59.4918L130.197 56.0327H128.763C128.046 56.0327 127.394 56.3264 126.872 56.8159L123.547 60.2749Z" fill="white"/>
<path d="M123.547 50.8774H124.883C125.568 50.8774 126.253 51.1711 126.742 51.6606L130.197 55.1197H128.763C128.046 55.1197 127.394 54.826 126.872 54.3365L123.547 50.8774Z" fill="white"/>
<path d="M126.579 47.7769V49.1148C126.579 49.8001 126.84 50.4853 127.361 50.9748L130.817 54.4339V52.998C130.817 52.2801 130.524 51.6275 130.035 51.138L126.579 47.7769Z" fill="white"/>
<path d="M132.154 30.8415H122.765V23.3687H120.744V41.2839H122.765V31.9184H132.186V41.2839H134.175V23.3687H132.154V30.8415Z" fill="white"/>
<path d="M181.932 30.8415H172.543V23.3687H170.555V41.2839H172.576V31.9184H181.964V41.2839H183.953V23.3687H181.932V30.8415Z" fill="white"/>
<path d="M167.067 23.3032L167.1 23.5969C167.393 27.1212 167.295 36.2909 167.295 37.3678C163.612 32.8319 159.928 28.2634 156.244 23.7274C156.049 23.499 155.723 23.1727 155.136 23.3685L154.94 23.4338V41.2837H156.212C156.212 41.2837 156.114 31.5592 156.049 26.8275C159.83 31.5266 163.644 36.2257 167.426 40.9574C167.523 41.0879 167.719 41.3163 168.012 41.3163C168.11 41.3163 168.208 41.2837 168.306 41.2511L168.469 41.1858V23.3685L167.067 23.3032Z" fill="white"/>
<path d="M145.878 24.0866C145.78 23.7929 145.682 23.4013 145.389 23.2381C145.128 23.0423 144.052 23.1076 144.052 23.1076C143.596 23.1076 143.4 23.2381 143.237 23.6297C141.966 26.6972 140.695 29.7646 139.423 32.7994L135.968 41.0555C135.968 41.0555 137.63 41.0555 137.663 41.0555C138.021 41.0555 138.282 40.8923 138.413 40.5007C138.836 39.4891 140.401 35.6385 140.401 35.6385C140.466 35.5079 140.466 35.5079 140.564 35.5079C143.4 35.5079 146.236 35.5079 149.105 35.5079C149.17 35.5079 149.203 35.5079 149.203 35.5079C149.203 35.5079 149.203 35.5079 149.235 35.5732C149.366 35.9974 150.963 40.9902 150.963 40.9902H152.854L145.975 24.3803L145.878 24.0866ZM144.932 24.8371L148.811 34.4963H140.923L144.932 24.8371Z" fill="white"/>
<path d="M119.538 77.6036C119.375 77.5383 119.212 77.5057 119.016 77.4404C119.179 77.3752 119.309 77.2773 119.472 77.212C121.167 76.2004 121.982 74.3077 121.493 72.5456C121.102 71.1424 120.092 70.1634 118.527 69.7392C117.745 69.5108 116.832 69.3802 115.789 69.3802C114.354 69.3476 112.887 69.3802 111.453 69.3802C110.866 69.3802 110.28 69.3802 109.693 69.4129C109.628 69.4129 109.562 69.4129 109.465 69.4129L109.139 69.4455V87.067L109.171 87.2954L109.465 87.3933L111.616 87.3607C113.344 87.3607 115.072 87.3281 116.799 87.2954C117.842 87.2628 118.82 87.067 119.668 86.7407C121.754 85.8922 122.895 84.1954 122.83 82.0416C122.83 79.8226 121.689 78.3215 119.538 77.6036ZM111.225 78.0278H112.399C113.637 78.0278 114.876 78.0278 116.082 78.0278C117.027 78.0278 117.908 78.2563 118.69 78.6478C120.19 79.431 121.004 80.8669 120.874 82.5311C120.744 84.0648 119.635 85.3701 118.071 85.7617C117.125 86.0228 116.18 86.1859 115.3 86.2186C114.289 86.2838 113.311 86.2512 112.268 86.2512C111.91 86.2512 111.584 86.2512 111.225 86.2512V78.0278ZM119.505 72.3172C119.831 73.0677 119.798 73.9814 119.375 74.8298C118.69 76.2983 117.549 77.0489 115.984 77.0489L111.16 77.1141V70.3266C111.16 70.3266 111.16 70.3266 111.192 70.3266C111.616 70.3266 112.007 70.3266 112.431 70.3266C113.474 70.3266 114.517 70.2939 115.561 70.3266C116.31 70.3592 116.995 70.4571 117.582 70.6855C118.527 70.9466 119.212 71.5666 119.505 72.3172Z" fill="white"/>
<path d="M134.077 70.3926C133.947 70.0336 133.849 69.6747 133.556 69.4789C133.295 69.2831 132.154 69.3483 132.121 69.3483C131.665 69.3483 131.534 69.6747 131.469 69.8378C129.742 73.9821 124.232 87.3288 124.232 87.3288H125.015C125.308 87.3288 125.602 87.3288 125.862 87.3288C125.895 87.3288 125.895 87.3288 125.928 87.3288C126.254 87.3288 126.482 87.1657 126.612 86.8393C127.003 85.8604 127.394 84.8814 127.818 83.9024C128.079 83.2498 128.372 82.5645 128.633 81.9118C128.698 81.7813 128.698 81.7813 128.796 81.7813C131.632 81.7813 134.468 81.7813 137.272 81.7813C137.402 81.7813 137.402 81.7813 137.435 81.8792C137.565 82.2708 139.195 87.2962 139.195 87.2962H141.053C141.053 87.2962 134.11 70.4905 134.077 70.3926ZM133.132 71.0779L137.011 80.7371H129.09L133.132 71.0779Z" fill="white"/>
<path d="M156.406 69.3154C156.178 69.3154 155.95 69.3154 155.754 69.3154C155.722 69.3154 155.722 69.3154 155.722 69.3154C155.363 69.3154 155.2 69.5439 155.135 69.7396C155.004 70.0007 154.907 70.2618 154.776 70.5555C154.45 71.2734 154.124 72.0239 153.733 72.6766C152.69 74.4714 149.691 79.3989 149.3 80.0841C149.3 80.0841 144.182 72.0566 142.715 69.7723C142.552 69.5112 142.356 69.3481 142.193 69.3481C141.867 69.3154 141.509 69.3481 141.15 69.3154H140.237C140.237 69.3154 145.975 78.4851 147.67 81.2263C147.768 81.3568 147.8 81.5526 147.8 81.7158C147.8 82.9558 147.8 87.2959 147.8 87.2959H149.821C149.821 87.2959 149.821 82.8579 149.821 81.6505C149.821 81.4547 149.886 81.2589 149.984 81.1284C151.712 78.322 157.254 69.3481 157.254 69.3481L156.406 69.3154Z" fill="white"/>
<path d="M102.881 25.3591L103.272 25.1634C105.098 24.2496 106.988 24.2823 109.009 24.3149C109.27 24.3149 109.498 24.3149 109.759 24.3149V41.2838H111.813V24.3149C112.139 24.3149 112.432 24.3149 112.758 24.3149C114.714 24.2823 116.507 24.2496 118.267 25.1634L118.659 25.3591V23.3359H102.881V25.3591V25.3591Z" fill="white"/>
<path d="M173.261 54.3042H167.1V55.5116L171.24 55.2505C171.24 57.5348 171.273 59.7864 171.273 62.0707C171.273 62.1033 171.24 62.1686 171.207 62.2012L170.849 62.397C170.327 62.6907 169.806 62.9844 169.252 63.1802C166.937 64.0613 164.818 63.8002 162.96 62.4296C161.2 61.0917 159.994 59.0359 159.668 56.719C159.342 54.4021 159.961 52.0525 161.33 50.2904C162.504 48.7567 164.068 47.8103 165.731 47.6471C167.393 47.484 169.023 48.0061 170.458 49.2135C170.653 49.3767 170.849 49.5725 171.077 49.7683L171.696 50.3556L172.185 48.6914L172.022 48.5609C170.425 47.4514 168.763 46.864 166.904 46.7661C164.166 46.6682 161.395 47.8103 159.57 49.8662C157.81 51.8567 157.092 54.4347 157.516 57.1432C158.201 61.4833 161.656 64.5181 166.089 64.7139C166.22 64.7139 166.383 64.7139 166.513 64.7139C168.73 64.7139 170.849 63.996 172.837 62.5275C173.131 62.3318 173.229 62.0707 173.229 61.7444C173.229 59.7864 173.196 57.8611 173.196 55.9358L173.261 54.3042Z" fill="white"/>
<path d="M121.429 62.755L121.103 62.8529C118.495 63.7666 115.887 63.7666 113.084 63.734C112.497 63.734 111.878 63.7014 111.258 63.734V46.7651H109.237V64.713H121.494V63.3424C121.527 63.2772 121.429 62.755 121.429 62.755Z" fill="white"/>
<path d="M154.289 47.0923L154.321 47.386C154.615 50.9103 154.517 60.08 154.517 61.1569C150.833 56.621 147.15 52.0524 143.466 47.5165C143.27 47.2881 142.944 46.9618 142.358 47.1576L142.162 47.2228V65.0728H143.433C143.433 65.0728 143.336 55.3483 143.27 50.6166C147.052 55.3157 150.866 60.0147 154.647 64.7464C154.745 64.877 154.941 65.1054 155.234 65.1054C155.332 65.1054 155.43 65.0728 155.527 65.0401L155.69 64.9749V47.1576L154.289 47.0923Z" fill="white"/>
<path d="M111.258 97.1502H110.932L110.215 96.2038L109.824 96.6281V97.1502H109.53V95.127H109.824V96.2691L110.867 95.127H111.193L110.378 96.008L111.258 97.1502Z" fill="white"/>
<path d="M112.758 95.8123C112.889 95.9428 112.954 96.1386 112.954 96.3997C112.954 96.4323 112.954 96.465 112.954 96.4976H111.748C111.78 96.6281 111.813 96.7586 111.911 96.8239C112.008 96.8892 112.106 96.9544 112.269 96.9544C112.367 96.9544 112.432 96.9218 112.53 96.8892C112.595 96.8565 112.693 96.8239 112.726 96.7586L112.889 96.9218C112.823 96.9871 112.726 97.0523 112.628 97.1176C112.53 97.1502 112.4 97.1829 112.269 97.1829C112.106 97.1829 111.976 97.1502 111.878 97.085C111.748 97.0197 111.683 96.9218 111.617 96.8239C111.552 96.6934 111.52 96.5629 111.52 96.4323C111.52 96.2692 111.552 96.1386 111.617 96.0407C111.683 95.9102 111.78 95.8449 111.878 95.7797C112.009 95.7144 112.139 95.6818 112.269 95.6818C112.432 95.5839 112.628 95.6492 112.758 95.8123ZM112.693 96.2692C112.693 96.1386 112.628 96.0081 112.563 95.9428C112.465 95.8776 112.367 95.8123 112.237 95.8123C112.106 95.8123 111.976 95.8449 111.911 95.9428C111.813 96.0407 111.78 96.1386 111.748 96.2692H112.693ZM112.628 95.3555H112.367L112.204 95.1597L112.041 95.3555H111.78L112.074 94.9639H112.367L112.628 95.3555Z" fill="white"/>
<path d="M115.496 96.1385H115.757V96.889C115.659 96.9543 115.528 97.0196 115.398 97.0848C115.268 97.1175 115.137 97.1501 114.974 97.1501C114.779 97.1501 114.583 97.1175 114.42 97.0196C114.257 96.9217 114.127 96.7911 114.029 96.628C113.931 96.4648 113.898 96.3016 113.898 96.1058C113.898 95.9101 113.931 95.7469 114.029 95.5837C114.127 95.4206 114.257 95.29 114.42 95.2248C114.583 95.1269 114.779 95.0942 114.974 95.0942C115.105 95.0942 115.268 95.1269 115.398 95.1595C115.528 95.2248 115.659 95.29 115.757 95.3553L115.594 95.5511C115.528 95.4858 115.431 95.4206 115.3 95.3879C115.202 95.3553 115.072 95.3227 114.974 95.3227C114.844 95.3227 114.681 95.3553 114.583 95.4206C114.453 95.4858 114.355 95.5837 114.29 95.7143C114.224 95.8448 114.192 95.9753 114.192 96.1058C114.192 96.2364 114.224 96.3669 114.29 96.4974C114.355 96.628 114.453 96.7259 114.583 96.7911C114.713 96.8564 114.844 96.889 114.974 96.889C115.072 96.889 115.137 96.889 115.235 96.8564C115.333 96.8238 115.398 96.7911 115.496 96.7259V96.1385Z" fill="white"/>
<path d="M117.191 97.1502V96.9218C117.061 97.085 116.898 97.1502 116.637 97.1502C116.539 97.1502 116.442 97.1176 116.344 97.085C116.279 97.0523 116.213 96.9871 116.148 96.9218C116.116 96.8566 116.083 96.7586 116.083 96.6934C116.083 96.5629 116.148 96.4323 116.246 96.3671C116.344 96.3018 116.474 96.2365 116.67 96.2365H117.159V96.1713C117.159 96.0734 117.126 95.9755 117.061 95.9102C116.996 95.8449 116.898 95.8123 116.768 95.8123C116.605 95.8123 116.442 95.8776 116.279 95.9755L116.181 95.7797C116.279 95.7144 116.409 95.6492 116.474 95.6165C116.572 95.5839 116.67 95.5839 116.8 95.5839C116.996 95.5839 117.126 95.6165 117.257 95.7144C117.354 95.8123 117.42 95.9428 117.42 96.106V97.1176H117.191V97.1502ZM116.637 94.9639L116.963 95.3555L116.735 95.3881L116.376 95.0944L116.637 94.9639ZM117.028 96.8239C117.126 96.7586 117.159 96.6934 117.191 96.5955V96.4323H116.735C116.605 96.4323 116.507 96.465 116.474 96.4976C116.409 96.5302 116.376 96.5955 116.376 96.6608C116.376 96.726 116.409 96.7913 116.474 96.8566C116.539 96.8892 116.605 96.9218 116.702 96.9218C116.833 96.9218 116.931 96.8892 117.028 96.8239Z" fill="white"/>
<path d="M121.625 95.2247C121.755 95.3226 121.788 95.4532 121.788 95.5837C121.788 95.7142 121.755 95.8121 121.69 95.8774C121.625 95.9427 121.527 96.0079 121.429 96.0406C121.56 96.0732 121.69 96.1058 121.755 96.2037C121.821 96.3016 121.886 96.3995 121.886 96.5627C121.886 96.7258 121.821 96.889 121.69 96.9869C121.56 97.0848 121.364 97.1501 121.136 97.1501H120.256V95.1268H121.136C121.332 95.0942 121.495 95.1595 121.625 95.2247ZM121.397 95.8774C121.462 95.8121 121.495 95.7469 121.495 95.649C121.495 95.5511 121.462 95.4858 121.397 95.4205C121.332 95.3553 121.234 95.3553 121.103 95.3553H120.517V95.9753H121.103C121.234 95.9753 121.332 95.9427 121.397 95.8774ZM121.462 96.7911C121.56 96.7258 121.592 96.6606 121.592 96.53C121.592 96.4321 121.56 96.3342 121.462 96.3016C121.364 96.2363 121.266 96.2037 121.103 96.2037H120.517V96.8564H121.103C121.266 96.889 121.364 96.8564 121.462 96.7911Z" fill="white"/>
<path d="M122.277 94.9639L122.603 95.3555L122.375 95.3881L122.016 95.0944L122.277 94.9639ZM122.309 95.6165H122.57V97.1502H122.309V95.6165Z" fill="white"/>
<path d="M124.363 95.7474C124.493 95.8453 124.526 96.0085 124.526 96.2043V97.1506H124.265V96.2695C124.265 96.139 124.232 96.0411 124.167 95.9758C124.102 95.9106 124.004 95.8779 123.874 95.8779C123.743 95.8779 123.613 95.9106 123.548 96.0085C123.45 96.1064 123.417 96.2043 123.385 96.3348V97.1506H123.124V95.6169H123.385V95.9432C123.483 95.7148 123.678 95.6169 123.972 95.6169C124.135 95.5843 124.265 95.6495 124.363 95.7474Z" fill="white"/>
<path d="M126.319 95.7471C126.417 95.845 126.482 96.0082 126.482 96.1713V97.1177H126.221V96.2366C126.221 96.1061 126.188 96.0082 126.123 95.9429C126.058 95.8776 125.96 95.845 125.83 95.845C125.667 95.845 125.569 95.9103 125.471 96.0082C125.373 96.1061 125.341 96.2366 125.341 96.3998V97.1503H125.08V94.9966H125.341V95.9429C125.439 95.7145 125.634 95.6166 125.928 95.6166C126.058 95.584 126.221 95.6492 126.319 95.7471Z" fill="white"/>
<path d="M127.459 95.0942H129.056V95.3553H128.404V97.1501H128.111V95.3553H127.459V95.0942V95.0942Z" fill="white"/>
<path d="M130.492 95.7471C130.59 95.845 130.655 96.0082 130.655 96.1713V97.1177H130.394V96.2366C130.394 96.1061 130.361 96.0082 130.296 95.9429C130.231 95.8776 130.133 95.845 130.003 95.845C129.84 95.845 129.742 95.9103 129.644 96.0082C129.546 96.1061 129.514 96.2366 129.514 96.3998V97.1503H129.253V94.9966H129.514V95.9429C129.612 95.7145 129.807 95.6166 130.101 95.6166C130.264 95.584 130.394 95.6492 130.492 95.7471Z" fill="white"/>
<path d="M132.48 95.6161V97.1499H132.219V96.8235C132.122 97.052 131.926 97.1499 131.633 97.1499C131.47 97.1499 131.307 97.0846 131.209 96.9867C131.111 96.8888 131.046 96.7256 131.046 96.5625V95.6161H131.307V96.4972C131.307 96.6277 131.339 96.7256 131.404 96.7909C131.47 96.8562 131.567 96.8888 131.698 96.8888C131.828 96.8888 131.959 96.8235 132.024 96.7256C132.122 96.6277 132.154 96.4972 132.154 96.3341V95.5835H132.48V95.6161Z" fill="white"/>
<path d="M133.946 97.1502V96.9218C133.816 97.085 133.653 97.1502 133.392 97.1502C133.294 97.1502 133.196 97.1176 133.099 97.085C133.033 97.0523 132.968 96.9871 132.903 96.9218C132.87 96.8566 132.838 96.7586 132.838 96.6934C132.838 96.5629 132.903 96.4323 133.001 96.3671C133.099 96.3018 133.229 96.2365 133.425 96.2365H133.914V96.1713C133.914 96.0734 133.881 95.9755 133.816 95.9102C133.751 95.8449 133.653 95.8123 133.522 95.8123C133.359 95.8123 133.196 95.8776 133.033 95.9755L132.936 95.7797C133.033 95.7144 133.164 95.6492 133.229 95.6165C133.327 95.5839 133.425 95.5839 133.555 95.5839C133.751 95.5839 133.881 95.6165 134.012 95.7144C134.109 95.8123 134.174 95.9428 134.174 96.106V97.1176H133.946V97.1502ZM134.044 95.3555H133.783L133.62 95.1597L133.457 95.3555H133.196L133.49 94.9639H133.783L134.044 95.3555ZM133.783 96.8239C133.881 96.7587 133.914 96.6934 133.946 96.5955V96.4323H133.49C133.359 96.4323 133.262 96.465 133.229 96.4976C133.164 96.5302 133.131 96.5955 133.131 96.6608C133.131 96.726 133.164 96.7913 133.229 96.8566C133.294 96.8892 133.359 96.9218 133.457 96.9218C133.588 96.9218 133.718 96.8892 133.783 96.8239ZM133.718 97.4113C133.751 97.4439 133.751 97.4766 133.751 97.5418C133.751 97.6071 133.751 97.6397 133.718 97.6724C133.685 97.705 133.653 97.7376 133.588 97.7376C133.555 97.7376 133.49 97.705 133.457 97.6724C133.425 97.6397 133.425 97.6071 133.425 97.5418C133.425 97.4766 133.425 97.4439 133.457 97.4113C133.49 97.3787 133.522 97.346 133.588 97.346C133.62 97.346 133.685 97.3787 133.718 97.4113Z" fill="white"/>
<path d="M136 95.7467C136.098 95.8446 136.163 96.0077 136.163 96.1709V97.1172H135.903V96.2361C135.903 96.1056 135.87 96.0077 135.805 95.9425C135.74 95.8772 135.642 95.8446 135.511 95.8446C135.381 95.8446 135.251 95.8772 135.185 95.9751C135.088 96.073 135.055 96.1709 135.023 96.3014V97.1172H134.762V95.5835H135.023V95.9098C135.12 95.6814 135.316 95.5835 135.609 95.5835C135.74 95.5835 135.903 95.6488 136 95.7467Z" fill="white"/>
<path d="M138.673 95.0942H138.966L139.651 96.8238L140.336 95.0942H140.63L139.814 97.1174H139.521L138.673 95.0942Z" fill="white"/>
<path d="M141.151 95.0291C141.184 95.0618 141.184 95.0944 141.184 95.1597C141.184 95.2249 141.184 95.2576 141.151 95.2902C141.118 95.3228 141.086 95.3555 141.021 95.3555C140.988 95.3555 140.923 95.3228 140.89 95.2902C140.857 95.2576 140.857 95.2249 140.857 95.1597C140.857 95.0944 140.857 95.0618 140.89 95.0291C140.923 94.9965 140.955 94.9639 141.021 94.9639C141.053 94.9965 141.118 94.9965 141.151 95.0291ZM140.89 95.6165H141.151V97.1502H140.89V95.6165Z" fill="white"/>
<path d="M142.847 95.8123C142.977 95.9428 143.042 96.1386 143.042 96.3997C143.042 96.4323 143.042 96.465 143.042 96.4976H141.803C141.836 96.6281 141.869 96.7587 141.966 96.8239C142.064 96.8892 142.162 96.9544 142.325 96.9544C142.423 96.9544 142.488 96.9218 142.586 96.8892C142.651 96.8565 142.749 96.8239 142.781 96.7586L142.944 96.9218C142.879 96.9871 142.781 97.0523 142.684 97.1176C142.586 97.1502 142.455 97.1829 142.325 97.1829C142.162 97.1829 142.032 97.1502 141.934 97.085C141.803 97.0197 141.738 96.9218 141.673 96.8239C141.608 96.6934 141.575 96.5629 141.575 96.4323C141.575 96.2692 141.608 96.1386 141.673 96.0407C141.738 95.9102 141.836 95.8449 141.934 95.7797C142.064 95.7144 142.195 95.6818 142.325 95.6818C142.553 95.5839 142.716 95.6492 142.847 95.8123ZM142.781 96.2692C142.781 96.1386 142.716 96.0081 142.651 95.9428C142.553 95.8776 142.455 95.8123 142.325 95.8123C142.195 95.8123 142.064 95.8449 141.999 95.9428C141.901 96.0407 141.869 96.1386 141.836 96.2692H142.781ZM142.749 95.3555H142.455L142.292 95.1597L142.129 95.3555H141.869L142.162 94.9639H142.455L142.749 95.3555ZM142.423 97.4113C142.455 97.4439 142.455 97.4766 142.455 97.5418C142.455 97.6071 142.455 97.6397 142.423 97.6724C142.39 97.705 142.358 97.7376 142.292 97.7376C142.227 97.7376 142.195 97.705 142.162 97.6724C142.129 97.6397 142.129 97.6071 142.129 97.5418C142.129 97.4766 142.129 97.4439 142.162 97.4113C142.195 97.3787 142.227 97.346 142.292 97.346C142.358 97.346 142.39 97.3787 142.423 97.4113Z" fill="white"/>
<path d="M144.215 97.0526C144.085 97.1179 143.987 97.1505 143.857 97.1505C143.726 97.1505 143.628 97.1179 143.563 97.0526C143.498 96.9873 143.465 96.8568 143.465 96.7263V95.8778H143.237V95.682H143.465V95.2578H143.726V95.682H144.183V95.8778H143.726V96.6936C143.726 96.7915 143.726 96.8242 143.759 96.8894C143.791 96.9221 143.824 96.9547 143.889 96.9547C143.954 96.9547 144.052 96.9221 144.117 96.8894L144.215 97.0526Z" fill="white"/>
<path d="M146.791 95.0942H147.051V97.1174H146.758L145.584 95.5511V97.1174H145.291V95.0942H145.584L146.758 96.6606V95.0942H146.791Z" fill="white"/>
<path d="M148.551 97.1499V96.9214C148.42 97.0846 148.257 97.1499 147.997 97.1499C147.899 97.1499 147.801 97.1172 147.703 97.0846C147.638 97.052 147.573 96.9867 147.508 96.9214C147.475 96.8562 147.442 96.7583 147.442 96.693C147.442 96.5625 147.508 96.4319 147.605 96.3667C147.703 96.3014 147.834 96.2361 148.029 96.2361H148.518V96.1709C148.518 96.073 148.486 95.9751 148.42 95.9098C148.355 95.8446 148.257 95.8119 148.127 95.8119C147.964 95.8119 147.801 95.8772 147.638 95.9751L147.54 95.7793C147.638 95.714 147.768 95.6488 147.834 95.6161C147.931 95.5835 148.029 95.5835 148.16 95.5835C148.355 95.5835 148.486 95.6161 148.616 95.714C148.714 95.8119 148.779 95.9425 148.779 96.1056V97.1172H148.551V97.1499ZM148.388 96.8235C148.486 96.7583 148.518 96.693 148.551 96.5951V96.4319H148.094C147.964 96.4319 147.866 96.4646 147.834 96.4972C147.768 96.5298 147.736 96.5951 147.736 96.6604C147.736 96.7256 147.768 96.7909 147.834 96.8562C147.899 96.8888 147.964 96.9214 148.062 96.9214C148.192 96.9214 148.323 96.8888 148.388 96.8235Z" fill="white"/>
<path d="M151.713 95.7467C151.811 95.8446 151.876 96.0078 151.876 96.1709V97.1173H151.583V96.2362C151.583 96.1057 151.55 96.0078 151.485 95.9425C151.42 95.8773 151.322 95.8446 151.192 95.8446C151.061 95.8446 150.931 95.9099 150.833 96.0078C150.735 96.1057 150.703 96.2362 150.703 96.3994V97.1499H150.442V96.2689C150.442 96.1383 150.409 96.0404 150.344 95.9752C150.279 95.9099 150.181 95.8773 150.051 95.8773C149.92 95.8773 149.79 95.9425 149.692 96.0404C149.594 96.1383 149.562 96.2688 149.562 96.432V97.1826H149.301V95.6488H149.562V95.9752C149.659 95.7467 149.855 95.6488 150.148 95.6488C150.279 95.6488 150.409 95.6815 150.507 95.7467C150.605 95.812 150.67 95.9099 150.703 96.0404C150.8 95.7794 150.996 95.6488 151.289 95.6488C151.485 95.5836 151.615 95.6488 151.713 95.7467Z" fill="white"/>
<path d="M119.31 96.0404C119.31 96.2689 119.115 96.4646 118.886 96.4646C118.658 96.4646 118.462 96.2689 118.462 96.0404C118.462 95.812 118.658 95.6162 118.886 95.6162C119.115 95.6162 119.31 95.812 119.31 96.0404Z" fill="white"/>
<path d="M137.957 96.0404C137.957 96.2689 137.761 96.4646 137.533 96.4646C137.304 96.4646 137.108 96.2689 137.108 96.0404C137.108 95.812 137.304 95.6162 137.533 95.6162C137.794 95.6162 137.957 95.812 137.957 96.0404Z" fill="white"/>
</svg>
