<svg width="242" height="63" viewBox="0 0 242 63" fill="none" xmlns="http://www.w3.org/2000/svg">
<path d="M83.4213 0.13678H84.953C89.4933 0.13678 93.4045 2.16289 96.7414 6.24248C96.6593 6.43414 94.7721 8.32334 91.0523 11.9375H90.9156C88.8095 9.52805 86.6761 8.32334 84.5427 8.32334C80.9871 8.32334 78.9084 9.6102 78.3067 12.2113V12.4851C78.3067 15.1135 82.3273 18.0432 90.3685 21.2192C93.4045 22.8346 95.4559 24.3132 96.4679 25.6548C98.0269 27.8725 98.8201 30.4189 98.8201 33.2937C98.8201 37.5924 97.0696 41.3434 93.5413 44.5195C90.9429 46.3813 87.9616 47.2848 84.5427 47.2848C76.4468 47.2848 70.7577 44.5468 67.5029 39.0983L74.0125 33.2664C77.322 36.9626 80.358 38.8245 83.1478 38.8245C87.7702 38.8245 90.0677 37.1269 90.0677 33.7044C90.0677 31.1034 86.2932 28.2832 78.7169 25.2441C76.7203 24.2584 74.8878 22.9168 73.1646 21.2192C71.4415 19.2753 70.5389 17.4134 70.4022 15.6611C72.0979 13.5255 73.9031 12.4577 75.8177 12.4577V12.3208H70.4022C70.2107 12.3208 70.1286 12.2387 70.1286 12.047V11.9101C70.1286 6.70793 72.7544 3.0938 78.0331 1.09507C79.8383 0.465333 81.6435 0.13678 83.4213 0.13678Z" fill="#213864"/>
<path d="M125.789 0H127.047C134.596 0 141.023 3.55936 146.302 10.6781C148.791 14.8671 150.049 18.9741 150.049 23.0263V24.2857C150.049 31.8425 146.493 38.2767 139.382 43.561C135.197 46.0525 131.095 47.312 127.047 47.312H125.789C118.24 47.312 111.812 43.7526 106.533 36.6339C104.044 32.4449 102.786 28.3379 102.786 24.2857V23.0263C102.786 15.4695 106.342 9.03528 113.453 3.75102C117.638 1.23209 121.741 0 125.789 0ZM110.964 23.7108C110.964 29.1867 113.563 33.6222 118.732 37.0173C121.303 38.4136 123.874 39.0981 126.5 39.0981C131.97 39.0981 136.401 36.497 139.792 31.3223C141.187 28.7486 141.871 26.1749 141.871 23.5465C141.871 18.0706 139.273 13.6351 134.103 10.24C131.532 8.84362 128.961 8.15914 126.336 8.15914C120.865 8.15914 116.434 10.7602 113.043 15.9349C111.648 18.5086 110.964 21.1097 110.964 23.7108Z" fill="#213864"/>
<path d="M187.384 0.137024H195.152C195.344 0.164404 195.426 0.246539 195.426 0.410817V46.8742C195.426 47.0659 195.344 47.148 195.152 47.148C194.605 46.4909 184.485 37.0175 164.82 18.7005H164.656V46.9837C164.656 47.1754 164.573 47.2575 164.382 47.2575H156.751C156.56 47.2575 156.478 47.1754 156.478 46.9837V0.27392H156.614L187.111 28.5846H187.248C187.248 27.7358 188.588 26.7227 191.268 25.5454C191.843 25.3537 192.308 25.2716 192.663 25.2716V25.1347H187.384C187.193 25.1347 187.111 25.0526 187.111 24.8609V0.410817C187.138 0.219159 187.22 0.137024 187.384 0.137024Z" fill="#213864"/>
<path d="M224.171 0.137024H224.992C231.173 0.137024 236.589 2.43693 241.211 7.06414C241.129 7.2558 239.242 9.14501 235.522 12.7592C232.322 9.71998 228.657 8.18671 224.582 8.18671C219.057 8.18671 214.571 10.7878 211.152 15.9626C209.757 18.5911 209.074 21.1922 209.074 23.7385C209.074 29.7621 212.082 34.4988 218.072 37.8939C220.534 38.8248 222.722 39.2903 224.582 39.2903C227.235 39.2903 229.997 38.4963 232.896 36.9356V31.0763C234.647 29.2145 236.37 28.3109 238.011 28.3109V28.174H225.812C225.621 28.174 225.539 28.0919 225.539 27.9003V20.1244C225.566 19.9327 225.648 19.8506 225.812 19.8506H240.91C241.102 19.8779 241.184 19.9601 241.184 20.1244V40.3855C236.561 45.0127 231.173 47.3126 224.965 47.3126H224.144C215.775 47.3126 208.991 43.233 203.767 35.1012C201.907 31.3227 201.005 27.6812 201.005 24.1492V23.3278C201.005 14.9495 205.08 8.15933 213.204 2.92977C216.978 1.06793 220.643 0.137024 224.171 0.137024Z" fill="#213864"/>
<path d="M0 21.6029H17.0398V24.423H10.0105V44.1091H7.02926V24.423H0V21.6029Z" fill="#213864"/>
<path d="M20.459 21.6019H23.4403V31.6229H35.8851V21.6019H38.8937V44.1081H35.8851V34.4431H23.4403V44.1081H20.459V21.6019Z" fill="#213864"/>
<path d="M45.1299 21.6019H60.2551V24.3947H48.1112V31.3491H58.9696V34.1419H48.1112V41.3154H60.638V44.1081H45.1299V21.6019Z" fill="#213864"/>
<path d="M125.35 62.9999C123.08 62.9999 121.466 62.1785 119.907 61.3846C118.539 60.7001 117.281 60.043 115.695 60.043C112.495 60.043 110.744 62.7535 110.744 62.7809L109.951 62.2881C110.033 62.1512 111.975 59.1121 115.695 59.1121C117.473 59.1121 118.922 59.8513 120.317 60.5632C121.794 61.3024 123.299 62.0964 125.35 62.0964C129.097 62.0964 130.355 59.5228 130.41 59.4133L131.258 59.7966C131.203 59.8787 129.726 62.9999 125.35 62.9999Z" fill="#213864"/>
<path d="M125.35 59.852C123.08 59.852 121.466 59.0306 119.907 58.2366C118.539 57.5521 117.281 56.8949 115.695 56.8949C112.495 56.8949 110.744 59.6056 110.744 59.6329L109.951 59.1127C110.033 58.9758 111.975 55.9366 115.695 55.9366C117.473 55.9366 118.922 56.6759 120.317 57.3878C121.794 58.127 123.299 58.9211 125.35 58.9211C129.124 58.9211 130.383 56.2652 130.41 56.2378L131.258 56.6211C131.203 56.7307 129.726 59.852 125.35 59.852Z" fill="#213864"/>
</svg>
