<svg width="587" height="166" viewBox="0 0 587 166" fill="none" xmlns="http://www.w3.org/2000/svg">
<path d="M58.755 10.804C59.8543 10.94 60.693 11.314 61.271 11.926C61.849 12.538 62.138 13.303 62.138 14.221C62.138 14.9124 61.9623 15.5414 61.611 16.108C61.2597 16.6747 60.727 17.128 60.013 17.468C59.3103 17.7967 58.449 17.961 57.429 17.961C56.579 17.961 55.7573 17.842 54.964 17.604C54.182 17.3547 53.5133 17.0147 52.958 16.584L53.91 14.867C54.3407 15.2297 54.862 15.5187 55.474 15.734C56.0973 15.938 56.7377 16.04 57.395 16.04C58.177 16.04 58.789 15.8814 59.231 15.564C59.6843 15.2354 59.911 14.7934 59.911 14.238C59.911 13.6827 59.6957 13.252 59.265 12.946C58.8457 12.6287 58.1997 12.47 57.327 12.47H56.239V10.957L58.942 7.74402H53.536V5.89102H61.645V7.37002L58.755 10.804Z" fill="#00A4C3"/>
<path d="M68.5475 17.961C67.5955 17.961 66.7455 17.723 65.9975 17.247C65.2495 16.7597 64.6602 16.057 64.2295 15.139C63.7989 14.2097 63.5835 13.1104 63.5835 11.841C63.5835 10.5717 63.7989 9.47802 64.2295 8.56002C64.6602 7.63068 65.2495 6.92802 65.9975 6.45202C66.7455 5.96468 67.5955 5.72102 68.5475 5.72102C69.4995 5.72102 70.3495 5.96468 71.0975 6.45202C71.8569 6.92802 72.4519 7.63068 72.8825 8.56002C73.3132 9.47802 73.5285 10.5717 73.5285 11.841C73.5285 13.1104 73.3132 14.2097 72.8825 15.139C72.4519 16.057 71.8569 16.7597 71.0975 17.247C70.3495 17.723 69.4995 17.961 68.5475 17.961ZM68.5475 16.04C69.3975 16.04 70.0662 15.6887 70.5535 14.986C71.0522 14.2834 71.3015 13.235 71.3015 11.841C71.3015 10.447 71.0522 9.39868 70.5535 8.69602C70.0662 7.99335 69.3975 7.64202 68.5475 7.64202C67.7089 7.64202 67.0402 7.99335 66.5415 8.69602C66.0542 9.39868 65.8105 10.447 65.8105 11.841C65.8105 13.235 66.0542 14.2834 66.5415 14.986C67.0402 15.6887 67.7089 16.04 68.5475 16.04Z" fill="#00A4C3"/>
<path d="M85.4663 5.89102C86.4976 5.89102 87.3929 6.06102 88.1523 6.40102C88.9229 6.74102 89.5123 7.22835 89.9203 7.86302C90.3283 8.49768 90.5323 9.25135 90.5323 10.124C90.5323 10.9854 90.3283 11.739 89.9203 12.385C89.5123 13.0197 88.9229 13.507 88.1523 13.847C87.3929 14.187 86.4976 14.357 85.4663 14.357H82.7803V17.791H80.5703V5.89102H85.4663ZM85.3643 12.487C86.3276 12.487 87.0586 12.283 87.5573 11.875C88.0559 11.467 88.3053 10.8834 88.3053 10.124C88.3053 9.36468 88.0559 8.78102 87.5573 8.37302C87.0586 7.96502 86.3276 7.76102 85.3643 7.76102H82.7803V12.487H85.3643Z" fill="#00A4C3"/>
<path d="M103.313 5.89102V17.791H101.103V12.691H94.9492V17.791H92.7392V5.89102H94.9492V10.804H101.103V5.89102H103.313Z" fill="#00A4C3"/>
<path d="M111.619 17.961C109.976 17.961 108.695 17.502 107.777 16.584C106.859 15.6547 106.4 14.3287 106.4 12.606V5.89102H108.61V12.521C108.61 14.8557 109.619 16.023 111.636 16.023C113.642 16.023 114.645 14.8557 114.645 12.521V5.89102H116.821V12.606C116.821 14.3287 116.362 15.6547 115.444 16.584C114.537 17.502 113.262 17.961 111.619 17.961ZM112.503 2.59302H115.002L112.044 4.92202H110.208L112.503 2.59302Z" fill="#00A4C3"/>
<path d="M122.114 7.76102H118.17V5.89102H128.268V7.76102H124.324V17.791H122.114V7.76102Z" fill="#00A4C3"/>
<path d="M39.6975 21.8956C39.6975 31.8789 31.6639 39.9832 21.7394 39.9832C11.8275 39.9832 3.78125 31.8789 3.78125 21.8956C3.78125 11.9123 11.8275 3.80811 21.7394 3.80811C31.6639 3.80811 39.6975 11.9123 39.6975 21.8956Z" fill="#00A4C3"/>
<path d="M43.4778 21.8954C43.4778 33.9804 33.7529 43.7908 21.7389 43.7908C9.74025 43.7908 0 33.9804 0 21.8954C0 9.81037 9.74025 0 21.7389 0C33.7529 0 43.4778 9.81037 43.4778 21.8954Z" fill="#00A4C3"/>
<g clip-path="url(#clip0)">
<path d="M18.4891 32.0017L20.1864 30.4104L19.3379 28.0238L23.2366 24.3688L28.7526 31.1309L30.4499 29.5396L26.6312 21.1863L30.9075 17.1773C32.078 16.08 32.48 14.4842 31.956 13.0119C30.3855 12.5213 28.6834 12.8979 27.5125 13.9952L23.2362 18.0042L14.326 14.4246L12.6287 16.0154L19.8416 21.1867L15.9429 24.8417L13.3971 24.0463L11.7002 25.6371L15.9433 28.0238L18.4891 32.0017Z" fill="white"/>
<path d="M29.1762 22.7784L28.8174 23.1148L29.8355 25.3424L30.8731 24.3696C31.3416 23.9301 31.3416 23.2179 30.8731 22.7784C30.4047 22.3388 29.645 22.3388 29.1762 22.7784Z" fill="white"/>
<path d="M18.8047 15L21.1809 15.9548L21.5397 15.6184C22.0085 15.1789 22.0085 14.4667 21.5397 14.0272C21.0712 13.5876 20.3112 13.5876 19.8424 14.0272L18.8047 15Z" fill="white"/>
</g>
<path d="M54.9403 87.3822H59.3723C60.535 87.3822 61.5643 87.6222 62.4603 88.1022C63.367 88.5822 64.071 89.2488 64.5723 90.1022C65.0736 90.9448 65.3243 91.9048 65.3243 92.9822C65.3243 94.0595 65.0736 95.0248 64.5723 95.8782C64.071 96.7208 63.367 97.3822 62.4603 97.8622C61.5643 98.3422 60.535 98.5822 59.3723 98.5822H54.9403V87.3822ZM59.3083 97.8462C60.343 97.8462 61.255 97.6435 62.0443 97.2382C62.8336 96.8222 63.4416 96.2462 63.8683 95.5102C64.295 94.7742 64.5083 93.9315 64.5083 92.9822C64.5083 92.0328 64.295 91.1902 63.8683 90.4542C63.4416 89.7182 62.8336 89.1475 62.0443 88.7422C61.255 88.3262 60.343 88.1182 59.3083 88.1182H55.7563V97.8462H59.3083ZM53.1963 92.5502H59.2123V93.2382H53.1963V92.5502Z" fill="#303030"/>
<path d="M74.9579 94.5982H67.7739C67.7952 95.2488 67.9606 95.8302 68.2699 96.3422C68.5792 96.8435 68.9952 97.2328 69.5179 97.5102C70.0512 97.7875 70.6486 97.9262 71.3099 97.9262C71.8539 97.9262 72.3552 97.8302 72.8139 97.6382C73.2832 97.4355 73.6726 97.1422 73.9819 96.7582L74.4459 97.2862C74.0832 97.7235 73.6246 98.0595 73.0699 98.2942C72.5259 98.5288 71.9339 98.6462 71.2939 98.6462C70.4619 98.6462 69.7206 98.4648 69.0699 98.1022C68.4192 97.7395 67.9072 97.2382 67.5339 96.5982C67.1712 95.9582 66.9899 95.2275 66.9899 94.4062C66.9899 93.5955 67.1606 92.8702 67.5019 92.2302C67.8539 91.5795 68.3339 91.0728 68.9419 90.7102C69.5499 90.3475 70.2326 90.1662 70.9899 90.1662C71.7472 90.1662 72.4246 90.3475 73.0219 90.7102C73.6299 91.0622 74.1046 91.5582 74.4459 92.1982C74.7979 92.8382 74.9739 93.5635 74.9739 94.3742L74.9579 94.5982ZM70.9899 90.8702C70.4032 90.8702 69.8752 91.0035 69.4059 91.2702C68.9366 91.5262 68.5579 91.8942 68.2699 92.3742C67.9926 92.8435 67.8326 93.3768 67.7899 93.9742H74.1899C74.1579 93.3768 73.9979 92.8435 73.7099 92.3742C73.4219 91.9048 73.0432 91.5368 72.5739 91.2702C72.1046 91.0035 71.5766 90.8702 70.9899 90.8702ZM72.6059 88.8702L70.9899 87.8942L69.3739 88.8702H68.5259L70.5579 87.4622H71.4219L73.4539 88.8702H72.6059ZM74.3179 85.9102H75.3899L73.1339 87.5902H72.3499L74.3179 85.9102Z" fill="#303030"/>
<path d="M81.5288 90.1662C82.5741 90.1662 83.4008 90.4702 84.0088 91.0782C84.6168 91.6862 84.9208 92.5608 84.9208 93.7022V98.5822H84.1208V93.7662C84.1208 92.8275 83.8808 92.1128 83.4008 91.6222C82.9315 91.1315 82.2701 90.8862 81.4168 90.8862C80.4355 90.8862 79.6621 91.1795 79.0968 91.7662C78.5315 92.3528 78.2488 93.1422 78.2488 94.1342V98.5822H77.4488V90.2302H78.2168V92.0382C78.5048 91.4515 78.9315 90.9928 79.4968 90.6622C80.0728 90.3315 80.7501 90.1662 81.5288 90.1662Z" fill="#303030"/>
<path d="M94.4358 98.6462C93.7638 98.6462 93.1238 98.5448 92.5158 98.3422C91.9078 98.1395 91.4331 97.8835 91.0918 97.5742L91.4598 96.9342C91.8011 97.2222 92.2385 97.4622 92.7718 97.6542C93.3158 97.8462 93.8811 97.9422 94.4678 97.9422C95.3105 97.9422 95.9291 97.8035 96.3238 97.5262C96.7291 97.2488 96.9318 96.8648 96.9318 96.3742C96.9318 96.0222 96.8198 95.7448 96.5958 95.5422C96.3825 95.3395 96.1158 95.1902 95.7958 95.0942C95.4758 94.9982 95.0331 94.8968 94.4678 94.7902C93.8065 94.6728 93.2731 94.5448 92.8678 94.4062C92.4625 94.2675 92.1158 94.0435 91.8278 93.7342C91.5398 93.4248 91.3958 92.9982 91.3958 92.4542C91.3958 91.7928 91.6678 91.2488 92.2118 90.8222C92.7665 90.3848 93.5505 90.1662 94.5638 90.1662C95.0971 90.1662 95.6251 90.2408 96.1478 90.3902C96.6705 90.5395 97.0971 90.7368 97.4278 90.9822L97.0598 91.6222C96.7185 91.3768 96.3291 91.1902 95.8918 91.0622C95.4545 90.9342 95.0065 90.8702 94.5478 90.8702C93.7691 90.8702 93.1825 91.0142 92.7878 91.3022C92.3931 91.5902 92.1958 91.9688 92.1958 92.4382C92.1958 92.8115 92.3078 93.1048 92.5318 93.3182C92.7558 93.5208 93.0278 93.6755 93.3478 93.7822C93.6785 93.8782 94.1371 93.9848 94.7238 94.1022C95.3745 94.2195 95.8971 94.3475 96.2918 94.4862C96.6971 94.6142 97.0385 94.8275 97.3158 95.1262C97.5931 95.4248 97.7318 95.8355 97.7318 96.3582C97.7318 97.0515 97.4438 97.6062 96.8678 98.0222C96.2918 98.4382 95.4811 98.6462 94.4358 98.6462Z" fill="#303030"/>
<path d="M102.78 90.1662C103.815 90.1662 104.61 90.4328 105.164 90.9662C105.719 91.4888 105.996 92.2622 105.996 93.2862V98.5822H105.228V97.0942C104.962 97.5848 104.572 97.9688 104.06 98.2462C103.548 98.5128 102.935 98.6462 102.22 98.6462C101.292 98.6462 100.556 98.4275 100.012 97.9902C99.4791 97.5528 99.2124 96.9768 99.2124 96.2622C99.2124 95.5688 99.4577 95.0088 99.9484 94.5822C100.45 94.1448 101.244 93.9262 102.332 93.9262H105.196V93.2542C105.196 92.4755 104.983 91.8835 104.556 91.4782C104.14 91.0728 103.527 90.8702 102.716 90.8702C102.162 90.8702 101.628 90.9662 101.116 91.1582C100.615 91.3502 100.188 91.6062 99.8364 91.9262L99.4364 91.3502C99.8524 90.9768 100.354 90.6888 100.94 90.4862C101.527 90.2728 102.14 90.1662 102.78 90.1662ZM102.332 97.9902C103.026 97.9902 103.612 97.8302 104.092 97.5102C104.583 97.1902 104.951 96.7262 105.196 96.1182V94.5502H102.348C101.527 94.5502 100.93 94.6995 100.556 94.9982C100.194 95.2968 100.012 95.7075 100.012 96.2302C100.012 96.7742 100.215 97.2062 100.62 97.5262C101.026 97.8355 101.596 97.9902 102.332 97.9902ZM104.412 88.8702L102.748 87.4782L101.084 88.8702H100.284L102.3 86.9822H103.196L105.212 88.8702H104.412Z" fill="#303030"/>
<path d="M113.373 90.1662C114.418 90.1662 115.245 90.4702 115.853 91.0782C116.461 91.6862 116.765 92.5608 116.765 93.7022V98.5822H115.965V93.7662C115.965 92.8275 115.725 92.1128 115.245 91.6222C114.775 91.1315 114.114 90.8862 113.261 90.8862C112.279 90.8862 111.506 91.1795 110.941 91.7662C110.375 92.3528 110.093 93.1422 110.093 94.1342V98.5822H109.293V90.2302H110.061V92.0382C110.349 91.4515 110.775 90.9928 111.341 90.6622C111.917 90.3315 112.594 90.1662 113.373 90.1662Z" fill="#303030"/>
<path d="M128.36 90.1662C129.138 90.1662 129.842 90.3475 130.472 90.7102C131.101 91.0622 131.592 91.5635 131.944 92.2142C132.306 92.8542 132.488 93.5848 132.488 94.4062C132.488 95.2275 132.306 95.9582 131.944 96.5982C131.592 97.2382 131.101 97.7395 130.472 98.1022C129.842 98.4648 129.138 98.6462 128.36 98.6462C127.613 98.6462 126.936 98.4702 126.328 98.1182C125.73 97.7555 125.266 97.2542 124.936 96.6142V98.5822H124.168V86.7102H124.968V92.1342C125.298 91.5155 125.762 91.0355 126.36 90.6942C126.957 90.3422 127.624 90.1662 128.36 90.1662ZM128.312 97.9262C128.952 97.9262 129.528 97.7768 130.04 97.4782C130.552 97.1795 130.952 96.7635 131.24 96.2302C131.538 95.6968 131.688 95.0888 131.688 94.4062C131.688 93.7235 131.538 93.1155 131.24 92.5822C130.952 92.0488 130.552 91.6328 130.04 91.3342C129.528 91.0355 128.952 90.8862 128.312 90.8862C127.672 90.8862 127.096 91.0355 126.584 91.3342C126.082 91.6328 125.682 92.0488 125.384 92.5822C125.096 93.1155 124.952 93.7235 124.952 94.4062C124.952 95.0888 125.096 95.6968 125.384 96.2302C125.682 96.7635 126.082 97.1795 126.584 97.4782C127.096 97.7768 127.672 97.9262 128.312 97.9262Z" fill="#303030"/>
<path d="M137.749 90.1662C138.784 90.1662 139.578 90.4328 140.133 90.9662C140.688 91.4888 140.965 92.2622 140.965 93.2862V98.5822H140.197V97.0942C139.93 97.5848 139.541 97.9688 139.029 98.2462C138.517 98.5128 137.904 98.6462 137.189 98.6462C136.261 98.6462 135.525 98.4275 134.981 97.9902C134.448 97.5528 134.181 96.9768 134.181 96.2622C134.181 95.5688 134.427 95.0088 134.917 94.5822C135.419 94.1448 136.213 93.9262 137.301 93.9262H140.165V93.2542C140.165 92.4755 139.952 91.8835 139.525 91.4782C139.109 91.0728 138.496 90.8702 137.685 90.8702C137.13 90.8702 136.597 90.9662 136.085 91.1582C135.584 91.3502 135.157 91.6062 134.805 91.9262L134.405 91.3502C134.821 90.9768 135.322 90.6888 135.909 90.4862C136.496 90.2728 137.109 90.1662 137.749 90.1662ZM137.301 97.9902C137.994 97.9902 138.581 97.8302 139.061 97.5102C139.552 97.1902 139.92 96.7262 140.165 96.1182V94.5502H137.317C136.496 94.5502 135.898 94.6995 135.525 94.9982C135.162 95.2968 134.981 95.7075 134.981 96.2302C134.981 96.7742 135.184 97.2062 135.589 97.5262C135.994 97.8355 136.565 97.9902 137.301 97.9902Z" fill="#303030"/>
<path d="M150.809 90.2302L146.521 99.7182C146.201 100.454 145.828 100.977 145.401 101.286C144.985 101.595 144.489 101.75 143.913 101.75C143.529 101.75 143.166 101.686 142.825 101.558C142.494 101.43 142.212 101.243 141.977 100.998L142.377 100.39C142.804 100.827 143.321 101.046 143.929 101.046C144.334 101.046 144.681 100.934 144.969 100.71C145.257 100.486 145.524 100.102 145.769 99.5582L146.217 98.5502L142.457 90.2302H143.305L146.649 97.7022L149.993 90.2302H150.809Z" fill="#303030"/>
<path d="M156.924 87.3822H157.74V97.8462H164.188V98.5822H156.924V87.3822Z" fill="#303030"/>
<path d="M169.15 98.6462C168.361 98.6462 167.646 98.4648 167.006 98.1022C166.377 97.7395 165.881 97.2382 165.518 96.5982C165.156 95.9475 164.974 95.2168 164.974 94.4062C164.974 93.5955 165.156 92.8702 165.518 92.2302C165.881 91.5795 166.377 91.0728 167.006 90.7102C167.646 90.3475 168.361 90.1662 169.15 90.1662C169.94 90.1662 170.649 90.3475 171.278 90.7102C171.918 91.0728 172.42 91.5795 172.782 92.2302C173.145 92.8702 173.326 93.5955 173.326 94.4062C173.326 95.2168 173.145 95.9475 172.782 96.5982C172.42 97.2382 171.918 97.7395 171.278 98.1022C170.649 98.4648 169.94 98.6462 169.15 98.6462ZM169.15 97.9262C169.79 97.9262 170.361 97.7768 170.862 97.4782C171.374 97.1795 171.774 96.7635 172.062 96.2302C172.361 95.6968 172.51 95.0888 172.51 94.4062C172.51 93.7235 172.361 93.1155 172.062 92.5822C171.774 92.0488 171.374 91.6328 170.862 91.3342C170.361 91.0355 169.79 90.8862 169.15 90.8862C168.51 90.8862 167.934 91.0355 167.422 91.3342C166.921 91.6328 166.521 92.0488 166.222 92.5822C165.934 93.1155 165.79 93.7235 165.79 94.4062C165.79 95.0888 165.934 95.6968 166.222 96.2302C166.521 96.7635 166.921 97.1795 167.422 97.4782C167.934 97.7768 168.51 97.9262 169.15 97.9262Z" fill="#303030"/>
<path d="M179.888 90.1662C180.934 90.1662 181.76 90.4702 182.368 91.0782C182.976 91.6862 183.28 92.5608 183.28 93.7022V98.5822H182.48V93.7662C182.48 92.8275 182.24 92.1128 181.76 91.6222C181.291 91.1315 180.629 90.8862 179.776 90.8862C178.795 90.8862 178.021 91.1795 177.456 91.7662C176.891 92.3528 176.608 93.1422 176.608 94.1342V98.5822H175.808V90.2302H176.576V92.0382C176.864 91.4515 177.291 90.9928 177.856 90.6622C178.432 90.3315 179.11 90.1662 179.888 90.1662Z" fill="#303030"/>
<path d="M194.109 90.2302V97.6862C194.109 99.0728 193.773 100.097 193.101 100.758C192.429 101.419 191.416 101.75 190.061 101.75C189.293 101.75 188.568 101.633 187.885 101.398C187.203 101.163 186.653 100.838 186.237 100.422L186.669 99.8142C187.085 100.198 187.587 100.497 188.173 100.71C188.76 100.923 189.384 101.03 190.045 101.03C191.155 101.03 191.976 100.763 192.509 100.23C193.043 99.7075 193.309 98.8915 193.309 97.7822V96.3742C192.968 96.9822 192.493 97.4515 191.885 97.7822C191.277 98.1128 190.595 98.2782 189.837 98.2782C189.059 98.2782 188.349 98.1075 187.709 97.7662C187.08 97.4142 186.584 96.9288 186.221 96.3102C185.859 95.6915 185.677 94.9928 185.677 94.2142C185.677 93.4355 185.859 92.7368 186.221 92.1182C186.584 91.4995 187.08 91.0195 187.709 90.6782C188.349 90.3368 189.059 90.1662 189.837 90.1662C190.605 90.1662 191.299 90.3368 191.917 90.6782C192.536 91.0195 193.011 91.4995 193.341 92.1182V90.2302H194.109ZM189.901 97.5582C190.552 97.5582 191.139 97.4195 191.661 97.1422C192.184 96.8542 192.589 96.4595 192.877 95.9582C193.176 95.4462 193.325 94.8648 193.325 94.2142C193.325 93.5635 193.176 92.9875 192.877 92.4862C192.589 91.9848 192.184 91.5955 191.661 91.3182C191.139 91.0302 190.552 90.8862 189.901 90.8862C189.251 90.8862 188.664 91.0302 188.141 91.3182C187.629 91.5955 187.224 91.9848 186.925 92.4862C186.637 92.9875 186.493 93.5635 186.493 94.2142C186.493 94.8648 186.637 95.4462 186.925 95.9582C187.224 96.4595 187.629 96.8542 188.141 97.1422C188.664 97.4195 189.251 97.5582 189.901 97.5582Z" fill="#303030"/>
<path d="M204.005 88.1182H199.973V87.3822H208.853V88.1182H204.821V98.5822H204.005V88.1182Z" fill="#303030"/>
<path d="M214.701 90.1662C215.746 90.1662 216.573 90.4702 217.181 91.0782C217.789 91.6862 218.093 92.5608 218.093 93.7022V98.5822H217.293V93.7662C217.293 92.8275 217.053 92.1128 216.573 91.6222C216.103 91.1315 215.442 90.8862 214.589 90.8862C213.607 90.8862 212.834 91.1795 212.269 91.7662C211.703 92.3528 211.421 93.1422 211.421 94.1342V98.5822H210.621V86.7102H211.421V91.9742C211.709 91.3982 212.135 90.9555 212.701 90.6462C213.266 90.3262 213.933 90.1662 214.701 90.1662Z" fill="#303030"/>
<path d="M224.202 90.1662C225.237 90.1662 226.032 90.4328 226.586 90.9662C227.141 91.4888 227.418 92.2622 227.418 93.2862V98.5822H226.65V97.0942C226.384 97.5848 225.994 97.9688 225.482 98.2462C224.97 98.5128 224.357 98.6462 223.642 98.6462C222.714 98.6462 221.978 98.4275 221.434 97.9902C220.901 97.5528 220.634 96.9768 220.634 96.2622C220.634 95.5688 220.88 95.0088 221.37 94.5822C221.872 94.1448 222.666 93.9262 223.754 93.9262H226.618V93.2542C226.618 92.4755 226.405 91.8835 225.978 91.4782C225.562 91.0728 224.949 90.8702 224.138 90.8702C223.584 90.8702 223.05 90.9662 222.538 91.1582C222.037 91.3502 221.61 91.6062 221.258 91.9262L220.858 91.3502C221.274 90.9768 221.776 90.6888 222.362 90.4862C222.949 90.2728 223.562 90.1662 224.202 90.1662ZM223.754 97.9902C224.448 97.9902 225.034 97.8302 225.514 97.5102C226.005 97.1902 226.373 96.7262 226.618 96.1182V94.5502H223.77C222.949 94.5502 222.352 94.6995 221.978 94.9982C221.616 95.2968 221.434 95.7075 221.434 96.2302C221.434 96.7742 221.637 97.2062 222.042 97.5262C222.448 97.8355 223.018 97.9902 223.754 97.9902Z" fill="#303030"/>
<path d="M234.794 90.1662C235.84 90.1662 236.666 90.4702 237.274 91.0782C237.882 91.6862 238.186 92.5608 238.186 93.7022V98.5822H237.386V93.7662C237.386 92.8275 237.146 92.1128 236.666 91.6222C236.197 91.1315 235.536 90.8862 234.682 90.8862C233.701 90.8862 232.928 91.1795 232.362 91.7662C231.797 92.3528 231.514 93.1422 231.514 94.1342V98.5822H230.714V90.2302H231.482V92.0382C231.77 91.4515 232.197 90.9928 232.762 90.6622C233.338 90.3315 234.016 90.1662 234.794 90.1662Z" fill="#303030"/>
<path d="M245.56 90.1662C246.605 90.1662 247.432 90.4702 248.04 91.0782C248.648 91.6862 248.952 92.5608 248.952 93.7022V98.5822H248.152V93.7662C248.152 92.8275 247.912 92.1128 247.432 91.6222C246.963 91.1315 246.301 90.8862 245.448 90.8862C244.467 90.8862 243.693 91.1795 243.128 91.7662C242.563 92.3528 242.28 93.1422 242.28 94.1342V98.5822H241.48V86.7102H242.28V91.9742C242.568 91.3982 242.995 90.9555 243.56 90.6462C244.125 90.3262 244.792 90.1662 245.56 90.1662Z" fill="#303030"/>
<path d="M252.15 97.2862C252.342 97.2862 252.502 97.3555 252.63 97.4942C252.758 97.6222 252.822 97.7768 252.822 97.9582C252.822 98.0648 252.806 98.1768 252.774 98.2942C252.752 98.4115 252.72 98.5448 252.678 98.6942L252.054 100.87H251.478L252.006 98.6142C251.846 98.5715 251.718 98.4968 251.622 98.3902C251.526 98.2728 251.478 98.1288 251.478 97.9582C251.478 97.7662 251.542 97.6062 251.67 97.4782C251.798 97.3502 251.958 97.2862 252.15 97.2862Z" fill="#303030"/>
<path d="M259.862 87.3822H264.294C265.457 87.3822 266.486 87.6222 267.382 88.1022C268.289 88.5822 268.993 89.2488 269.494 90.1022C269.996 90.9448 270.246 91.9048 270.246 92.9822C270.246 94.0595 269.996 95.0248 269.494 95.8782C268.993 96.7208 268.289 97.3822 267.382 97.8622C266.486 98.3422 265.457 98.5822 264.294 98.5822H259.862V87.3822ZM264.23 97.8462C265.265 97.8462 266.177 97.6435 266.966 97.2382C267.756 96.8222 268.363 96.2462 268.79 95.5102C269.217 94.7742 269.43 93.9315 269.43 92.9822C269.43 92.0328 269.217 91.1902 268.79 90.4542C268.363 89.7182 267.756 89.1475 266.966 88.7422C266.177 88.3262 265.265 88.1182 264.23 88.1182H260.678V97.8462H264.23ZM258.118 92.5502H264.134V93.2382H258.118V92.5502Z" fill="#303030"/>
<path d="M279.88 94.5982H272.696C272.717 95.2488 272.882 95.8302 273.192 96.3422C273.501 96.8435 273.917 97.2328 274.44 97.5102C274.973 97.7875 275.57 97.9262 276.232 97.9262C276.776 97.9262 277.277 97.8302 277.736 97.6382C278.205 97.4355 278.594 97.1422 278.904 96.7582L279.368 97.2862C279.005 97.7235 278.546 98.0595 277.992 98.2942C277.448 98.5288 276.856 98.6462 276.216 98.6462C275.384 98.6462 274.642 98.4648 273.992 98.1022C273.341 97.7395 272.829 97.2382 272.456 96.5982C272.093 95.9582 271.912 95.2275 271.912 94.4062C271.912 93.5955 272.082 92.8702 272.424 92.2302C272.776 91.5795 273.256 91.0728 273.864 90.7102C274.472 90.3475 275.154 90.1662 275.912 90.1662C276.669 90.1662 277.346 90.3475 277.944 90.7102C278.552 91.0622 279.026 91.5582 279.368 92.1982C279.72 92.8382 279.896 93.5635 279.896 94.3742L279.88 94.5982ZM275.912 90.8702C275.325 90.8702 274.797 91.0035 274.328 91.2702C273.858 91.5262 273.48 91.8942 273.192 92.3742C272.914 92.8435 272.754 93.3768 272.712 93.9742H279.112C279.08 93.3768 278.92 92.8435 278.632 92.3742C278.344 91.9048 277.965 91.5368 277.496 91.2702C277.026 91.0035 276.498 90.8702 275.912 90.8702ZM277.528 88.8702L275.912 87.8942L274.296 88.8702H273.448L275.48 87.4622H276.344L278.376 88.8702H277.528ZM279.24 85.9102H280.312L278.056 87.5902H277.272L279.24 85.9102Z" fill="#303030"/>
<path d="M286.451 90.1662C287.496 90.1662 288.323 90.4702 288.931 91.0782C289.539 91.6862 289.843 92.5608 289.843 93.7022V98.5822H289.043V93.7662C289.043 92.8275 288.803 92.1128 288.323 91.6222C287.853 91.1315 287.192 90.8862 286.339 90.8862C285.357 90.8862 284.584 91.1795 284.019 91.7662C283.453 92.3528 283.171 93.1422 283.171 94.1342V98.5822H282.371V90.2302H283.139V92.0382C283.427 91.4515 283.853 90.9928 284.419 90.6622C284.995 90.3315 285.672 90.1662 286.451 90.1662Z" fill="#303030"/>
<path d="M304.158 92.8062C304.958 92.9555 305.566 93.2702 305.982 93.7502C306.408 94.2302 306.622 94.8542 306.622 95.6222C306.622 96.5715 306.275 97.3022 305.582 97.8142C304.888 98.3262 303.859 98.5822 302.494 98.5822H297.502V87.3822H302.174C303.39 87.3822 304.334 87.6328 305.006 88.1342C305.688 88.6248 306.03 89.3288 306.03 90.2462C306.03 90.8862 305.859 91.4248 305.518 91.8622C305.187 92.2995 304.734 92.6142 304.158 92.8062ZM298.318 88.0862V92.5502H302.142C303.123 92.5502 303.875 92.3635 304.398 91.9902C304.931 91.6062 305.198 91.0462 305.198 90.3102C305.198 89.5848 304.931 89.0355 304.398 88.6622C303.875 88.2782 303.123 88.0862 302.142 88.0862H298.318ZM302.494 97.8782C303.582 97.8782 304.403 97.6915 304.958 97.3182C305.523 96.9342 305.806 96.3475 305.806 95.5582C305.806 94.7688 305.523 94.1875 304.958 93.8142C304.403 93.4408 303.582 93.2542 302.494 93.2542H298.318V97.8782H302.494Z" fill="#303030"/>
<path d="M312.093 90.1662C313.128 90.1662 313.922 90.4328 314.477 90.9662C315.032 91.4888 315.309 92.2622 315.309 93.2862V98.5822H314.541V97.0942C314.274 97.5848 313.885 97.9688 313.373 98.2462C312.861 98.5128 312.248 98.6462 311.533 98.6462C310.605 98.6462 309.869 98.4275 309.325 97.9902C308.792 97.5528 308.525 96.9768 308.525 96.2622C308.525 95.5688 308.77 95.0088 309.261 94.5822C309.762 94.1448 310.557 93.9262 311.645 93.9262H314.509V93.2542C314.509 92.4755 314.296 91.8835 313.869 91.4782C313.453 91.0728 312.84 90.8702 312.029 90.8702C311.474 90.8702 310.941 90.9662 310.429 91.1582C309.928 91.3502 309.501 91.6062 309.149 91.9262L308.749 91.3502C309.165 90.9768 309.666 90.6888 310.253 90.4862C310.84 90.2728 311.453 90.1662 312.093 90.1662ZM311.645 97.9902C312.338 97.9902 312.925 97.8302 313.405 97.5102C313.896 97.1902 314.264 96.7262 314.509 96.1182V94.5502H311.661C310.84 94.5502 310.242 94.6995 309.869 94.9982C309.506 95.2968 309.325 95.7075 309.325 96.2302C309.325 96.7742 309.528 97.2062 309.933 97.5262C310.338 97.8355 310.909 97.9902 311.645 97.9902ZM309.597 86.9822H310.749L312.973 88.8702H312.109L309.597 86.9822Z" fill="#303030"/>
<path d="M330.746 98.5822L328.074 94.8382C327.68 94.8915 327.317 94.9182 326.986 94.9182H323.786V98.5822H322.97V87.3822H326.986C328.394 87.3822 329.498 87.7182 330.298 88.3902C331.098 89.0515 331.498 89.9742 331.498 91.1582C331.498 92.0435 331.269 92.7902 330.81 93.3982C330.362 93.9955 329.717 94.4168 328.874 94.6622L331.674 98.5822H330.746ZM326.986 94.1982C328.181 94.1982 329.093 93.9368 329.722 93.4142C330.352 92.8808 330.666 92.1288 330.666 91.1582C330.666 90.1875 330.352 89.4408 329.722 88.9182C329.093 88.3848 328.181 88.1182 326.986 88.1182H323.786V94.1982H326.986Z" fill="#303030"/>
<path d="M334.23 90.2302H335.03V98.5822H334.23V90.2302ZM334.63 88.1982C334.449 88.1982 334.294 88.1395 334.166 88.0222C334.038 87.8942 333.974 87.7395 333.974 87.5582C333.974 87.3768 334.038 87.2222 334.166 87.0942C334.294 86.9662 334.449 86.9022 334.63 86.9022C334.811 86.9022 334.966 86.9662 335.094 87.0942C335.222 87.2115 335.286 87.3608 335.286 87.5422C335.286 87.7235 335.222 87.8782 335.094 88.0062C334.966 88.1342 334.811 88.1982 334.63 88.1982ZM334.63 101.526C334.47 101.526 334.331 101.473 334.214 101.366C334.107 101.259 334.054 101.121 334.054 100.95C334.054 100.79 334.107 100.651 334.214 100.534C334.331 100.427 334.47 100.374 334.63 100.374C334.79 100.374 334.923 100.427 335.03 100.534C335.147 100.651 335.206 100.79 335.206 100.95C335.206 101.121 335.147 101.259 335.03 101.366C334.923 101.473 334.79 101.526 334.63 101.526Z" fill="#303030"/>
<path d="M341.218 90.1662C342.253 90.1662 343.047 90.4328 343.602 90.9662C344.157 91.4888 344.434 92.2622 344.434 93.2862V98.5822H343.666V97.0942C343.399 97.5848 343.01 97.9688 342.498 98.2462C341.986 98.5128 341.373 98.6462 340.658 98.6462C339.73 98.6462 338.994 98.4275 338.45 97.9902C337.917 97.5528 337.65 96.9768 337.65 96.2622C337.65 95.5688 337.895 95.0088 338.386 94.5822C338.887 94.1448 339.682 93.9262 340.77 93.9262H343.634V93.2542C343.634 92.4755 343.421 91.8835 342.994 91.4782C342.578 91.0728 341.965 90.8702 341.154 90.8702C340.599 90.8702 340.066 90.9662 339.554 91.1582C339.053 91.3502 338.626 91.6062 338.274 91.9262L337.874 91.3502C338.29 90.9768 338.791 90.6888 339.378 90.4862C339.965 90.2728 340.578 90.1662 341.218 90.1662ZM340.77 97.9902C341.463 97.9902 342.05 97.8302 342.53 97.5102C343.021 97.1902 343.389 96.7262 343.634 96.1182V94.5502H340.786C339.965 94.5502 339.367 94.6995 338.994 94.9982C338.631 95.2968 338.45 95.7075 338.45 96.2302C338.45 96.7742 338.653 97.2062 339.058 97.5262C339.463 97.8355 340.034 97.9902 340.77 97.9902Z" fill="#303030"/>
<path d="M351.135 93.9262H355.247V94.6462H351.135V93.9262Z" fill="#303030"/>
<path d="M371.243 87.3822L366.251 98.5822H365.435L360.443 87.3822H361.339L365.867 97.5262L370.395 87.3822H371.243Z" fill="#303030"/>
<path d="M379.839 90.2302V98.5822H379.071V96.7902C378.794 97.3768 378.383 97.8355 377.839 98.1662C377.295 98.4862 376.655 98.6462 375.919 98.6462C374.831 98.6462 373.978 98.3422 373.359 97.7342C372.74 97.1262 372.431 96.2515 372.431 95.1102V90.2302H373.231V95.0462C373.231 95.9848 373.471 96.6995 373.951 97.1902C374.431 97.6808 375.108 97.9262 375.983 97.9262C376.922 97.9262 377.663 97.6328 378.207 97.0462C378.762 96.4595 379.039 95.6702 379.039 94.6782V90.2302H379.839ZM377.199 88.7422C376.964 88.7422 376.751 88.6888 376.559 88.5822C376.378 88.4648 376.186 88.3102 375.983 88.1182C375.802 87.9582 375.647 87.8408 375.519 87.7662C375.402 87.6808 375.274 87.6382 375.135 87.6382C374.89 87.6382 374.692 87.7342 374.543 87.9262C374.394 88.1075 374.308 88.3582 374.287 88.6782H373.759C373.78 88.1982 373.908 87.8142 374.143 87.5262C374.378 87.2275 374.692 87.0782 375.087 87.0782C375.322 87.0782 375.53 87.1368 375.711 87.2542C375.903 87.3608 376.1 87.5102 376.303 87.7022C376.484 87.8622 376.634 87.9848 376.751 88.0702C376.879 88.1448 377.012 88.1822 377.151 88.1822C377.396 88.1822 377.594 88.0915 377.743 87.9102C377.892 87.7288 377.978 87.4835 377.999 87.1742H378.527C378.506 87.6435 378.372 88.0222 378.127 88.3102C377.892 88.5982 377.583 88.7422 377.199 88.7422Z" fill="#303030"/>
<path d="M387.31 90.1662C388.355 90.1662 389.182 90.4702 389.79 91.0782C390.398 91.6862 390.702 92.5608 390.702 93.7022V98.5822H389.902V93.7662C389.902 92.8275 389.662 92.1128 389.182 91.6222C388.713 91.1315 388.051 90.8862 387.198 90.8862C386.217 90.8862 385.443 91.1795 384.878 91.7662C384.313 92.3528 384.03 93.1422 384.03 94.1342V98.5822H383.23V90.2302H383.998V92.0382C384.286 91.4515 384.713 90.9928 385.278 90.6622C385.854 90.3315 386.531 90.1662 387.31 90.1662Z" fill="#303030"/>
<path d="M401.531 90.2302V97.6862C401.531 99.0728 401.195 100.097 400.523 100.758C399.851 101.419 398.838 101.75 397.483 101.75C396.715 101.75 395.99 101.633 395.307 101.398C394.625 101.163 394.075 100.838 393.659 100.422L394.091 99.8142C394.507 100.198 395.009 100.497 395.595 100.71C396.182 100.923 396.806 101.03 397.467 101.03C398.577 101.03 399.398 100.763 399.931 100.23C400.465 99.7075 400.731 98.8915 400.731 97.7822V96.3742C400.39 96.9822 399.915 97.4515 399.307 97.7822C398.699 98.1128 398.017 98.2782 397.259 98.2782C396.481 98.2782 395.771 98.1075 395.131 97.7662C394.502 97.4142 394.006 96.9288 393.643 96.3102C393.281 95.6915 393.099 94.9928 393.099 94.2142C393.099 93.4355 393.281 92.7368 393.643 92.1182C394.006 91.4995 394.502 91.0195 395.131 90.6782C395.771 90.3368 396.481 90.1662 397.259 90.1662C398.027 90.1662 398.721 90.3368 399.339 90.6782C399.958 91.0195 400.433 91.4995 400.763 92.1182V90.2302H401.531ZM397.323 97.5582C397.974 97.5582 398.561 97.4195 399.083 97.1422C399.606 96.8542 400.011 96.4595 400.299 95.9582C400.598 95.4462 400.747 94.8648 400.747 94.2142C400.747 93.5635 400.598 92.9875 400.299 92.4862C400.011 91.9848 399.606 91.5955 399.083 91.3182C398.561 91.0302 397.974 90.8862 397.323 90.8862C396.673 90.8862 396.086 91.0302 395.563 91.3182C395.051 91.5955 394.646 91.9848 394.347 92.4862C394.059 92.9875 393.915 93.5635 393.915 94.2142C393.915 94.8648 394.059 95.4462 394.347 95.9582C394.646 96.4595 395.051 96.8542 395.563 97.1422C396.086 97.4195 396.673 97.5582 397.323 97.5582Z" fill="#303030"/>
<path d="M411.427 88.1182H407.395V87.3822H416.275V88.1182H412.243V98.5822H411.427V88.1182Z" fill="#303030"/>
<path d="M420.39 90.1662C421.424 90.1662 422.219 90.4328 422.774 90.9662C423.328 91.4888 423.606 92.2622 423.606 93.2862V98.5822H422.838V97.0942C422.571 97.5848 422.182 97.9688 421.67 98.2462C421.158 98.5128 420.544 98.6462 419.83 98.6462C418.902 98.6462 418.166 98.4275 417.622 97.9902C417.088 97.5528 416.822 96.9768 416.822 96.2622C416.822 95.5688 417.067 95.0088 417.558 94.5822C418.059 94.1448 418.854 93.9262 419.942 93.9262H422.806V93.2542C422.806 92.4755 422.592 91.8835 422.166 91.4782C421.75 91.0728 421.136 90.8702 420.326 90.8702C419.771 90.8702 419.238 90.9662 418.726 91.1582C418.224 91.3502 417.798 91.6062 417.446 91.9262L417.046 91.3502C417.462 90.9768 417.963 90.6888 418.55 90.4862C419.136 90.2728 419.75 90.1662 420.39 90.1662ZM419.942 97.9902C420.635 97.9902 421.222 97.8302 421.702 97.5102C422.192 97.1902 422.56 96.7262 422.806 96.1182V94.5502H419.958C419.136 94.5502 418.539 94.6995 418.166 94.9982C417.803 95.2968 417.622 95.7075 417.622 96.2302C417.622 96.7742 417.824 97.2062 418.23 97.5262C418.635 97.8355 419.206 97.9902 419.942 97.9902ZM417.894 86.9822H419.046L421.27 88.8702H420.406L417.894 86.9822Z" fill="#303030"/>
<path d="M434.214 90.2302V98.5822H433.446V96.7902C433.169 97.3768 432.758 97.8355 432.214 98.1662C431.67 98.4862 431.03 98.6462 430.294 98.6462C429.206 98.6462 428.353 98.3422 427.734 97.7342C427.115 97.1262 426.806 96.2515 426.806 95.1102V90.2302H427.606V95.0462C427.606 95.9848 427.846 96.6995 428.326 97.1902C428.806 97.6808 429.483 97.9262 430.358 97.9262C431.297 97.9262 432.038 97.6328 432.582 97.0462C433.137 96.4595 433.414 95.6702 433.414 94.6782V90.2302H434.214Z" fill="#303030"/>
<path d="M54.9403 28.7999H59.3723C60.535 28.7999 61.5643 29.0399 62.4603 29.5199C63.367 29.9999 64.071 30.6665 64.5723 31.5199C65.0736 32.3625 65.3243 33.3225 65.3243 34.3999C65.3243 35.4772 65.0736 36.4425 64.5723 37.2959C64.071 38.1385 63.367 38.7999 62.4603 39.2799C61.5643 39.7599 60.535 39.9999 59.3723 39.9999H54.9403V28.7999ZM59.3083 39.2639C60.343 39.2639 61.255 39.0612 62.0443 38.6559C62.8336 38.2399 63.4416 37.6639 63.8683 36.9279C64.295 36.1919 64.5083 35.3492 64.5083 34.3999C64.5083 33.4505 64.295 32.6079 63.8683 31.8719C63.4416 31.1359 62.8336 30.5652 62.0443 30.1599C61.255 29.7439 60.343 29.5359 59.3083 29.5359H55.7563V39.2639H59.3083ZM53.1963 33.9679H59.2123V34.6559H53.1963V33.9679Z" fill="#303030"/>
<path d="M74.9579 36.0159H67.7739C67.7952 36.6665 67.9606 37.2479 68.2699 37.7599C68.5792 38.2612 68.9952 38.6505 69.5179 38.9279C70.0512 39.2052 70.6486 39.3439 71.3099 39.3439C71.8539 39.3439 72.3552 39.2479 72.8139 39.0559C73.2832 38.8532 73.6726 38.5599 73.9819 38.1759L74.4459 38.7039C74.0832 39.1412 73.6246 39.4772 73.0699 39.7119C72.5259 39.9465 71.9339 40.0639 71.2939 40.0639C70.4619 40.0639 69.7206 39.8825 69.0699 39.5199C68.4192 39.1572 67.9072 38.6559 67.5339 38.0159C67.1712 37.3759 66.9899 36.6452 66.9899 35.8239C66.9899 35.0132 67.1606 34.2879 67.5019 33.6479C67.8539 32.9972 68.3339 32.4905 68.9419 32.1279C69.5499 31.7652 70.2326 31.5839 70.9899 31.5839C71.7472 31.5839 72.4246 31.7652 73.0219 32.1279C73.6299 32.4799 74.1046 32.9759 74.4459 33.6159C74.7979 34.2559 74.9739 34.9812 74.9739 35.7919L74.9579 36.0159ZM70.9899 32.2879C70.4032 32.2879 69.8752 32.4212 69.4059 32.6879C68.9366 32.9439 68.5579 33.3119 68.2699 33.7919C67.9926 34.2612 67.8326 34.7945 67.7899 35.3919H74.1899C74.1579 34.7945 73.9979 34.2612 73.7099 33.7919C73.4219 33.3225 73.0432 32.9545 72.5739 32.6879C72.1046 32.4212 71.5766 32.2879 70.9899 32.2879ZM72.6059 30.2879L70.9899 29.3119L69.3739 30.2879H68.5259L70.5579 28.8799H71.4219L73.4539 30.2879H72.6059ZM74.3179 27.3279H75.3899L73.1339 29.0079H72.3499L74.3179 27.3279Z" fill="#303030"/>
<path d="M81.5288 31.5839C82.5741 31.5839 83.4008 31.8879 84.0088 32.4959C84.6168 33.1039 84.9208 33.9785 84.9208 35.1199V39.9999H84.1208V35.1839C84.1208 34.2452 83.8808 33.5305 83.4008 33.0399C82.9315 32.5492 82.2701 32.3039 81.4168 32.3039C80.4355 32.3039 79.6621 32.5972 79.0968 33.1839C78.5315 33.7705 78.2488 34.5599 78.2488 35.5519V39.9999H77.4488V31.6479H78.2168V33.4559C78.5048 32.8692 78.9315 32.4105 79.4968 32.0799C80.0728 31.7492 80.7501 31.5839 81.5288 31.5839Z" fill="#303030"/>
<path d="M94.4358 40.0639C93.7638 40.0639 93.1238 39.9625 92.5158 39.7599C91.9078 39.5572 91.4331 39.3012 91.0918 38.9919L91.4598 38.3519C91.8011 38.6399 92.2385 38.8799 92.7718 39.0719C93.3158 39.2639 93.8811 39.3599 94.4678 39.3599C95.3105 39.3599 95.9291 39.2212 96.3238 38.9439C96.7291 38.6665 96.9318 38.2825 96.9318 37.7919C96.9318 37.4399 96.8198 37.1625 96.5958 36.9599C96.3825 36.7572 96.1158 36.6079 95.7958 36.5119C95.4758 36.4159 95.0331 36.3145 94.4678 36.2079C93.8065 36.0905 93.2731 35.9625 92.8678 35.8239C92.4625 35.6852 92.1158 35.4612 91.8278 35.1519C91.5398 34.8425 91.3958 34.4159 91.3958 33.8719C91.3958 33.2105 91.6678 32.6665 92.2118 32.2399C92.7665 31.8025 93.5505 31.5839 94.5638 31.5839C95.0971 31.5839 95.6251 31.6585 96.1478 31.8079C96.6705 31.9572 97.0971 32.1545 97.4278 32.3999L97.0598 33.0399C96.7185 32.7945 96.3291 32.6079 95.8918 32.4799C95.4545 32.3519 95.0065 32.2879 94.5478 32.2879C93.7691 32.2879 93.1825 32.4319 92.7878 32.7199C92.3931 33.0079 92.1958 33.3865 92.1958 33.8559C92.1958 34.2292 92.3078 34.5225 92.5318 34.7359C92.7558 34.9385 93.0278 35.0932 93.3478 35.1999C93.6785 35.2959 94.1371 35.4025 94.7238 35.5199C95.3745 35.6372 95.8971 35.7652 96.2918 35.9039C96.6971 36.0319 97.0385 36.2452 97.3158 36.5439C97.5931 36.8425 97.7318 37.2532 97.7318 37.7759C97.7318 38.4692 97.4438 39.0239 96.8678 39.4399C96.2918 39.8559 95.4811 40.0639 94.4358 40.0639Z" fill="#303030"/>
<path d="M102.78 31.5839C103.815 31.5839 104.61 31.8505 105.164 32.3839C105.719 32.9065 105.996 33.6799 105.996 34.7039V39.9999H105.228V38.5119C104.962 39.0025 104.572 39.3865 104.06 39.6639C103.548 39.9305 102.935 40.0639 102.22 40.0639C101.292 40.0639 100.556 39.8452 100.012 39.4079C99.4791 38.9705 99.2124 38.3945 99.2124 37.6799C99.2124 36.9865 99.4577 36.4265 99.9484 35.9999C100.45 35.5625 101.244 35.3439 102.332 35.3439H105.196V34.6719C105.196 33.8932 104.983 33.3012 104.556 32.8959C104.14 32.4905 103.527 32.2879 102.716 32.2879C102.162 32.2879 101.628 32.3839 101.116 32.5759C100.615 32.7679 100.188 33.0239 99.8364 33.3439L99.4364 32.7679C99.8524 32.3945 100.354 32.1065 100.94 31.9039C101.527 31.6905 102.14 31.5839 102.78 31.5839ZM102.332 39.4079C103.026 39.4079 103.612 39.2479 104.092 38.9279C104.583 38.6079 104.951 38.1439 105.196 37.5359V35.9679H102.348C101.527 35.9679 100.93 36.1172 100.556 36.4159C100.194 36.7145 100.012 37.1252 100.012 37.6479C100.012 38.1919 100.215 38.6239 100.62 38.9439C101.026 39.2532 101.596 39.4079 102.332 39.4079ZM104.412 30.2879L102.748 28.8959L101.084 30.2879H100.284L102.3 28.3999H103.196L105.212 30.2879H104.412Z" fill="#303030"/>
<path d="M113.373 31.5839C114.418 31.5839 115.245 31.8879 115.853 32.4959C116.461 33.1039 116.765 33.9785 116.765 35.1199V39.9999H115.965V35.1839C115.965 34.2452 115.725 33.5305 115.245 33.0399C114.775 32.5492 114.114 32.3039 113.261 32.3039C112.279 32.3039 111.506 32.5972 110.941 33.1839C110.375 33.7705 110.093 34.5599 110.093 35.5519V39.9999H109.293V31.6479H110.061V33.4559C110.349 32.8692 110.775 32.4105 111.341 32.0799C111.917 31.7492 112.594 31.5839 113.373 31.5839Z" fill="#303030"/>
<path d="M128.36 31.5839C129.138 31.5839 129.842 31.7652 130.472 32.1279C131.101 32.4799 131.592 32.9812 131.944 33.6319C132.306 34.2719 132.488 35.0025 132.488 35.8239C132.488 36.6452 132.306 37.3759 131.944 38.0159C131.592 38.6559 131.101 39.1572 130.472 39.5199C129.842 39.8825 129.138 40.0639 128.36 40.0639C127.613 40.0639 126.936 39.8879 126.328 39.5359C125.73 39.1732 125.266 38.6719 124.936 38.0319V39.9999H124.168V28.1279H124.968V33.5519C125.298 32.9332 125.762 32.4532 126.36 32.1119C126.957 31.7599 127.624 31.5839 128.36 31.5839ZM128.312 39.3439C128.952 39.3439 129.528 39.1945 130.04 38.8959C130.552 38.5972 130.952 38.1812 131.24 37.6479C131.538 37.1145 131.688 36.5065 131.688 35.8239C131.688 35.1412 131.538 34.5332 131.24 33.9999C130.952 33.4665 130.552 33.0505 130.04 32.7519C129.528 32.4532 128.952 32.3039 128.312 32.3039C127.672 32.3039 127.096 32.4532 126.584 32.7519C126.082 33.0505 125.682 33.4665 125.384 33.9999C125.096 34.5332 124.952 35.1412 124.952 35.8239C124.952 36.5065 125.096 37.1145 125.384 37.6479C125.682 38.1812 126.082 38.5972 126.584 38.8959C127.096 39.1945 127.672 39.3439 128.312 39.3439Z" fill="#303030"/>
<path d="M137.749 31.5839C138.784 31.5839 139.578 31.8505 140.133 32.3839C140.688 32.9065 140.965 33.6799 140.965 34.7039V39.9999H140.197V38.5119C139.93 39.0025 139.541 39.3865 139.029 39.6639C138.517 39.9305 137.904 40.0639 137.189 40.0639C136.261 40.0639 135.525 39.8452 134.981 39.4079C134.448 38.9705 134.181 38.3945 134.181 37.6799C134.181 36.9865 134.427 36.4265 134.917 35.9999C135.419 35.5625 136.213 35.3439 137.301 35.3439H140.165V34.6719C140.165 33.8932 139.952 33.3012 139.525 32.8959C139.109 32.4905 138.496 32.2879 137.685 32.2879C137.13 32.2879 136.597 32.3839 136.085 32.5759C135.584 32.7679 135.157 33.0239 134.805 33.3439L134.405 32.7679C134.821 32.3945 135.322 32.1065 135.909 31.9039C136.496 31.6905 137.109 31.5839 137.749 31.5839ZM137.301 39.4079C137.994 39.4079 138.581 39.2479 139.061 38.9279C139.552 38.6079 139.92 38.1439 140.165 37.5359V35.9679H137.317C136.496 35.9679 135.898 36.1172 135.525 36.4159C135.162 36.7145 134.981 37.1252 134.981 37.6479C134.981 38.1919 135.184 38.6239 135.589 38.9439C135.994 39.2532 136.565 39.4079 137.301 39.4079Z" fill="#303030"/>
<path d="M150.809 31.6479L146.521 41.1359C146.201 41.8719 145.828 42.3945 145.401 42.7039C144.985 43.0132 144.489 43.1679 143.913 43.1679C143.529 43.1679 143.166 43.1039 142.825 42.9759C142.494 42.8479 142.212 42.6612 141.977 42.4159L142.377 41.8079C142.804 42.2452 143.321 42.4639 143.929 42.4639C144.334 42.4639 144.681 42.3519 144.969 42.1279C145.257 41.9039 145.524 41.5199 145.769 40.9759L146.217 39.9679L142.457 31.6479H143.305L146.649 39.1199L149.993 31.6479H150.809Z" fill="#303030"/>
<path d="M160.94 28.7999C162.348 28.7999 163.452 29.1359 164.252 29.8079C165.052 30.4692 165.452 31.3919 165.452 32.5759C165.452 33.7492 165.052 34.6719 164.252 35.3439C163.452 36.0052 162.348 36.3359 160.94 36.3359H157.74V39.9999H156.924V28.7999H160.94ZM160.94 35.5999C162.134 35.5999 163.046 35.3385 163.676 34.8159C164.305 34.2932 164.62 33.5465 164.62 32.5759C164.62 31.6052 164.305 30.8585 163.676 30.3359C163.046 29.8025 162.134 29.5359 160.94 29.5359H157.74V35.5999H160.94Z" fill="#303030"/>
<path d="M172.185 31.5839C173.23 31.5839 174.057 31.8879 174.665 32.4959C175.273 33.1039 175.577 33.9785 175.577 35.1199V39.9999H174.777V35.1839C174.777 34.2452 174.537 33.5305 174.057 33.0399C173.588 32.5492 172.926 32.3039 172.073 32.3039C171.092 32.3039 170.318 32.5972 169.753 33.1839C169.188 33.7705 168.905 34.5599 168.905 35.5519V39.9999H168.105V28.1279H168.905V33.3919C169.193 32.8159 169.62 32.3732 170.185 32.0639C170.75 31.7439 171.417 31.5839 172.185 31.5839Z" fill="#303030"/>
<path d="M181.687 31.5839C182.721 31.5839 183.516 31.8505 184.071 32.3839C184.625 32.9065 184.903 33.6799 184.903 34.7039V39.9999H184.135V38.5119C183.868 39.0025 183.479 39.3865 182.967 39.6639C182.455 39.9305 181.841 40.0639 181.127 40.0639C180.199 40.0639 179.463 39.8452 178.919 39.4079C178.385 38.9705 178.119 38.3945 178.119 37.6799C178.119 36.9865 178.364 36.4265 178.855 35.9999C179.356 35.5625 180.151 35.3439 181.239 35.3439H184.103V34.6719C184.103 33.8932 183.889 33.3012 183.463 32.8959C183.047 32.4905 182.433 32.2879 181.623 32.2879C181.068 32.2879 180.535 32.3839 180.023 32.5759C179.521 32.7679 179.095 33.0239 178.743 33.3439L178.343 32.7679C178.759 32.3945 179.26 32.1065 179.847 31.9039C180.433 31.6905 181.047 31.5839 181.687 31.5839ZM181.239 39.4079C181.932 39.4079 182.519 39.2479 182.999 38.9279C183.489 38.6079 183.857 38.1439 184.103 37.5359V35.9679H181.255C180.433 35.9679 179.836 36.1172 179.463 36.4159C179.1 36.7145 178.919 37.1252 178.919 37.6479C178.919 38.1919 179.121 38.6239 179.527 38.9439C179.932 39.2532 180.503 39.4079 181.239 39.4079Z" fill="#303030"/>
<path d="M192.279 31.5839C193.324 31.5839 194.151 31.8879 194.759 32.4959C195.367 33.1039 195.671 33.9785 195.671 35.1199V39.9999H194.871V35.1839C194.871 34.2452 194.631 33.5305 194.151 33.0399C193.681 32.5492 193.02 32.3039 192.167 32.3039C191.185 32.3039 190.412 32.5972 189.847 33.1839C189.281 33.7705 188.999 34.5599 188.999 35.5519V39.9999H188.199V31.6479H188.967V33.4559C189.255 32.8692 189.681 32.4105 190.247 32.0799C190.823 31.7492 191.5 31.5839 192.279 31.5839Z" fill="#303030"/>
<path d="M205.474 29.5359H201.442V28.7999H210.322V29.5359H206.29V39.9999H205.474V29.5359Z" fill="#303030"/>
<path d="M216.169 31.5839C217.215 31.5839 218.041 31.8879 218.649 32.4959C219.257 33.1039 219.561 33.9785 219.561 35.1199V39.9999H218.761V35.1839C218.761 34.2452 218.521 33.5305 218.041 33.0399C217.572 32.5492 216.911 32.3039 216.057 32.3039C215.076 32.3039 214.303 32.5972 213.737 33.1839C213.172 33.7705 212.889 34.5599 212.889 35.5519V39.9999H212.089V28.1279H212.889V33.3919C213.177 32.8159 213.604 32.3732 214.169 32.0639C214.735 31.7439 215.401 31.5839 216.169 31.5839Z" fill="#303030"/>
<path d="M222.855 31.6479H223.655V39.9999H222.855V31.6479ZM223.255 29.6159C223.074 29.6159 222.919 29.5572 222.791 29.4399C222.663 29.3119 222.599 29.1572 222.599 28.9759C222.599 28.7945 222.663 28.6399 222.791 28.5119C222.919 28.3839 223.074 28.3199 223.255 28.3199C223.436 28.3199 223.591 28.3839 223.719 28.5119C223.847 28.6292 223.911 28.7785 223.911 28.9599C223.911 29.1412 223.847 29.2959 223.719 29.4239C223.591 29.5519 223.436 29.6159 223.255 29.6159Z" fill="#303030"/>
<path d="M234.083 36.0159H226.899C226.92 36.6665 227.086 37.2479 227.395 37.7599C227.704 38.2612 228.12 38.6505 228.643 38.9279C229.176 39.2052 229.774 39.3439 230.435 39.3439C230.979 39.3439 231.48 39.2479 231.939 39.0559C232.408 38.8532 232.798 38.5599 233.107 38.1759L233.571 38.7039C233.208 39.1412 232.75 39.4772 232.195 39.7119C231.651 39.9465 231.059 40.0639 230.419 40.0639C229.587 40.0639 228.846 39.8825 228.195 39.5199C227.544 39.1572 227.032 38.6559 226.659 38.0159C226.296 37.3759 226.115 36.6452 226.115 35.8239C226.115 35.0132 226.286 34.2879 226.627 33.6479C226.979 32.9972 227.459 32.4905 228.067 32.1279C228.675 31.7652 229.358 31.5839 230.115 31.5839C230.872 31.5839 231.55 31.7652 232.147 32.1279C232.755 32.4799 233.23 32.9759 233.571 33.6159C233.923 34.2559 234.099 34.9812 234.099 35.7919L234.083 36.0159ZM230.115 32.2879C229.528 32.2879 229 32.4212 228.531 32.6879C228.062 32.9439 227.683 33.3119 227.395 33.7919C227.118 34.2612 226.958 34.7945 226.915 35.3919H233.315C233.283 34.7945 233.123 34.2612 232.835 33.7919C232.547 33.3225 232.168 32.9545 231.699 32.6879C231.23 32.4212 230.702 32.2879 230.115 32.2879ZM231.731 30.2879L230.115 29.3119L228.499 30.2879H227.651L229.683 28.8799H230.547L232.579 30.2879H231.731ZM233.443 27.3279H234.515L232.259 29.0079H231.475L233.443 27.3279Z" fill="#303030"/>
<path d="M240.718 39.4719C240.515 39.6639 240.259 39.8132 239.95 39.9199C239.651 40.0159 239.336 40.0639 239.006 40.0639C238.28 40.0639 237.72 39.8665 237.326 39.4719C236.931 39.0665 236.734 38.5065 236.734 37.7919V32.3359H235.198V31.6479H236.734V29.8239H237.534V31.6479H240.19V32.3359H237.534V37.7119C237.534 38.2559 237.662 38.6719 237.918 38.9599C238.184 39.2372 238.574 39.3759 239.086 39.3759C239.608 39.3759 240.04 39.2212 240.382 38.9119L240.718 39.4719Z" fill="#303030"/>
<path d="M54.9403 148.382H59.3723C60.535 148.382 61.5643 148.622 62.4603 149.102C63.367 149.582 64.071 150.249 64.5723 151.102C65.0736 151.945 65.3243 152.905 65.3243 153.982C65.3243 155.059 65.0736 156.025 64.5723 156.878C64.071 157.721 63.367 158.382 62.4603 158.862C61.5643 159.342 60.535 159.582 59.3723 159.582H54.9403V148.382ZM59.3083 158.846C60.343 158.846 61.255 158.643 62.0443 158.238C62.8336 157.822 63.4416 157.246 63.8683 156.51C64.295 155.774 64.5083 154.931 64.5083 153.982C64.5083 153.033 64.295 152.19 63.8683 151.454C63.4416 150.718 62.8336 150.147 62.0443 149.742C61.255 149.326 60.343 149.118 59.3083 149.118H55.7563V158.846H59.3083ZM53.1963 153.55H59.2123V154.238H53.1963V153.55Z" fill="#303030"/>
<path d="M74.9579 155.598H67.7739C67.7952 156.249 67.9606 156.83 68.2699 157.342C68.5792 157.843 68.9952 158.233 69.5179 158.51C70.0512 158.787 70.6486 158.926 71.3099 158.926C71.8539 158.926 72.3552 158.83 72.8139 158.638C73.2832 158.435 73.6726 158.142 73.9819 157.758L74.4459 158.286C74.0832 158.723 73.6246 159.059 73.0699 159.294C72.5259 159.529 71.9339 159.646 71.2939 159.646C70.4619 159.646 69.7206 159.465 69.0699 159.102C68.4192 158.739 67.9072 158.238 67.5339 157.598C67.1712 156.958 66.9899 156.227 66.9899 155.406C66.9899 154.595 67.1606 153.87 67.5019 153.23C67.8539 152.579 68.3339 152.073 68.9419 151.71C69.5499 151.347 70.2326 151.166 70.9899 151.166C71.7472 151.166 72.4246 151.347 73.0219 151.71C73.6299 152.062 74.1046 152.558 74.4459 153.198C74.7979 153.838 74.9739 154.563 74.9739 155.374L74.9579 155.598ZM70.9899 151.87C70.4032 151.87 69.8752 152.003 69.4059 152.27C68.9366 152.526 68.5579 152.894 68.2699 153.374C67.9926 153.843 67.8326 154.377 67.7899 154.974H74.1899C74.1579 154.377 73.9979 153.843 73.7099 153.374C73.4219 152.905 73.0432 152.537 72.5739 152.27C72.1046 152.003 71.5766 151.87 70.9899 151.87ZM72.6059 149.87L70.9899 148.894L69.3739 149.87H68.5259L70.5579 148.462H71.4219L73.4539 149.87H72.6059ZM74.3179 146.91H75.3899L73.1339 148.59H72.3499L74.3179 146.91Z" fill="#303030"/>
<path d="M81.5288 151.166C82.5741 151.166 83.4008 151.47 84.0088 152.078C84.6168 152.686 84.9208 153.561 84.9208 154.702V159.582H84.1208V154.766C84.1208 153.827 83.8808 153.113 83.4008 152.622C82.9315 152.131 82.2701 151.886 81.4168 151.886C80.4355 151.886 79.6621 152.179 79.0968 152.766C78.5315 153.353 78.2488 154.142 78.2488 155.134V159.582H77.4488V151.23H78.2168V153.038C78.5048 152.451 78.9315 151.993 79.4968 151.662C80.0728 151.331 80.7501 151.166 81.5288 151.166Z" fill="#303030"/>
<path d="M94.7238 149.118H90.6918V148.382H99.5718V149.118H95.5398V159.582H94.7238V149.118Z" fill="#303030"/>
<path d="M105.611 148.382C107.019 148.382 108.123 148.718 108.923 149.39C109.723 150.051 110.123 150.974 110.123 152.158C110.123 153.331 109.723 154.254 108.923 154.926C108.123 155.587 107.019 155.918 105.611 155.918H102.411V159.582H101.595V148.382H105.611ZM105.611 155.182C106.806 155.182 107.718 154.921 108.347 154.398C108.977 153.875 109.291 153.129 109.291 152.158C109.291 151.187 108.977 150.441 108.347 149.918C107.718 149.385 106.806 149.118 105.611 149.118H102.411V155.182H105.611Z" fill="#303030"/>
<path d="M112.212 159.646C112.031 159.646 111.871 159.582 111.732 159.454C111.604 159.315 111.54 159.15 111.54 158.958C111.54 158.766 111.604 158.606 111.732 158.478C111.871 158.35 112.031 158.286 112.212 158.286C112.393 158.286 112.548 158.35 112.676 158.478C112.815 158.606 112.884 158.766 112.884 158.958C112.884 159.15 112.815 159.315 112.676 159.454C112.548 159.582 112.393 159.646 112.212 159.646Z" fill="#303030"/>
<path d="M124.887 148.382V159.582H124.071V154.254H116.583V159.582H115.767V148.382H116.583V153.534H124.071V148.382H124.887Z" fill="#303030"/>
<path d="M133.535 159.662C132.436 159.662 131.444 159.417 130.559 158.926C129.684 158.435 128.991 157.758 128.479 156.894C127.977 156.03 127.727 155.059 127.727 153.982C127.727 152.905 127.977 151.934 128.479 151.07C128.991 150.206 129.684 149.529 130.559 149.038C131.444 148.547 132.436 148.302 133.535 148.302C134.345 148.302 135.092 148.435 135.775 148.702C136.457 148.958 137.039 149.342 137.519 149.854L137.007 150.382C136.111 149.497 134.964 149.054 133.567 149.054C132.628 149.054 131.775 149.267 131.007 149.694C130.239 150.121 129.636 150.713 129.199 151.47C128.761 152.217 128.543 153.054 128.543 153.982C128.543 154.91 128.761 155.753 129.199 156.51C129.636 157.257 130.239 157.843 131.007 158.27C131.775 158.697 132.628 158.91 133.567 158.91C134.953 158.91 136.1 158.462 137.007 157.566L137.519 158.094C137.039 158.606 136.452 158.995 135.759 159.262C135.076 159.529 134.335 159.662 133.535 159.662Z" fill="#303030"/>
<path d="M150.844 159.582L150.828 149.998L146.14 158.094H145.74L141.052 150.03V159.582H140.252V148.382H140.94L145.948 157.038L150.956 148.382H151.628L151.644 159.582H150.844Z" fill="#303030"/>
<path d="M161.322 162.686C160.735 161.705 160.282 160.579 159.962 159.31C159.653 158.041 159.498 156.67 159.498 155.198C159.498 153.726 159.653 152.35 159.962 151.07C160.282 149.779 160.735 148.659 161.322 147.71H162.09C160.885 149.769 160.282 152.265 160.282 155.198C160.282 158.131 160.885 160.627 162.09 162.686H161.322Z" fill="#303030"/>
<path d="M168.687 159.054C168.484 159.246 168.228 159.395 167.919 159.502C167.62 159.598 167.305 159.646 166.975 159.646C166.249 159.646 165.689 159.449 165.295 159.054C164.9 158.649 164.703 158.089 164.703 157.374V151.918H163.167V151.23H164.703V149.406H165.503V151.23H168.159V151.918H165.503V157.294C165.503 157.838 165.631 158.254 165.887 158.542C166.153 158.819 166.543 158.958 167.055 158.958C167.577 158.958 168.009 158.803 168.351 158.494L168.687 159.054Z" fill="#303030"/>
<path d="M174.998 151.166C176.043 151.166 176.87 151.47 177.478 152.078C178.086 152.686 178.39 153.561 178.39 154.702V159.582H177.59V154.766C177.59 153.827 177.35 153.113 176.87 152.622C176.4 152.131 175.739 151.886 174.886 151.886C173.904 151.886 173.131 152.179 172.566 152.766C172 153.353 171.718 154.142 171.718 155.134V159.582H170.918V147.71H171.718V152.974C172.006 152.398 172.432 151.955 172.998 151.646C173.563 151.326 174.23 151.166 174.998 151.166Z" fill="#303030"/>
<path d="M184.963 159.646C184.173 159.646 183.459 159.465 182.819 159.102C182.189 158.739 181.693 158.238 181.331 157.598C180.968 156.947 180.787 156.217 180.787 155.406C180.787 154.595 180.968 153.87 181.331 153.23C181.693 152.579 182.189 152.073 182.819 151.71C183.459 151.347 184.173 151.166 184.963 151.166C185.752 151.166 186.461 151.347 187.091 151.71C187.731 152.073 188.232 152.579 188.595 153.23C188.957 153.87 189.139 154.595 189.139 155.406C189.139 156.217 188.957 156.947 188.595 157.598C188.232 158.238 187.731 158.739 187.091 159.102C186.461 159.465 185.752 159.646 184.963 159.646ZM184.963 158.926C185.603 158.926 186.173 158.777 186.675 158.478C187.187 158.179 187.587 157.763 187.875 157.23C188.173 156.697 188.323 156.089 188.323 155.406C188.323 154.723 188.173 154.115 187.875 153.582C187.587 153.049 187.187 152.633 186.675 152.334C186.173 152.035 185.603 151.886 184.963 151.886C184.323 151.886 183.747 152.035 183.235 152.334C182.733 152.633 182.333 153.049 182.035 153.582C181.747 154.115 181.603 154.723 181.603 155.406C181.603 156.089 181.747 156.697 182.035 157.23C182.333 157.763 182.733 158.179 183.235 158.478C183.747 158.777 184.323 158.926 184.963 158.926ZM186.627 149.87L184.963 148.478L183.299 149.87H182.499L184.515 147.982H185.411L187.427 149.87H186.627Z" fill="#303030"/>
<path d="M195.701 151.166C196.746 151.166 197.573 151.47 198.181 152.078C198.789 152.686 199.093 153.561 199.093 154.702V159.582H198.293V154.766C198.293 153.827 198.053 153.113 197.573 152.622C197.103 152.131 196.442 151.886 195.589 151.886C194.607 151.886 193.834 152.179 193.269 152.766C192.703 153.353 192.421 154.142 192.421 155.134V159.582H191.621V151.23H192.389V153.038C192.677 152.451 193.103 151.993 193.669 151.662C194.245 151.331 194.922 151.166 195.701 151.166Z" fill="#303030"/>
<path d="M209.922 151.23V158.686C209.922 160.073 209.586 161.097 208.914 161.758C208.242 162.419 207.229 162.75 205.874 162.75C205.106 162.75 204.381 162.633 203.698 162.398C203.015 162.163 202.466 161.838 202.05 161.422L202.482 160.814C202.898 161.198 203.399 161.497 203.986 161.71C204.573 161.923 205.197 162.03 205.858 162.03C206.967 162.03 207.789 161.763 208.322 161.23C208.855 160.707 209.122 159.891 209.122 158.782V157.374C208.781 157.982 208.306 158.451 207.698 158.782C207.09 159.113 206.407 159.278 205.65 159.278C204.871 159.278 204.162 159.107 203.522 158.766C202.893 158.414 202.397 157.929 202.034 157.31C201.671 156.691 201.49 155.993 201.49 155.214C201.49 154.435 201.671 153.737 202.034 153.118C202.397 152.499 202.893 152.019 203.522 151.678C204.162 151.337 204.871 151.166 205.65 151.166C206.418 151.166 207.111 151.337 207.73 151.678C208.349 152.019 208.823 152.499 209.154 153.118V151.23H209.922ZM205.714 158.558C206.365 158.558 206.951 158.419 207.474 158.142C207.997 157.854 208.402 157.459 208.69 156.958C208.989 156.446 209.138 155.865 209.138 155.214C209.138 154.563 208.989 153.987 208.69 153.486C208.402 152.985 207.997 152.595 207.474 152.318C206.951 152.03 206.365 151.886 205.714 151.886C205.063 151.886 204.477 152.03 203.954 152.318C203.442 152.595 203.037 152.985 202.738 153.486C202.45 153.987 202.306 154.563 202.306 155.214C202.306 155.865 202.45 156.446 202.738 156.958C203.037 157.459 203.442 157.854 203.954 158.142C204.477 158.419 205.063 158.558 205.714 158.558Z" fill="#303030"/>
<path d="M224.842 151.23V162.686H224.042V157.646C223.7 158.275 223.231 158.766 222.634 159.118C222.047 159.47 221.38 159.646 220.634 159.646C219.855 159.646 219.151 159.47 218.522 159.118C217.892 158.755 217.396 158.254 217.034 157.614C216.682 156.963 216.506 156.227 216.506 155.406C216.506 154.585 216.682 153.854 217.034 153.214C217.396 152.574 217.892 152.073 218.522 151.71C219.151 151.347 219.855 151.166 220.634 151.166C221.391 151.166 222.068 151.342 222.666 151.694C223.263 152.046 223.727 152.547 224.058 153.198V151.23H224.842ZM220.682 158.926C221.322 158.926 221.892 158.777 222.394 158.478C222.906 158.179 223.306 157.763 223.594 157.23C223.892 156.697 224.042 156.089 224.042 155.406C224.042 154.723 223.892 154.115 223.594 153.582C223.306 153.049 222.906 152.633 222.394 152.334C221.892 152.035 221.322 151.886 220.682 151.886C220.042 151.886 219.466 152.035 218.954 152.334C218.452 152.633 218.052 153.049 217.754 153.582C217.466 154.115 217.322 154.723 217.322 155.406C217.322 156.089 217.466 156.697 217.754 157.23C218.052 157.763 218.452 158.179 218.954 158.478C219.466 158.777 220.042 158.926 220.682 158.926Z" fill="#303030"/>
<path d="M235.526 151.23V159.582H234.758V157.79C234.481 158.377 234.07 158.835 233.526 159.166C232.982 159.486 232.342 159.646 231.606 159.646C230.518 159.646 229.665 159.342 229.046 158.734C228.428 158.126 228.118 157.251 228.118 156.11V151.23H228.918V156.046C228.918 156.985 229.158 157.699 229.638 158.19C230.118 158.681 230.796 158.926 231.67 158.926C232.609 158.926 233.35 158.633 233.894 158.046C234.449 157.459 234.726 156.67 234.726 155.678V151.23H235.526Z" fill="#303030"/>
<path d="M241.734 151.166C242.768 151.166 243.563 151.433 244.118 151.966C244.672 152.489 244.95 153.262 244.95 154.286V159.582H244.182V158.094C243.915 158.585 243.526 158.969 243.014 159.246C242.502 159.513 241.888 159.646 241.174 159.646C240.246 159.646 239.51 159.427 238.966 158.99C238.432 158.553 238.166 157.977 238.166 157.262C238.166 156.569 238.411 156.009 238.902 155.582C239.403 155.145 240.198 154.926 241.286 154.926H244.15V154.254C244.15 153.475 243.936 152.883 243.51 152.478C243.094 152.073 242.48 151.87 241.67 151.87C241.115 151.87 240.582 151.966 240.07 152.158C239.568 152.35 239.142 152.606 238.79 152.926L238.39 152.35C238.806 151.977 239.307 151.689 239.894 151.486C240.48 151.273 241.094 151.166 241.734 151.166ZM241.286 158.99C241.979 158.99 242.566 158.83 243.046 158.51C243.536 158.19 243.904 157.726 244.15 157.118V155.55H241.302C240.48 155.55 239.883 155.699 239.51 155.998C239.147 156.297 238.966 156.707 238.966 157.23C238.966 157.774 239.168 158.206 239.574 158.526C239.979 158.835 240.55 158.99 241.286 158.99Z" fill="#303030"/>
<path d="M255.667 159.646C254.856 159.646 254.131 159.465 253.491 159.102C252.851 158.739 252.35 158.238 251.987 157.598C251.624 156.947 251.443 156.217 251.443 155.406C251.443 154.585 251.624 153.854 251.987 153.214C252.35 152.563 252.851 152.062 253.491 151.71C254.131 151.347 254.856 151.166 255.667 151.166C256.339 151.166 256.947 151.299 257.491 151.566C258.046 151.822 258.494 152.201 258.835 152.702L258.243 153.134C257.944 152.718 257.571 152.409 257.123 152.206C256.686 151.993 256.2 151.886 255.667 151.886C255.016 151.886 254.43 152.035 253.907 152.334C253.395 152.622 252.99 153.033 252.691 153.566C252.403 154.099 252.259 154.713 252.259 155.406C252.259 156.099 252.403 156.713 252.691 157.246C252.99 157.779 253.395 158.195 253.907 158.494C254.43 158.782 255.016 158.926 255.667 158.926C256.2 158.926 256.686 158.825 257.123 158.622C257.571 158.409 257.944 158.094 258.243 157.678L258.835 158.11C258.494 158.611 258.046 158.995 257.491 159.262C256.947 159.518 256.339 159.646 255.667 159.646Z" fill="#303030"/>
<path d="M264.046 151.166C265.081 151.166 265.875 151.433 266.43 151.966C266.985 152.489 267.262 153.262 267.262 154.286V159.582H266.494V158.094C266.227 158.585 265.838 158.969 265.326 159.246C264.814 159.513 264.201 159.646 263.486 159.646C262.558 159.646 261.822 159.427 261.278 158.99C260.745 158.553 260.478 157.977 260.478 157.262C260.478 156.569 260.723 156.009 261.214 155.582C261.715 155.145 262.51 154.926 263.598 154.926H266.462V154.254C266.462 153.475 266.249 152.883 265.822 152.478C265.406 152.073 264.793 151.87 263.982 151.87C263.427 151.87 262.894 151.966 262.382 152.158C261.881 152.35 261.454 152.606 261.102 152.926L260.702 152.35C261.118 151.977 261.619 151.689 262.206 151.486C262.793 151.273 263.406 151.166 264.046 151.166ZM263.598 158.99C264.291 158.99 264.878 158.83 265.358 158.51C265.849 158.19 266.217 157.726 266.462 157.118V155.55H263.614C262.793 155.55 262.195 155.699 261.822 155.998C261.459 156.297 261.278 156.707 261.278 157.23C261.278 157.774 261.481 158.206 261.886 158.526C262.291 158.835 262.862 158.99 263.598 158.99Z" fill="#303030"/>
<path d="M273.838 159.646C273.048 159.646 272.334 159.465 271.694 159.102C271.064 158.739 270.568 158.238 270.206 157.598C269.843 156.947 269.662 156.217 269.662 155.406C269.662 154.595 269.843 153.87 270.206 153.23C270.568 152.579 271.064 152.073 271.694 151.71C272.334 151.347 273.048 151.166 273.838 151.166C274.627 151.166 275.336 151.347 275.966 151.71C276.606 152.073 277.107 152.579 277.47 153.23C277.832 153.87 278.014 154.595 278.014 155.406C278.014 156.217 277.832 156.947 277.47 157.598C277.107 158.238 276.606 158.739 275.966 159.102C275.336 159.465 274.627 159.646 273.838 159.646ZM273.838 158.926C274.478 158.926 275.048 158.777 275.55 158.478C276.062 158.179 276.462 157.763 276.75 157.23C277.048 156.697 277.198 156.089 277.198 155.406C277.198 154.723 277.048 154.115 276.75 153.582C276.462 153.049 276.062 152.633 275.55 152.334C275.048 152.035 274.478 151.886 273.838 151.886C273.198 151.886 272.622 152.035 272.11 152.334C271.608 152.633 271.208 153.049 270.91 153.582C270.622 154.115 270.478 154.723 270.478 155.406C270.478 156.089 270.622 156.697 270.91 157.23C271.208 157.763 271.608 158.179 272.11 158.478C272.622 158.777 273.198 158.926 273.838 158.926Z" fill="#303030"/>
<path d="M288.749 159.054C288.546 159.246 288.29 159.395 287.981 159.502C287.682 159.598 287.368 159.646 287.037 159.646C286.312 159.646 285.752 159.449 285.357 159.054C284.962 158.649 284.765 158.089 284.765 157.374V151.918H283.229V151.23H284.765V149.406H285.565V151.23H288.221V151.918H285.565V157.294C285.565 157.838 285.693 158.254 285.949 158.542C286.216 158.819 286.605 158.958 287.117 158.958C287.64 158.958 288.072 158.803 288.413 158.494L288.749 159.054Z" fill="#303030"/>
<path d="M293.947 159.646C293.158 159.646 292.443 159.465 291.803 159.102C291.174 158.739 290.678 158.238 290.315 157.598C289.953 156.947 289.771 156.217 289.771 155.406C289.771 154.595 289.953 153.87 290.315 153.23C290.678 152.579 291.174 152.073 291.803 151.71C292.443 151.347 293.158 151.166 293.947 151.166C294.736 151.166 295.446 151.347 296.075 151.71C296.715 152.073 297.216 152.579 297.579 153.23C297.942 153.87 298.123 154.595 298.123 155.406C298.123 156.217 297.942 156.947 297.579 157.598C297.216 158.238 296.715 158.739 296.075 159.102C295.446 159.465 294.736 159.646 293.947 159.646ZM293.947 158.926C294.587 158.926 295.158 158.777 295.659 158.478C296.171 158.179 296.571 157.763 296.859 157.23C297.158 156.697 297.307 156.089 297.307 155.406C297.307 154.723 297.158 154.115 296.859 153.582C296.571 153.049 296.171 152.633 295.659 152.334C295.158 152.035 294.587 151.886 293.947 151.886C293.307 151.886 292.731 152.035 292.219 152.334C291.718 152.633 291.318 153.049 291.019 153.582C290.731 154.115 290.587 154.723 290.587 155.406C290.587 156.089 290.731 156.697 291.019 157.23C291.318 157.763 291.718 158.179 292.219 158.478C292.731 158.777 293.307 158.926 293.947 158.926ZM295.563 149.87L293.947 148.894L292.331 149.87H291.483L293.515 148.462H294.379L296.411 149.87H295.563ZM297.275 146.91H298.347L296.091 148.59H295.307L297.275 146.91Z" fill="#303030"/>
<path d="M303.917 159.646C303.106 159.646 302.381 159.465 301.741 159.102C301.101 158.739 300.6 158.238 300.237 157.598C299.874 156.947 299.693 156.217 299.693 155.406C299.693 154.585 299.874 153.854 300.237 153.214C300.6 152.563 301.101 152.062 301.741 151.71C302.381 151.347 303.106 151.166 303.917 151.166C304.589 151.166 305.197 151.299 305.741 151.566C306.296 151.822 306.744 152.201 307.085 152.702L306.493 153.134C306.194 152.718 305.821 152.409 305.373 152.206C304.936 151.993 304.45 151.886 303.917 151.886C303.266 151.886 302.68 152.035 302.157 152.334C301.645 152.622 301.24 153.033 300.941 153.566C300.653 154.099 300.509 154.713 300.509 155.406C300.509 156.099 300.653 156.713 300.941 157.246C301.24 157.779 301.645 158.195 302.157 158.494C302.68 158.782 303.266 158.926 303.917 158.926C304.45 158.926 304.936 158.825 305.373 158.622C305.821 158.409 306.194 158.094 306.493 157.678L307.085 158.11C306.744 158.611 306.296 158.995 305.741 159.262C305.197 159.518 304.589 159.646 303.917 159.646Z" fill="#303030"/>
<path d="M313.845 148.382H318.277C319.44 148.382 320.469 148.622 321.365 149.102C322.272 149.582 322.976 150.249 323.477 151.102C323.979 151.945 324.229 152.905 324.229 153.982C324.229 155.059 323.979 156.025 323.477 156.878C322.976 157.721 322.272 158.382 321.365 158.862C320.469 159.342 319.44 159.582 318.277 159.582H313.845V148.382ZM318.213 158.846C319.248 158.846 320.16 158.643 320.949 158.238C321.739 157.822 322.347 157.246 322.773 156.51C323.2 155.774 323.413 154.931 323.413 153.982C323.413 153.033 323.2 152.19 322.773 151.454C322.347 150.718 321.739 150.147 320.949 149.742C320.16 149.326 319.248 149.118 318.213 149.118H314.661V158.846H318.213Z" fill="#303030"/>
<path d="M329.624 151.166C330.659 151.166 331.454 151.433 332.008 151.966C332.563 152.489 332.84 153.262 332.84 154.286V159.582H332.072V158.094C331.806 158.585 331.416 158.969 330.904 159.246C330.392 159.513 329.779 159.646 329.064 159.646C328.136 159.646 327.4 159.427 326.856 158.99C326.323 158.553 326.056 157.977 326.056 157.262C326.056 156.569 326.302 156.009 326.792 155.582C327.294 155.145 328.088 154.926 329.176 154.926H332.04V154.254C332.04 153.475 331.827 152.883 331.4 152.478C330.984 152.073 330.371 151.87 329.56 151.87C329.005 151.87 328.472 151.966 327.96 152.158C327.459 152.35 327.032 152.606 326.68 152.926L326.28 152.35C326.696 151.977 327.197 151.689 327.784 151.486C328.371 151.273 328.984 151.166 329.624 151.166ZM329.176 158.99C329.87 158.99 330.456 158.83 330.936 158.51C331.427 158.19 331.795 157.726 332.04 157.118V155.55H329.192C328.371 155.55 327.774 155.699 327.4 155.998C327.038 156.297 326.856 156.707 326.856 157.23C326.856 157.774 327.059 158.206 327.464 158.526C327.87 158.835 328.44 158.99 329.176 158.99ZM331.208 149.87L329.592 148.894L327.976 149.87H327.128L329.16 148.462H330.024L332.056 149.87H331.208ZM329.64 146.91H330.712L332.696 148.59H331.896L329.64 146.91Z" fill="#303030"/>
<path d="M343.448 151.23V159.582H342.68V157.79C342.403 158.377 341.992 158.835 341.448 159.166C340.904 159.486 340.264 159.646 339.528 159.646C338.44 159.646 337.587 159.342 336.968 158.734C336.35 158.126 336.04 157.251 336.04 156.11V151.23H336.84V156.046C336.84 156.985 337.08 157.699 337.56 158.19C338.04 158.681 338.718 158.926 339.592 158.926C340.531 158.926 341.272 158.633 341.816 158.046C342.371 157.459 342.648 156.67 342.648 155.678V151.23H343.448Z" fill="#303030"/>
<path d="M359.205 154.03H359.989V158.222C359.498 158.691 358.901 159.049 358.197 159.294C357.503 159.539 356.767 159.662 355.989 159.662C354.879 159.662 353.877 159.417 352.981 158.926C352.095 158.435 351.397 157.758 350.885 156.894C350.383 156.03 350.133 155.059 350.133 153.982C350.133 152.905 350.383 151.934 350.885 151.07C351.397 150.206 352.095 149.529 352.981 149.038C353.877 148.547 354.885 148.302 356.005 148.302C356.826 148.302 357.578 148.435 358.261 148.702C358.954 148.958 359.546 149.337 360.037 149.838L359.525 150.382C359.055 149.913 358.527 149.577 357.941 149.374C357.365 149.161 356.725 149.054 356.021 149.054C355.061 149.054 354.191 149.267 353.413 149.694C352.645 150.121 352.042 150.713 351.605 151.47C351.167 152.217 350.949 153.054 350.949 153.982C350.949 154.899 351.167 155.737 351.605 156.494C352.053 157.241 352.661 157.833 353.429 158.27C354.197 158.697 355.061 158.91 356.021 158.91C357.301 158.91 358.362 158.569 359.205 157.886V154.03Z" fill="#303030"/>
<path d="M363.324 151.23H364.124V159.582H363.324V151.23ZM363.724 149.198C363.542 149.198 363.388 149.139 363.26 149.022C363.132 148.894 363.068 148.739 363.068 148.558C363.068 148.377 363.132 148.222 363.26 148.094C363.388 147.966 363.542 147.902 363.724 147.902C363.905 147.902 364.06 147.966 364.188 148.094C364.316 148.211 364.38 148.361 364.38 148.542C364.38 148.723 364.316 148.878 364.188 149.006C364.06 149.134 363.905 149.198 363.724 149.198Z" fill="#303030"/>
<path d="M370.312 151.166C371.346 151.166 372.141 151.433 372.696 151.966C373.25 152.489 373.528 153.262 373.528 154.286V159.582H372.76V158.094C372.493 158.585 372.104 158.969 371.592 159.246C371.08 159.513 370.466 159.646 369.752 159.646C368.824 159.646 368.088 159.427 367.544 158.99C367.01 158.553 366.744 157.977 366.744 157.262C366.744 156.569 366.989 156.009 367.48 155.582C367.981 155.145 368.776 154.926 369.864 154.926H372.728V154.254C372.728 153.475 372.514 152.883 372.088 152.478C371.672 152.073 371.058 151.87 370.248 151.87C369.693 151.87 369.16 151.966 368.648 152.158C368.146 152.35 367.72 152.606 367.368 152.926L366.968 152.35C367.384 151.977 367.885 151.689 368.472 151.486C369.058 151.273 369.672 151.166 370.312 151.166ZM369.864 158.99C370.557 158.99 371.144 158.83 371.624 158.51C372.114 158.19 372.482 157.726 372.728 157.118V155.55H369.88C369.058 155.55 368.461 155.699 368.088 155.998C367.725 156.297 367.544 156.707 367.544 157.23C367.544 157.774 367.746 158.206 368.152 158.526C368.557 158.835 369.128 158.99 369.864 158.99ZM371.944 149.87L370.28 148.478L368.616 149.87H367.816L369.832 147.982H370.728L372.744 149.87H371.944Z" fill="#303030"/>
<path d="M383.372 151.23L379.084 160.718C378.764 161.454 378.39 161.977 377.964 162.286C377.548 162.595 377.052 162.75 376.476 162.75C376.092 162.75 375.729 162.686 375.388 162.558C375.057 162.43 374.774 162.243 374.54 161.998L374.94 161.39C375.366 161.827 375.884 162.046 376.492 162.046C376.897 162.046 377.244 161.934 377.532 161.71C377.82 161.486 378.086 161.102 378.332 160.558L378.78 159.55L375.02 151.23H375.868L379.212 158.702L382.556 151.23H383.372Z" fill="#303030"/>
<path d="M388.526 154.926H392.638V155.646H388.526V154.926Z" fill="#303030"/>
<path d="M403.705 148.382C405.113 148.382 406.217 148.718 407.017 149.39C407.817 150.051 408.217 150.974 408.217 152.158C408.217 153.331 407.817 154.254 407.017 154.926C406.217 155.587 405.113 155.918 403.705 155.918H400.505V159.582H399.689V148.382H403.705ZM403.705 155.182C404.9 155.182 405.812 154.921 406.441 154.398C407.07 153.875 407.385 153.129 407.385 152.158C407.385 151.187 407.07 150.441 406.441 149.918C405.812 149.385 404.9 149.118 403.705 149.118H400.505V155.182H403.705Z" fill="#303030"/>
<path d="M414.951 151.166C415.996 151.166 416.823 151.47 417.431 152.078C418.039 152.686 418.343 153.561 418.343 154.702V159.582H417.543V154.766C417.543 153.827 417.303 153.113 416.823 152.622C416.353 152.131 415.692 151.886 414.839 151.886C413.857 151.886 413.084 152.179 412.519 152.766C411.953 153.353 411.671 154.142 411.671 155.134V159.582H410.871V147.71H411.671V152.974C411.959 152.398 412.385 151.955 412.951 151.646C413.516 151.326 414.183 151.166 414.951 151.166Z" fill="#303030"/>
<path d="M424.452 151.166C425.487 151.166 426.282 151.433 426.836 151.966C427.391 152.489 427.668 153.262 427.668 154.286V159.582H426.9V158.094C426.634 158.585 426.244 158.969 425.732 159.246C425.22 159.513 424.607 159.646 423.892 159.646C422.964 159.646 422.228 159.427 421.684 158.99C421.151 158.553 420.884 157.977 420.884 157.262C420.884 156.569 421.13 156.009 421.62 155.582C422.122 155.145 422.916 154.926 424.004 154.926H426.868V154.254C426.868 153.475 426.655 152.883 426.228 152.478C425.812 152.073 425.199 151.87 424.388 151.87C423.834 151.87 423.3 151.966 422.788 152.158C422.287 152.35 421.86 152.606 421.508 152.926L421.108 152.35C421.524 151.977 422.026 151.689 422.612 151.486C423.199 151.273 423.812 151.166 424.452 151.166ZM424.004 158.99C424.698 158.99 425.284 158.83 425.764 158.51C426.255 158.19 426.623 157.726 426.868 157.118V155.55H424.02C423.199 155.55 422.602 155.699 422.228 155.998C421.866 156.297 421.684 156.707 421.684 157.23C421.684 157.774 421.887 158.206 422.292 158.526C422.698 158.835 423.268 158.99 424.004 158.99Z" fill="#303030"/>
<path d="M435.044 151.166C436.09 151.166 436.916 151.47 437.524 152.078C438.132 152.686 438.436 153.561 438.436 154.702V159.582H437.636V154.766C437.636 153.827 437.396 153.113 436.916 152.622C436.447 152.131 435.786 151.886 434.932 151.886C433.951 151.886 433.178 152.179 432.612 152.766C432.047 153.353 431.764 154.142 431.764 155.134V159.582H430.964V151.23H431.732V153.038C432.02 152.451 432.447 151.993 433.012 151.662C433.588 151.331 434.266 151.166 435.044 151.166Z" fill="#303030"/>
<path d="M448.239 149.118H444.207V148.382H453.087V149.118H449.055V159.582H448.239V149.118Z" fill="#303030"/>
<path d="M458.935 151.166C459.98 151.166 460.807 151.47 461.415 152.078C462.023 152.686 462.327 153.561 462.327 154.702V159.582H461.527V154.766C461.527 153.827 461.287 153.113 460.807 152.622C460.338 152.131 459.676 151.886 458.823 151.886C457.842 151.886 457.068 152.179 456.503 152.766C455.938 153.353 455.655 154.142 455.655 155.134V159.582H454.855V147.71H455.655V152.974C455.943 152.398 456.37 151.955 456.935 151.646C457.5 151.326 458.167 151.166 458.935 151.166Z" fill="#303030"/>
<path d="M465.621 151.23H466.421V159.582H465.621V151.23ZM466.021 149.198C465.839 149.198 465.685 149.139 465.557 149.022C465.429 148.894 465.365 148.739 465.365 148.558C465.365 148.377 465.429 148.222 465.557 148.094C465.685 147.966 465.839 147.902 466.021 147.902C466.202 147.902 466.357 147.966 466.485 148.094C466.613 148.211 466.677 148.361 466.677 148.542C466.677 148.723 466.613 148.878 466.485 149.006C466.357 149.134 466.202 149.198 466.021 149.198Z" fill="#303030"/>
<path d="M476.849 155.598H469.665C469.686 156.249 469.851 156.83 470.161 157.342C470.47 157.843 470.886 158.233 471.409 158.51C471.942 158.787 472.539 158.926 473.201 158.926C473.745 158.926 474.246 158.83 474.705 158.638C475.174 158.435 475.563 158.142 475.873 157.758L476.337 158.286C475.974 158.723 475.515 159.059 474.961 159.294C474.417 159.529 473.825 159.646 473.185 159.646C472.353 159.646 471.611 159.465 470.961 159.102C470.31 158.739 469.798 158.238 469.425 157.598C469.062 156.958 468.881 156.227 468.881 155.406C468.881 154.595 469.051 153.87 469.393 153.23C469.745 152.579 470.225 152.073 470.833 151.71C471.441 151.347 472.123 151.166 472.881 151.166C473.638 151.166 474.315 151.347 474.913 151.71C475.521 152.062 475.995 152.558 476.337 153.198C476.689 153.838 476.865 154.563 476.865 155.374L476.849 155.598ZM472.881 151.87C472.294 151.87 471.766 152.003 471.297 152.27C470.827 152.526 470.449 152.894 470.161 153.374C469.883 153.843 469.723 154.377 469.681 154.974H476.081C476.049 154.377 475.889 153.843 475.601 153.374C475.313 152.905 474.934 152.537 474.465 152.27C473.995 152.003 473.467 151.87 472.881 151.87ZM474.497 149.87L472.881 148.894L471.265 149.87H470.417L472.449 148.462H473.313L475.345 149.87H474.497ZM476.209 146.91H477.281L475.025 148.59H474.241L476.209 146.91Z" fill="#303030"/>
<path d="M483.483 159.054C483.281 159.246 483.025 159.395 482.715 159.502C482.417 159.598 482.102 159.646 481.771 159.646C481.046 159.646 480.486 159.449 480.091 159.054C479.697 158.649 479.499 158.089 479.499 157.374V151.918H477.963V151.23H479.499V149.406H480.299V151.23H482.955V151.918H480.299V157.294C480.299 157.838 480.427 158.254 480.683 158.542C480.95 158.819 481.339 158.958 481.851 158.958C482.374 158.958 482.806 158.803 483.147 158.494L483.483 159.054Z" fill="#303030"/>
<path d="M492.8 155.118L490.624 157.102V159.582H489.824V147.71H490.624V156.11L495.968 151.23H496.992L493.392 154.606L497.344 159.582H496.352L492.8 155.118Z" fill="#303030"/>
<path d="M503.31 151.166C504.355 151.166 505.182 151.47 505.79 152.078C506.398 152.686 506.702 153.561 506.702 154.702V159.582H505.902V154.766C505.902 153.827 505.662 153.113 505.182 152.622C504.713 152.131 504.051 151.886 503.198 151.886C502.217 151.886 501.443 152.179 500.878 152.766C500.313 153.353 500.03 154.142 500.03 155.134V159.582H499.23V147.71H500.03V152.974C500.318 152.398 500.745 151.955 501.31 151.646C501.875 151.326 502.542 151.166 503.31 151.166Z" fill="#303030"/>
<path d="M509.996 151.23H510.796V159.582H509.996V151.23ZM510.396 149.198C510.214 149.198 510.06 149.139 509.932 149.022C509.804 148.894 509.74 148.739 509.74 148.558C509.74 148.377 509.804 148.222 509.932 148.094C510.06 147.966 510.214 147.902 510.396 147.902C510.577 147.902 510.732 147.966 510.86 148.094C510.988 148.211 511.052 148.361 511.052 148.542C511.052 148.723 510.988 148.878 510.86 149.006C510.732 149.134 510.577 149.198 510.396 149.198Z" fill="#303030"/>
<path d="M522.357 151.166C523.402 151.166 524.229 151.47 524.837 152.078C525.445 152.686 525.749 153.561 525.749 154.702V159.582H524.949V154.766C524.949 153.827 524.709 153.113 524.229 152.622C523.76 152.131 523.098 151.886 522.245 151.886C521.264 151.886 520.49 152.179 519.925 152.766C519.36 153.353 519.077 154.142 519.077 155.134V159.582H518.277V147.71H519.077V152.974C519.365 152.398 519.792 151.955 520.357 151.646C520.922 151.326 521.589 151.166 522.357 151.166Z" fill="#303030"/>
<path d="M532.322 159.646C531.533 159.646 530.818 159.465 530.178 159.102C529.549 158.739 529.053 158.238 528.69 157.598C528.327 156.947 528.146 156.217 528.146 155.406C528.146 154.595 528.327 153.87 528.69 153.23C529.053 152.579 529.549 152.073 530.178 151.71C530.818 151.347 531.533 151.166 532.322 151.166C533.112 151.166 533.821 151.347 534.45 151.71C535.09 152.073 535.591 152.579 535.954 153.23C536.317 153.87 536.498 154.595 536.498 155.406C536.498 156.217 536.317 156.947 535.954 157.598C535.591 158.238 535.09 158.739 534.45 159.102C533.821 159.465 533.112 159.646 532.322 159.646ZM532.322 158.926C532.962 158.926 533.533 158.777 534.034 158.478C534.546 158.179 534.946 157.763 535.234 157.23C535.533 156.697 535.682 156.089 535.682 155.406C535.682 154.723 535.533 154.115 535.234 153.582C534.946 153.049 534.546 152.633 534.034 152.334C533.533 152.035 532.962 151.886 532.322 151.886C531.682 151.886 531.106 152.035 530.594 152.334C530.093 152.633 529.693 153.049 529.394 153.582C529.106 154.115 528.962 154.723 528.962 155.406C528.962 156.089 529.106 156.697 529.394 157.23C529.693 157.763 530.093 158.179 530.594 158.478C531.106 158.777 531.682 158.926 532.322 158.926Z" fill="#303030"/>
<path d="M541.765 151.166C542.799 151.166 543.594 151.433 544.149 151.966C544.703 152.489 544.981 153.262 544.981 154.286V159.582H544.213V158.094C543.946 158.585 543.557 158.969 543.045 159.246C542.533 159.513 541.919 159.646 541.205 159.646C540.277 159.646 539.541 159.427 538.997 158.99C538.463 158.553 538.197 157.977 538.197 157.262C538.197 156.569 538.442 156.009 538.933 155.582C539.434 155.145 540.229 154.926 541.317 154.926H544.181V154.254C544.181 153.475 543.967 152.883 543.541 152.478C543.125 152.073 542.511 151.87 541.701 151.87C541.146 151.87 540.613 151.966 540.101 152.158C539.599 152.35 539.173 152.606 538.821 152.926L538.421 152.35C538.837 151.977 539.338 151.689 539.925 151.486C540.511 151.273 541.125 151.166 541.765 151.166ZM541.317 158.99C542.01 158.99 542.597 158.83 543.077 158.51C543.567 158.19 543.935 157.726 544.181 157.118V155.55H541.333C540.511 155.55 539.914 155.699 539.541 155.998C539.178 156.297 538.997 156.707 538.997 157.23C538.997 157.774 539.199 158.206 539.605 158.526C540.01 158.835 540.581 158.99 541.317 158.99ZM539.269 147.982H540.421L542.645 149.87H541.781L539.269 147.982Z" fill="#303030"/>
<path d="M552.357 151.166C553.402 151.166 554.229 151.47 554.837 152.078C555.445 152.686 555.749 153.561 555.749 154.702V159.582H554.949V154.766C554.949 153.827 554.709 153.113 554.229 152.622C553.76 152.131 553.098 151.886 552.245 151.886C551.264 151.886 550.49 152.179 549.925 152.766C549.36 153.353 549.077 154.142 549.077 155.134V159.582H548.277V151.23H549.045V153.038C549.333 152.451 549.76 151.993 550.325 151.662C550.901 151.331 551.578 151.166 552.357 151.166Z" fill="#303030"/>
<path d="M567.296 159.054C567.093 159.246 566.837 159.395 566.528 159.502C566.229 159.598 565.915 159.646 565.584 159.646C564.859 159.646 564.299 159.449 563.904 159.054C563.509 158.649 563.312 158.089 563.312 157.374V151.918H561.776V151.23H563.312V149.406H564.112V151.23H566.768V151.918H564.112V157.294C564.112 157.838 564.24 158.254 564.496 158.542C564.763 158.819 565.152 158.958 565.664 158.958C566.187 158.958 566.619 158.803 566.96 158.494L567.296 159.054Z" fill="#303030"/>
<path d="M572.343 151.166C573.378 151.166 574.172 151.433 574.727 151.966C575.282 152.489 575.559 153.262 575.559 154.286V159.582H574.791V158.094C574.524 158.585 574.135 158.969 573.623 159.246C573.111 159.513 572.498 159.646 571.783 159.646C570.855 159.646 570.119 159.427 569.575 158.99C569.042 158.553 568.775 157.977 568.775 157.262C568.775 156.569 569.02 156.009 569.511 155.582C570.012 155.145 570.807 154.926 571.895 154.926H574.759V154.254C574.759 153.475 574.546 152.883 574.119 152.478C573.703 152.073 573.09 151.87 572.279 151.87C571.724 151.87 571.191 151.966 570.679 152.158C570.178 152.35 569.751 152.606 569.399 152.926L568.999 152.35C569.415 151.977 569.916 151.689 570.503 151.486C571.09 151.273 571.703 151.166 572.343 151.166ZM571.895 158.99C572.588 158.99 573.175 158.83 573.655 158.51C574.146 158.19 574.514 157.726 574.759 157.118V155.55H571.911C571.09 155.55 570.492 155.699 570.119 155.998C569.756 156.297 569.575 156.707 569.575 157.23C569.575 157.774 569.778 158.206 570.183 158.526C570.588 158.835 571.159 158.99 571.895 158.99ZM573.927 149.87L572.311 148.894L570.695 149.87H569.847L571.879 148.462H572.743L574.775 149.87H573.927ZM575.639 146.91H576.711L574.455 148.59H573.671L575.639 146.91Z" fill="#303030"/>
<path d="M582.999 159.054C582.796 159.246 582.54 159.395 582.231 159.502C581.932 159.598 581.618 159.646 581.287 159.646C580.562 159.646 580.002 159.449 579.607 159.054C579.212 158.649 579.015 158.089 579.015 157.374V151.918H577.479V151.23H579.015V149.406H579.815V151.23H582.471V151.918H579.815V157.294C579.815 157.838 579.943 158.254 580.199 158.542C580.466 158.819 580.855 158.958 581.367 158.958C581.89 158.958 582.322 158.803 582.663 158.494L582.999 159.054Z" fill="#303030"/>
<path d="M584.302 162.686C584.921 161.641 585.374 160.499 585.662 159.262C585.95 158.025 586.094 156.67 586.094 155.198C586.094 153.726 585.95 152.371 585.662 151.134C585.374 149.897 584.921 148.755 584.302 147.71H585.054C585.651 148.659 586.105 149.779 586.414 151.07C586.734 152.35 586.894 153.726 586.894 155.198C586.894 156.67 586.734 158.046 586.414 159.326C586.105 160.595 585.651 161.715 585.054 162.686H584.302Z" fill="#303030"/>
<path d="M58.6525 78.752C57.7005 78.752 56.8505 78.514 56.1025 78.038C55.3545 77.5507 54.7651 76.848 54.3345 75.93C53.9038 75.0007 53.6885 73.9014 53.6885 72.632C53.6885 71.3627 53.9038 70.269 54.3345 69.351C54.7651 68.4217 55.3545 67.719 56.1025 67.243C56.8505 66.7557 57.7005 66.512 58.6525 66.512C59.6045 66.512 60.4545 66.7557 61.2025 67.243C61.9618 67.719 62.5568 68.4217 62.9875 69.351C63.4181 70.269 63.6335 71.3627 63.6335 72.632C63.6335 73.9014 63.4181 75.0007 62.9875 75.93C62.5568 76.848 61.9618 77.5507 61.2025 78.038C60.4545 78.514 59.6045 78.752 58.6525 78.752ZM58.6525 76.831C59.5025 76.831 60.1711 76.4797 60.6585 75.777C61.1571 75.0744 61.4065 74.026 61.4065 72.632C61.4065 71.238 61.1571 70.1897 60.6585 69.487C60.1711 68.7844 59.5025 68.433 58.6525 68.433C57.8138 68.433 57.1451 68.7844 56.6465 69.487C56.1591 70.1897 55.9155 71.238 55.9155 72.632C55.9155 74.026 56.1591 75.0744 56.6465 75.777C57.1451 76.4797 57.8138 76.831 58.6525 76.831Z" fill="#00A4C3"/>
<path d="M69.1579 66.682V78.582H66.9479V68.535H64.4319V66.682H69.1579Z" fill="#00A4C3"/>
<path d="M85.1928 72.496H87.2838V77.239C86.6718 77.7264 85.9578 78.1004 85.1418 78.361C84.3258 78.6217 83.4871 78.752 82.6258 78.752C81.4131 78.752 80.3195 78.4914 79.3448 77.97C78.3701 77.4374 77.6051 76.7064 77.0498 75.777C76.4945 74.8477 76.2168 73.7994 76.2168 72.632C76.2168 71.4647 76.4945 70.4164 77.0498 69.487C77.6051 68.5577 78.3701 67.8324 79.3448 67.311C80.3308 66.7784 81.4358 66.512 82.6598 66.512C83.6571 66.512 84.5638 66.6764 85.3798 67.005C86.1958 67.3337 86.8815 67.8154 87.4368 68.45L86.0428 69.81C85.1361 68.9034 84.0425 68.45 82.7618 68.45C81.9231 68.45 81.1751 68.6257 80.5178 68.977C79.8718 69.3284 79.3618 69.8214 78.9878 70.456C78.6251 71.0907 78.4438 71.816 78.4438 72.632C78.4438 73.4254 78.6251 74.1394 78.9878 74.774C79.3618 75.4087 79.8718 75.9074 80.5178 76.27C81.1751 76.6327 81.9175 76.814 82.7448 76.814C83.6741 76.814 84.4901 76.61 85.1928 76.202V72.496Z" fill="#00A4C3"/>
<path d="M90.1986 66.682H92.4086V78.582H90.1986V66.682Z" fill="#00A4C3"/>
<path d="M105.436 67.974C106.105 68.5067 106.632 69.181 107.017 69.997C107.403 70.8017 107.595 71.68 107.595 72.632C107.595 73.7994 107.318 74.8477 106.762 75.777C106.207 76.7064 105.442 77.4374 104.467 77.97C103.493 78.4914 102.399 78.752 101.186 78.752C99.9737 78.752 98.88 78.4914 97.9053 77.97C96.9307 77.4374 96.1657 76.7064 95.6103 75.777C95.055 74.8364 94.7773 73.788 94.7773 72.632C94.7773 71.4647 95.055 70.4164 95.6103 69.487C96.177 68.5577 96.9533 67.8324 97.9393 67.311C98.9253 66.7784 100.036 66.512 101.271 66.512C101.793 66.512 102.427 66.5574 103.175 66.648C103.765 66.716 104.19 66.75 104.45 66.75C104.938 66.75 105.312 66.6537 105.572 66.461C105.833 66.257 105.963 65.9624 105.963 65.577C105.963 65.2257 105.85 64.8744 105.623 64.523L106.915 64.047C107.255 64.523 107.425 65.0557 107.425 65.645C107.425 66.2684 107.25 66.7784 106.898 67.175C106.558 67.5717 106.071 67.838 105.436 67.974ZM101.186 76.814C101.98 76.814 102.694 76.6327 103.328 76.27C103.963 75.9074 104.462 75.4087 104.824 74.774C105.187 74.1394 105.368 73.4254 105.368 72.632C105.368 71.8387 105.187 71.1247 104.824 70.49C104.462 69.8554 103.963 69.3567 103.328 68.994C102.694 68.6314 101.98 68.45 101.186 68.45C100.393 68.45 99.679 68.6314 99.0443 68.994C98.4097 69.3454 97.911 69.844 97.5483 70.49C97.1857 71.1247 97.0043 71.8387 97.0043 72.632C97.0043 73.4254 97.1857 74.145 97.5483 74.791C97.911 75.4257 98.4097 75.9244 99.0443 76.287C99.679 76.6384 100.393 76.814 101.186 76.814ZM97.8203 63.384H100.319L102.614 65.713H100.778L97.8203 63.384Z" fill="#00A4C3"/>
<path d="M58.6525 139.752C57.7005 139.752 56.8505 139.514 56.1025 139.038C55.3545 138.551 54.7651 137.848 54.3345 136.93C53.9038 136.001 53.6885 134.901 53.6885 133.632C53.6885 132.363 53.9038 131.269 54.3345 130.351C54.7651 129.422 55.3545 128.719 56.1025 128.243C56.8505 127.756 57.7005 127.512 58.6525 127.512C59.6045 127.512 60.4545 127.756 61.2025 128.243C61.9618 128.719 62.5568 129.422 62.9875 130.351C63.4181 131.269 63.6335 132.363 63.6335 133.632C63.6335 134.901 63.4181 136.001 62.9875 136.93C62.5568 137.848 61.9618 138.551 61.2025 139.038C60.4545 139.514 59.6045 139.752 58.6525 139.752ZM58.6525 137.831C59.5025 137.831 60.1711 137.48 60.6585 136.777C61.1571 136.074 61.4065 135.026 61.4065 133.632C61.4065 132.238 61.1571 131.19 60.6585 130.487C60.1711 129.784 59.5025 129.433 58.6525 129.433C57.8138 129.433 57.1451 129.784 56.6465 130.487C56.1591 131.19 55.9155 132.238 55.9155 133.632C55.9155 135.026 56.1591 136.074 56.6465 136.777C57.1451 137.48 57.8138 137.831 58.6525 137.831Z" fill="#00A4C3"/>
<path d="M73.6629 137.712V139.582H64.8909V138.103L69.6169 133.615C70.1496 133.105 70.5066 132.663 70.6879 132.289C70.8806 131.904 70.9769 131.524 70.9769 131.15C70.9769 130.595 70.7899 130.17 70.4159 129.875C70.0419 129.58 69.4923 129.433 68.7669 129.433C67.5543 129.433 66.6249 129.847 65.9789 130.674L64.4319 129.484C64.8966 128.861 65.5199 128.379 66.3019 128.039C67.0953 127.688 67.9793 127.512 68.9539 127.512C70.2459 127.512 71.2773 127.818 72.0479 128.43C72.8186 129.042 73.2039 129.875 73.2039 130.929C73.2039 131.575 73.0679 132.181 72.7959 132.748C72.5239 133.315 72.0026 133.961 71.2319 134.686L68.0529 137.712H73.6629Z" fill="#00A4C3"/>
<path d="M88.6127 133.496H90.7037V138.239C90.0917 138.726 89.3777 139.1 88.5617 139.361C87.7457 139.622 86.9071 139.752 86.0457 139.752C84.8331 139.752 83.7394 139.491 82.7647 138.97C81.7901 138.437 81.0251 137.706 80.4697 136.777C79.9144 135.848 79.6367 134.799 79.6367 133.632C79.6367 132.465 79.9144 131.416 80.4697 130.487C81.0251 129.558 81.7901 128.832 82.7647 128.311C83.7507 127.778 84.8557 127.512 86.0797 127.512C87.0771 127.512 87.9837 127.676 88.7997 128.005C89.6157 128.334 90.3014 128.815 90.8567 129.45L89.4627 130.81C88.5561 129.903 87.4624 129.45 86.1817 129.45C85.3431 129.45 84.5951 129.626 83.9377 129.977C83.2917 130.328 82.7817 130.821 82.4077 131.456C82.0451 132.091 81.8637 132.816 81.8637 133.632C81.8637 134.425 82.0451 135.139 82.4077 135.774C82.7817 136.409 83.2917 136.907 83.9377 137.27C84.5951 137.633 85.3374 137.814 86.1647 137.814C87.0941 137.814 87.9101 137.61 88.6127 137.202V133.496Z" fill="#00A4C3"/>
<path d="M93.6186 127.682H95.8286V139.582H93.6186V127.682Z" fill="#00A4C3"/>
<path d="M108.856 128.974C109.525 129.507 110.052 130.181 110.437 130.997C110.823 131.802 111.015 132.68 111.015 133.632C111.015 134.799 110.738 135.848 110.182 136.777C109.627 137.706 108.862 138.437 107.887 138.97C106.913 139.491 105.819 139.752 104.606 139.752C103.394 139.752 102.3 139.491 101.325 138.97C100.351 138.437 99.5856 137.706 99.0303 136.777C98.4749 135.836 98.1973 134.788 98.1973 133.632C98.1973 132.465 98.4749 131.416 99.0303 130.487C99.5969 129.558 100.373 128.832 101.359 128.311C102.345 127.778 103.456 127.512 104.691 127.512C105.213 127.512 105.847 127.557 106.595 127.648C107.185 127.716 107.61 127.75 107.87 127.75C108.358 127.75 108.732 127.654 108.992 127.461C109.253 127.257 109.383 126.962 109.383 126.577C109.383 126.226 109.27 125.874 109.043 125.523L110.335 125.047C110.675 125.523 110.845 126.056 110.845 126.645C110.845 127.268 110.67 127.778 110.318 128.175C109.978 128.572 109.491 128.838 108.856 128.974ZM104.606 137.814C105.4 137.814 106.114 137.633 106.748 137.27C107.383 136.907 107.882 136.409 108.244 135.774C108.607 135.139 108.788 134.425 108.788 133.632C108.788 132.839 108.607 132.125 108.244 131.49C107.882 130.855 107.383 130.357 106.748 129.994C106.114 129.631 105.4 129.45 104.606 129.45C103.813 129.45 103.099 129.631 102.464 129.994C101.83 130.345 101.331 130.844 100.968 131.49C100.606 132.125 100.424 132.839 100.424 133.632C100.424 134.425 100.606 135.145 100.968 135.791C101.331 136.426 101.83 136.924 102.464 137.287C103.099 137.638 103.813 137.814 104.606 137.814ZM101.24 124.384H103.739L106.034 126.713H104.198L101.24 124.384Z" fill="#00A4C3"/>
<path d="M39.6975 82.6866C39.6975 92.6699 31.6639 100.774 21.7394 100.774C11.8275 100.774 3.78125 92.6699 3.78125 82.6866C3.78125 72.7034 11.8275 64.5991 21.7394 64.5991C31.6639 64.5991 39.6975 72.7034 39.6975 82.6866Z" fill="#00A4C3"/>
<path d="M43.4778 82.6864C43.4778 94.7714 33.7529 104.582 21.7389 104.582C9.74025 104.582 0 94.7714 0 82.6864C0 70.6014 9.74025 60.791 21.7389 60.791C33.7529 60.791 43.4778 70.6014 43.4778 82.6864Z" fill="#00A4C3"/>
<g clip-path="url(#clip1)">
<path d="M18.4891 92.7927L20.1864 91.2015L19.3379 88.8148L23.2366 85.1598L28.7526 91.9219L30.4499 90.3307L26.6312 81.9773L30.9075 77.9683C32.078 76.871 32.48 75.2752 31.956 73.8029C30.3855 73.3123 28.6834 73.6889 27.5125 74.7862L23.2362 78.7952L14.326 75.2156L12.6287 76.8065L19.8416 81.9777L15.9429 85.6327L13.3971 84.8373L11.7002 86.4281L15.9433 88.8148L18.4891 92.7927Z" fill="white"/>
<path d="M29.1762 83.5694L28.8174 83.9058L29.8355 86.1334L30.8731 85.1606C31.3416 84.7211 31.3416 84.0089 30.8731 83.5694C30.4047 83.1299 29.645 83.1299 29.1762 83.5694Z" fill="white"/>
<path d="M18.8047 75.791L21.1809 76.7458L21.5397 76.4094C22.0085 75.9699 22.0085 75.2577 21.5397 74.8182C21.0712 74.3786 20.3112 74.3786 19.8424 74.8182L18.8047 75.791Z" fill="white"/>
</g>
<path d="M39.6975 143.687C39.6975 153.67 31.6639 161.774 21.7394 161.774C11.8275 161.774 3.78125 153.67 3.78125 143.687C3.78125 133.703 11.8275 125.599 21.7394 125.599C31.6639 125.599 39.6975 133.703 39.6975 143.687Z" fill="#00A4C3"/>
<path d="M43.4778 143.686C43.4778 155.771 33.7529 165.582 21.7389 165.582C9.74025 165.582 0 155.771 0 143.686C0 131.601 9.74025 121.791 21.7389 121.791C33.7529 121.791 43.4778 131.601 43.4778 143.686Z" fill="#00A4C3"/>
<path d="M6.99316 153C6.99316 150.1 6.99316 147.225 6.99316 144.299C8.82001 144.299 10.6405 144.299 12.5118 144.299C12.5118 143.635 12.5245 143.028 12.5054 142.426C12.4991 142.176 12.5879 142.05 12.8099 141.938C14.0912 141.317 15.3599 140.685 16.6412 140.058C16.8379 139.964 16.9457 139.864 16.9457 139.614C16.933 137.609 16.9393 135.598 16.9393 133.594C16.9393 133.525 16.9267 133.456 16.9203 133.35C16.5588 133.35 16.2226 133.35 15.8864 133.35C15.7341 132.949 15.8673 132.754 16.2162 132.592C17.0535 132.203 17.0535 132.172 16.8886 131.145C16.286 131.145 15.677 131.145 15.0681 131.145C15.0618 131.113 15.0618 131.088 15.0554 131.057C16.0196 130.788 16.9774 130.518 17.9416 130.243C19.3498 129.842 20.7643 129.441 22.1789 129.052C22.3501 129.002 22.5595 128.977 22.7244 129.027C25.065 129.679 27.3993 130.343 29.74 131.001C29.8034 131.019 29.8605 131.051 29.9049 131.145C29.296 131.145 28.6807 131.145 28.021 131.145C28.021 131.477 28.0083 131.771 28.0273 132.065C28.0337 132.153 28.1161 132.266 28.1986 132.316C28.3635 132.422 28.5475 132.516 28.7378 132.585C29.0803 132.704 29.2198 132.917 29.0866 133.324C28.7631 133.324 28.4143 133.324 28.04 133.324C28.0337 133.506 28.021 133.625 28.021 133.75C28.021 135.674 28.0273 137.597 28.0146 139.52C28.0146 139.802 28.0971 139.946 28.3572 140.071C29.6131 140.672 30.8564 141.305 32.1124 141.906C32.3661 142.032 32.4676 142.176 32.4549 142.458C32.4295 143.04 32.4485 143.623 32.4485 144.262C34.2944 144.262 36.1086 144.262 37.9608 144.262C37.9608 147.199 37.9608 150.081 37.9608 152.994C27.6404 153 17.339 153 6.99316 153ZM19.1912 151.91C21.405 151.91 23.5744 151.91 25.7438 151.91C25.7628 151.847 25.7818 151.804 25.7818 151.766C25.7818 149.912 25.8135 148.064 25.7628 146.216C25.712 144.587 24.2785 143.266 22.6229 143.203C20.7707 143.134 19.2166 144.512 19.1722 146.348C19.1278 148.139 19.1595 149.937 19.1595 151.728C19.1658 151.772 19.1785 151.829 19.1912 151.91ZM19.1658 136.594C19.1595 138.423 20.6057 139.889 22.4516 139.908C24.2785 139.927 25.7818 138.461 25.7882 136.638C25.7945 134.809 24.3356 133.362 22.477 133.356C20.6501 133.35 19.1722 134.797 19.1658 136.594ZM13.6472 151.904C14.7573 151.904 15.8293 151.904 16.914 151.904C16.914 150.087 16.914 148.302 16.914 146.492C15.8229 146.492 14.7446 146.492 13.6472 146.492C13.6472 148.302 13.6472 150.087 13.6472 151.904ZM31.2941 151.91C31.2941 150.075 31.2941 148.289 31.2941 146.492C30.184 146.492 29.112 146.492 28.0337 146.492C28.0337 148.308 28.0337 150.093 28.0337 151.91C29.131 151.91 30.203 151.91 31.2941 151.91ZM11.4017 151.91C11.4017 150.645 11.4081 149.398 11.4017 148.145C11.3954 147.187 10.6659 146.467 9.75247 146.467C8.82636 146.467 8.11592 147.174 8.09689 148.139C8.07786 149.047 8.09054 149.962 8.09054 150.87C8.09054 151.208 8.09054 151.547 8.09054 151.904C9.20695 151.91 10.279 151.91 11.4017 151.91ZM36.8634 151.91C36.8634 150.62 36.8761 149.386 36.8571 148.145C36.8444 147.162 36.1086 146.448 35.1698 146.467C34.25 146.485 33.5523 147.212 33.5523 148.17C33.5459 149.292 33.5523 150.419 33.5523 151.547C33.5523 151.666 33.5713 151.791 33.5776 151.91C34.6814 151.91 35.747 151.91 36.8634 151.91ZM19.1849 132.228C21.386 132.228 23.568 132.228 25.7691 132.228C25.7691 131.871 25.7691 131.533 25.7691 131.182C23.5617 131.182 21.386 131.182 19.1849 131.182C19.1849 131.539 19.1849 131.871 19.1849 132.228Z" fill="white"/>
<defs>
<clipPath id="clip0">
<rect width="20.4814" height="19.2013" fill="white" transform="translate(11.7002 12.8008)"/>
</clipPath>
<clipPath id="clip1">
<rect width="20.4814" height="19.2013" fill="white" transform="translate(11.7002 73.5918)"/>
</clipPath>
</defs>
</svg>
