<svg width="653" height="73" viewBox="0 0 653 73" fill="none" xmlns="http://www.w3.org/2000/svg">
<path d="M21.3965 25.2715L12.2876 41.353H12.1851L3.05908 25.2715H0V50.1372H3.04199V31.082H3.09326L11.1938 45.1299H13.2617L21.3623 31.082H21.4136V50.1372H24.4556V25.2715H21.3965Z" fill="#1A3360"/>
<path d="M38.3421 22.5371C39.2649 22.5371 40.0853 22.3491 40.8372 21.939C41.5721 21.5459 42.1702 20.9819 42.6146 20.23C43.0589 19.478 43.3152 18.6235 43.3836 17.6494H41.0936C41.0423 18.4868 40.7688 19.1704 40.2732 19.6831C39.7776 20.1958 39.1282 20.4521 38.3421 20.4521C37.5218 20.4521 36.8553 20.1958 36.3768 19.666C35.8982 19.1533 35.6248 18.4697 35.5735 17.6494H33.2835C33.386 19.1875 33.9158 20.3838 34.8729 21.2383C35.8299 22.1099 36.992 22.5371 38.3421 22.5371ZM49.3309 50.1372L39.8631 25.2715H36.804L27.4046 50.1372H30.6004L32.805 44.0874H43.8963L46.118 50.1372H49.3309ZM33.7791 41.4214L38.3079 28.9971H38.3763L42.9222 41.4214H33.7791ZM38.3421 54.0337C37.7781 54.0337 37.2996 54.2388 36.9065 54.6147C36.5135 55.0078 36.3255 55.4692 36.3255 56.0161C36.3255 56.5801 36.5135 57.0586 36.9065 57.4346C37.2996 57.8276 37.7781 58.0156 38.3421 58.0156C38.9061 58.0156 39.3846 57.8276 39.7776 57.4346C40.1536 57.0586 40.3587 56.5801 40.3587 56.0161C40.3587 55.4692 40.1536 55.0078 39.7776 54.6147C39.3846 54.2388 38.9061 54.0337 38.3421 54.0337Z" fill="#1A3360"/>
<path d="M55.4244 50.1372H58.4664V28.0742H65.9859V25.2715H47.9903V28.0742H55.4244V50.1372Z" fill="#1A3360"/>
<path d="M89.965 37.0635V37.0122C91.2639 36.5679 92.238 35.833 92.9216 34.8076C93.5881 33.7822 93.9299 32.6372 93.9299 31.3384C93.9299 30.313 93.7419 29.4072 93.3659 28.6211C92.9899 27.835 92.4431 27.2026 91.7424 26.7241C91.0246 26.2456 90.1872 25.8696 89.2131 25.6304C88.239 25.3911 87.1452 25.2715 85.9147 25.2715H77.7971V50.1372H86.8547C88.2219 50.1372 89.4523 49.9834 90.5119 49.6416C91.5715 49.3169 92.4431 48.8555 93.1267 48.2573C93.7932 47.6592 94.3059 46.9585 94.6477 46.1382C94.9895 45.3179 95.1604 44.4121 95.1604 43.4038C95.1604 42.5151 95.0236 41.7119 94.7502 40.9771C94.4768 40.2422 94.1008 39.6099 93.6223 39.0972C93.1438 38.5845 92.5969 38.1401 91.9816 37.7983C91.3664 37.4565 90.6828 37.2173 89.965 37.0635ZM80.8391 28.0742H85.2824C86.2395 28.0742 87.0769 28.1768 87.7946 28.3477C88.5124 28.5356 89.0764 28.792 89.5207 29.1338C89.948 29.4756 90.2727 29.8857 90.4777 30.3472C90.6828 30.8086 90.8024 31.3384 90.8024 31.9365C90.8024 32.5176 90.6999 33.0303 90.5119 33.4917C90.3239 33.9702 90.0676 34.3462 89.76 34.6367C89.4353 34.9443 89.0593 35.1836 88.632 35.3887C88.2048 35.5938 87.7605 35.7476 87.299 35.833C86.8376 35.9185 86.3591 35.9526 85.8806 35.9526H80.8391V28.0742ZM86.0002 47.3345H80.8391V38.687H86.1369C87.3845 38.687 88.444 38.875 89.3327 39.2339C90.2043 39.5928 90.8537 40.1055 91.298 40.7549C91.7424 41.4214 91.9646 42.2075 91.9646 43.1304C91.9646 44.5146 91.4177 45.5571 90.3581 46.2749C89.2814 46.9927 87.8288 47.3345 86.0002 47.3345Z" fill="#1A3360"/>
<path d="M109.081 20.606L104.826 17H101.664L106.586 20.623L109.081 20.606ZM104.45 20.1787H102.416C102.655 20.9819 103.014 21.6655 103.51 22.2295C104.005 22.8105 104.604 23.2378 105.304 23.5454C106.005 23.853 106.791 23.9897 107.646 23.9897C108.91 23.9897 110.004 23.665 110.927 22.9814C111.85 22.3149 112.482 21.375 112.858 20.1787H110.824C110.705 20.4521 110.568 20.7085 110.414 20.9136C110.26 21.1357 110.089 21.3237 109.884 21.4946C109.679 21.6655 109.474 21.8022 109.235 21.9048C108.996 22.0244 108.756 22.1099 108.483 22.1611C108.209 22.2295 107.936 22.2466 107.646 22.2466C106.894 22.2466 106.227 22.0757 105.68 21.7168C105.133 21.375 104.723 20.8623 104.45 20.1787ZM115.404 50.1372H118.617L109.149 25.2715H106.09L96.6909 50.1372H99.8867L102.091 44.0874H113.183L115.404 50.1372ZM103.065 41.4214L107.594 28.9971H107.663L112.208 41.4214H103.065Z" fill="#1A3360"/>
<path d="M138.759 25.2715V45.0786H138.69L124.677 25.2715H121.669V50.1372H124.711V30.5352H124.779L138.707 50.1372H141.801V25.2715H138.759Z" fill="#1A3360"/>
<path d="M157.806 37.3198V40.1226H165.018V45.5742C163.292 46.8389 161.087 47.4712 158.387 47.4712C156.559 47.4712 154.935 47.061 153.534 46.2236C152.132 45.3862 151.039 44.2241 150.287 42.7544C149.535 41.2847 149.159 39.6099 149.159 37.7471C149.159 36.2944 149.381 34.9443 149.842 33.7139C150.304 32.4834 150.936 31.458 151.739 30.6206C152.543 29.7832 153.5 29.1338 154.628 28.6553C155.755 28.1938 156.969 27.9546 158.268 27.9546C161.173 27.9546 163.617 28.9116 165.599 30.8257L167.77 28.9458C166.505 27.6299 165.052 26.6558 163.412 26.0063C161.771 25.374 160.062 25.0493 158.285 25.0493C156.439 25.0493 154.747 25.374 153.209 26.0063C151.671 26.6387 150.372 27.5103 149.313 28.6382C148.253 29.7661 147.433 31.0991 146.852 32.6714C146.271 34.2437 145.98 35.9355 145.98 37.7471C145.98 39.644 146.288 41.3872 146.92 42.9595C147.535 44.5317 148.407 45.8647 149.501 46.9414C150.594 48.0181 151.91 48.8555 153.431 49.4365C154.952 50.0347 156.61 50.3252 158.387 50.3252C160.284 50.3252 162.079 50.0518 163.771 49.4878C165.445 48.9409 166.881 48.1548 168.06 47.1465V37.3198H157.806Z" fill="#1A3360"/>
<path d="M198.431 25.2715V45.0786H198.363L184.349 25.2715H181.341V50.1372H184.383V30.5352H184.451L198.38 50.1372H201.473V25.2715H198.431Z" fill="#1A3360"/>
<path d="M206.746 50.1372H209.788V39.7295H222.793V50.1372H225.835V25.2715H222.793V36.9268H209.788V25.2715H206.746V50.1372Z" fill="#1A3360"/>
<path d="M241.14 22.4346L237.039 17.4956L233.809 17.4785L238.15 22.4346H241.14ZM247.532 50.1372H250.745L241.277 25.2715H238.218L228.819 50.1372H232.014L234.219 44.0874H245.31L247.532 50.1372ZM235.193 41.4214L239.722 28.9971H239.79L244.336 41.4214H235.193Z" fill="#1A3360"/>
<path d="M278.552 25.2715L271.101 45.7451H271.05L263.65 25.2715H260.351L269.717 50.1372H272.468L281.833 25.2715H278.552Z" fill="#1A3360"/>
<path d="M306.333 23.0156V25.4253C306.333 25.9038 306.316 26.2969 306.299 26.6387C306.264 26.9805 306.23 27.3223 306.162 27.647C306.093 27.9888 306.008 28.2622 305.888 28.5015C305.769 28.7407 305.615 28.9458 305.444 29.1338C305.256 29.3389 305.034 29.4927 304.778 29.5952C304.504 29.7148 304.196 29.8003 303.855 29.8516V25.2715H300.813V39.7979C300.813 40.9941 300.642 42.0708 300.317 43.0278C299.992 43.9849 299.531 44.7881 298.95 45.4375C298.369 46.0869 297.668 46.5996 296.865 46.9414C296.045 47.2832 295.156 47.4541 294.199 47.4541C292.199 47.4541 290.61 46.7705 289.414 45.3691C288.217 43.9678 287.636 42.1221 287.636 39.7979V25.2715H284.594V40.02C284.594 41.6436 284.817 43.1133 285.295 44.4121C285.757 45.7109 286.406 46.8047 287.26 47.6592C288.098 48.5308 289.106 49.1973 290.285 49.6587C291.465 50.1372 292.763 50.3594 294.199 50.3594C297.155 50.3594 299.497 49.4365 301.24 47.5908C302.983 45.7451 303.855 43.2158 303.855 40.02V31.7827C305.598 31.7485 306.931 31.2017 307.854 30.1421C308.777 29.0996 309.238 27.5786 309.238 25.5962V23.0156H306.333Z" fill="#1A3360"/>
<path d="M323.449 22.4346L319.348 17.4956L316.118 17.4785L320.458 22.4346H323.449ZM333.669 23.0156V25.4253C333.669 26.0747 333.635 26.6216 333.583 27.0659C333.532 27.5103 333.447 27.9204 333.31 28.2964C333.173 28.6895 332.968 28.9971 332.695 29.2363C332.421 29.4756 332.097 29.6465 331.687 29.749C330.559 28.2622 329.14 27.1001 327.431 26.2798C325.722 25.4595 323.842 25.0493 321.809 25.0493C319.98 25.0493 318.288 25.374 316.733 26.0234C315.161 26.6729 313.845 27.5615 312.768 28.6895C311.691 29.8174 310.854 31.1504 310.239 32.7056C309.624 34.2607 309.333 35.9185 309.333 37.6958C309.333 39.4731 309.624 41.1479 310.239 42.7031C310.854 44.2583 311.691 45.5913 312.768 46.7192C313.845 47.8472 315.161 48.7358 316.733 49.3853C318.288 50.0347 319.98 50.3594 321.809 50.3594C323.535 50.3594 325.158 50.0518 326.696 49.4365C328.217 48.8213 329.533 47.9668 330.627 46.873C331.721 45.7793 332.592 44.4463 333.242 42.8569C333.874 41.2847 334.199 39.5586 334.199 37.6958C334.199 35.4741 333.737 33.4404 332.832 31.5947L332.849 31.5605C334.062 31.2358 334.985 30.5693 335.617 29.561C336.25 28.5698 336.574 27.2368 336.574 25.5962V23.0156H333.669ZM321.809 47.4541C320.441 47.4541 319.177 47.1978 318.015 46.6851C316.853 46.1724 315.861 45.4888 315.058 44.6001C314.255 43.7285 313.623 42.7031 313.178 41.5068C312.717 40.3105 312.495 39.0459 312.495 37.6958C312.495 36.6362 312.631 35.6108 312.922 34.6196C313.212 33.6455 313.64 32.7568 314.187 31.9536C314.733 31.1504 315.383 30.4497 316.135 29.8516C316.887 29.2534 317.741 28.792 318.715 28.4502C319.689 28.1255 320.715 27.9546 321.809 27.9546C323.073 27.9546 324.287 28.1938 325.415 28.6724C326.542 29.1509 327.534 29.8174 328.354 30.6719C329.174 31.5264 329.841 32.5518 330.319 33.7651C330.798 34.9956 331.037 36.2944 331.037 37.6958C331.037 39.0972 330.798 40.4131 330.319 41.6265C329.841 42.8569 329.174 43.8823 328.354 44.7368C327.534 45.5913 326.542 46.2578 325.415 46.7363C324.287 47.2148 323.073 47.4541 321.809 47.4541Z" fill="#1A3360"/>
<path d="M356.921 25.2715V45.0786H356.852L342.839 25.2715H339.831V50.1372H342.873V30.5352H342.941L356.869 50.1372H359.963V25.2715H356.921Z" fill="#1A3360"/>
<path d="M471.145 0.157593H472.91C478.143 0.157593 482.651 2.49272 486.497 7.19452C486.402 7.41541 484.227 9.59275 479.94 13.7581H479.782C477.355 10.9812 474.896 9.59275 472.438 9.59275C468.34 9.59275 465.944 11.0759 465.25 14.0737V14.3892C465.25 17.4186 469.884 20.795 479.152 24.4555C482.651 26.3173 485.015 28.0213 486.181 29.5675C487.978 32.1236 488.892 35.0582 488.892 38.3716C488.892 43.3258 486.875 47.649 482.809 51.3094C479.814 53.4552 476.378 54.4966 472.438 54.4966C463.107 54.4966 456.55 51.341 452.799 45.0614L460.301 38.34C464.115 42.6001 467.615 44.7458 470.83 44.7458C476.157 44.7458 478.805 42.7894 478.805 38.8449C478.805 35.8471 474.455 32.5969 465.723 29.0942C463.422 27.9582 461.31 26.412 459.324 24.4555C457.338 22.215 456.298 20.0693 456.14 18.0497C458.095 15.5883 460.175 14.3577 462.382 14.3577V14.1999H456.14C455.92 14.1999 455.825 14.1052 455.825 13.8843V13.7266C455.825 7.73097 458.851 3.56561 464.935 1.26204C467.016 0.536257 469.096 0.157593 471.145 0.157593Z" fill="#213864"/>
<path d="M519.974 0H521.424C530.124 0 537.532 4.10222 543.616 12.3067C546.484 17.1347 547.934 21.868 547.934 26.5382V27.9898C547.934 36.6991 543.836 44.1146 535.64 50.2048C530.817 53.0764 526.089 54.5279 521.424 54.5279H519.974C511.273 54.5279 503.865 50.4257 497.782 42.2213C494.913 37.3933 493.463 32.66 493.463 27.9898V26.5382C493.463 17.8289 497.561 10.4133 505.757 4.32311C510.58 1.42001 515.308 0 519.974 0ZM502.888 27.3271C502.888 33.6382 505.883 38.7502 511.841 42.6631C514.804 44.2724 517.767 45.0613 520.793 45.0613C527.098 45.0613 532.204 42.0635 536.113 36.0995C537.721 33.1333 538.509 30.1671 538.509 27.1378C538.509 20.8266 535.514 15.7147 529.557 11.8018C526.593 10.1924 523.63 9.40356 520.604 9.40356C514.299 9.40356 509.193 12.4013 505.284 18.3653C503.676 21.3315 502.888 24.3293 502.888 27.3271Z" fill="#213864"/>
<path d="M590.964 0.158081H599.917C600.138 0.189637 600.232 0.284299 600.232 0.473633V54.0235C600.232 54.2444 600.138 54.3391 599.917 54.3391C599.286 53.5818 587.623 42.6635 564.958 21.5528H564.769V54.1497C564.769 54.3706 564.674 54.4653 564.454 54.4653H555.659C555.438 54.4653 555.344 54.3706 555.344 54.1497V0.315857H555.501L590.649 32.9444H590.807C590.807 31.9662 592.351 30.7986 595.441 29.4417C596.103 29.2208 596.639 29.1261 597.048 29.1261V28.9684H590.964C590.744 28.9684 590.649 28.8737 590.649 28.6528V0.473633C590.681 0.252743 590.775 0.158081 590.964 0.158081Z" fill="#213864"/>
<path d="M633.362 0.158081H634.308C641.432 0.158081 647.673 2.80877 653.001 8.14171C652.906 8.3626 650.731 10.5399 646.444 14.7053C642.756 11.2026 638.532 9.4355 633.835 9.4355C627.467 9.4355 622.297 12.4333 618.357 18.3974C616.749 21.4267 615.961 24.4245 615.961 27.3592C615.961 34.3015 619.429 39.7607 626.332 43.6736C629.169 44.7465 631.691 45.2829 633.835 45.2829C636.892 45.2829 640.076 44.3678 643.418 42.5691V35.8162C645.435 33.6704 647.421 32.629 649.312 32.629V32.4713H635.253C635.033 32.4713 634.938 32.3766 634.938 32.1557V23.1938C634.97 22.973 635.064 22.8783 635.253 22.8783H652.654C652.874 22.9098 652.969 23.0045 652.969 23.1938V46.5452C647.642 51.8781 641.432 54.5288 634.276 54.5288H633.33C623.684 54.5288 615.867 49.827 609.846 40.4549C607.702 36.1002 606.662 31.9033 606.662 27.8325V26.8859C606.662 17.2298 611.359 9.40393 620.721 3.37677C625.071 1.23097 629.295 0.158081 633.362 0.158081Z" fill="#213864"/>
<path d="M375 24.8977H394.639V28.1479H386.537V50.8365H383.101V28.1479H375V24.8977Z" fill="#213864"/>
<path d="M398.579 24.8969H402.015V36.4462H416.358V24.8969H419.825V50.8356H416.358V39.6965H402.015V50.8356H398.579V24.8969Z" fill="#213864"/>
<path d="M427.014 24.8969H444.446V28.1155H430.45V36.1307H442.964V39.3494H430.45V47.617H444.887V50.8356H427.014V24.8969Z" fill="#213864"/>
<path d="M519.468 72.6084C516.852 72.6084 514.992 71.6618 513.195 70.7467C511.619 69.9578 510.169 69.2005 508.341 69.2005C504.652 69.2005 502.635 72.3244 502.635 72.356L501.721 71.788C501.815 71.6302 504.053 68.1277 508.341 68.1277C510.389 68.1277 512.06 68.9797 513.668 69.8001C515.37 70.6521 517.104 71.5671 519.468 71.5671C523.787 71.5671 525.237 68.601 525.3 68.4748L526.277 68.9166C526.214 69.0112 524.512 72.6084 519.468 72.6084Z" fill="#213864"/>
<path d="M519.468 68.9805C516.852 68.9805 514.992 68.0339 513.195 67.1187C511.619 66.3298 510.169 65.5725 508.34 65.5725C504.652 65.5725 502.635 68.6965 502.635 68.7281L501.721 68.1285C501.815 67.9707 504.053 64.468 508.34 64.468C510.389 64.468 512.06 65.32 513.668 66.1405C515.37 66.9925 517.104 67.9076 519.468 67.9076C523.818 67.9076 525.268 64.8467 525.3 64.8151L526.277 65.2569C526.214 65.3831 524.512 68.9805 519.468 68.9805Z" fill="#213864"/>
</svg>
