<svg width="630" height="59" viewBox="0 0 630 59" fill="none" xmlns="http://www.w3.org/2000/svg">
<path d="M472.826 27.4714C472.237 13.2227 485.096 -0.398775 500.187 0.00892778C514.761 0.406177 526.371 12.585 526.534 27.8686C526.686 42.4101 514.183 55.3938 499.375 55.4043C485.522 55.3938 472.339 42.7341 472.826 27.4714ZM517.146 27.6073C517.197 17.9479 509.2 9.69972 499.721 9.61609C490.221 9.53246 482.204 17.7179 482.133 27.5759C482.062 37.4235 490.049 45.6821 499.69 45.7344C509.118 45.7762 517.095 37.5072 517.146 27.6073Z" fill="white"/>
<path d="M543.026 21.7523C543.026 33.1889 543.026 44.1341 543.026 55.1944C539.9 55.1944 536.906 55.1944 533.831 55.1944C533.831 36.9732 533.831 18.8042 533.831 0.279857C545.472 11.3924 556.94 22.3377 568.144 33.0321C570.042 31.7776 571.808 30.6172 573.686 29.3732C571.991 29.3732 570.347 29.3732 568.621 29.3732C568.621 19.5883 568.621 9.98111 568.621 0.185771C571.554 0.185771 574.426 0.164862 577.288 0.217132C577.522 0.217132 577.836 0.656196 577.958 0.95936C578.08 1.26252 577.999 1.63887 577.999 1.98385C577.999 19.1388 577.999 36.2937 577.999 53.4486C577.999 53.9295 577.958 54.4104 577.918 55.2676C566.236 44.061 554.799 33.0739 543.026 21.7523Z" fill="white"/>
<path d="M624.867 32.9591C621.132 32.9591 617.387 32.9173 613.652 32.98C612.475 33.0009 612.059 32.6769 612.1 31.412C612.191 28.7567 612.13 26.091 612.13 23.3312C618.098 23.3312 623.923 23.3312 629.85 23.3312C629.88 23.7807 629.931 24.2093 629.931 24.6379C629.941 31.7569 629.962 38.876 629.89 45.9846C629.88 46.7059 629.464 47.5945 628.957 48.1067C619.092 58.0274 600.956 58.2365 590.412 45.3574C582.485 35.6771 580.689 16.6302 595.273 5.48646C605.655 -2.448 621.173 -1.32944 629.789 8.22536C627.688 10.4311 625.587 12.6264 623.436 14.8845C620.99 12.6264 618.27 10.8493 615.002 10.0861C607.533 8.35081 600.053 11.2674 595.709 19.0242C591.65 26.2687 593.111 34.9558 598.825 40.6322C604.732 46.4864 612.708 47.2495 619.559 43.622C620.269 43.2457 620.523 42.8066 620.482 42.0121C620.422 40.9249 620.614 39.8064 620.432 38.761C620.046 36.503 621.233 35.259 622.888 34.2449C623.527 33.8477 624.227 33.5341 624.897 33.1787C624.877 33.1055 624.867 33.0323 624.867 32.9591Z" fill="white"/>
<path d="M432.81 45.6493C435.245 43.4122 437.64 41.2064 440.015 39.0111C441.548 40.391 442.958 41.7814 444.491 43.0149C447.414 45.3775 450.722 45.9316 454.274 44.8966C458.608 43.6317 459.755 39.0006 456.456 35.8226C453.534 33 449.86 31.4842 446.257 29.8534C442.674 28.2226 439.498 25.9959 437.488 22.4625C435.255 18.5318 435.418 17.9464 439.548 15.2702C440.015 14.967 440.584 14.8102 441.456 14.4339C439.366 14.4339 437.661 14.4339 435.783 14.4339C435.601 10.2 436.839 6.67703 440.015 4.05309C444.288 0.530117 449.261 -0.274837 454.549 0.352399C459.318 0.916912 462.881 3.57221 465.793 7.18927C463.632 9.47869 461.531 11.6845 459.39 13.953C458.659 13.2735 457.969 12.594 457.258 11.9563C454.792 9.75049 451.961 9.34278 448.896 10.2C446.937 10.7436 445.546 11.9876 445.09 14.0471C444.684 15.8765 445.8 17.1623 446.998 18.26C449.941 20.978 453.523 22.5357 457.086 24.156C458.436 24.7728 459.785 25.4418 461.054 26.2259C467.975 30.5225 470.259 38.5824 466.707 46.1093C464.261 51.284 460.323 54.4306 454.691 55.0683C449.281 55.6851 444.065 54.9638 439.203 52.2771C436.514 50.7822 434.17 48.3255 432.81 45.6493Z" fill="white"/>
<path d="M400.232 51.4941C399.176 51.4941 398.141 51.4941 396.933 51.4941C396.933 47.804 396.933 44.1243 396.933 40.3505C392.153 40.3505 387.525 40.3505 382.796 40.3505C382.796 44.072 382.796 47.7099 382.796 51.4732C381.619 51.4732 380.543 51.4732 379.406 51.4732C379.406 42.7967 379.406 34.1724 379.406 25.4227C380.472 25.4227 381.538 25.4227 382.745 25.4227C382.745 29.2174 382.745 32.9911 382.745 36.8694C387.505 36.8694 392.123 36.8694 396.883 36.8694C396.883 33.012 396.883 29.2383 396.883 25.3809C398.06 25.3809 399.095 25.3809 400.232 25.3809C400.232 34.0679 400.232 42.734 400.232 51.4941Z" fill="white"/>
<path d="M410.837 39.8907C410.837 42.7342 410.837 45.3792 410.837 48.1913C415.486 48.1913 420.113 48.1913 424.853 48.1913C424.853 49.3622 424.853 50.3658 424.853 51.4844C419.078 51.4844 413.304 51.4844 407.438 51.4844C407.438 42.797 407.438 34.1827 407.438 25.4326C413.07 25.4326 418.693 25.4326 424.437 25.4326C424.437 26.3735 424.437 27.3771 424.437 28.5689C419.931 28.5689 415.414 28.5689 410.817 28.5689C410.817 31.2974 410.817 33.8482 410.817 36.5977C414.866 36.5977 418.906 36.5977 423.016 36.5977C423.016 37.7581 423.016 38.7303 423.016 39.9012C418.997 39.8907 414.948 39.8907 410.837 39.8907Z" fill="white"/>
<path d="M364.062 28.5689C361.331 28.5689 358.804 28.5689 356.227 28.5689C356.227 27.4399 356.227 26.4259 356.227 25.3596C362.641 25.3596 368.953 25.3596 375.398 25.3596C375.398 26.3841 375.398 27.3877 375.398 28.5376C372.84 28.5376 370.283 28.5376 367.553 28.5376C367.553 36.2525 367.553 43.8315 367.553 51.4836C366.315 51.4836 365.239 51.4836 364.062 51.4836C364.062 43.8628 364.062 36.3256 364.062 28.5689Z" fill="white"/>
<path d="M12.5439 50.8628C14.27 50.8628 15.8936 50.5552 17.4316 49.9399C18.9526 49.3247 20.2686 48.4702 21.3623 47.3765C22.4561 46.2827 23.3276 44.9497 23.9771 43.3604C24.6094 41.7881 24.9341 40.062 24.9341 38.1992C24.9341 36.3535 24.6094 34.6274 23.9771 33.0381C23.3276 31.4658 22.4561 30.1328 21.3623 29.0391C20.2686 27.9453 18.9526 27.0908 17.4316 26.4756C15.8936 25.8604 14.27 25.5527 12.5439 25.5527C10.7153 25.5527 9.02344 25.8774 7.46826 26.5269C5.896 27.1763 4.58008 28.0649 3.50342 29.1929C2.42676 30.3208 1.58936 31.6538 0.974121 33.209C0.358887 34.7642 0.0683594 36.4219 0.0683594 38.1992C0.0683594 39.9766 0.358887 41.6514 0.974121 43.2065C1.58936 44.7617 2.42676 46.0947 3.50342 47.2227C4.58008 48.3506 5.896 49.2393 7.46826 49.8887C9.02344 50.5381 10.7153 50.8628 12.5439 50.8628ZM12.5439 47.9575C11.1768 47.9575 9.91211 47.7012 8.75 47.1885C7.58789 46.6758 6.59668 45.9922 5.79346 45.1035C4.99023 44.2319 4.35791 43.2065 3.91357 42.0103C3.45215 40.814 3.22998 39.5493 3.22998 38.1992C3.22998 37.1396 3.3667 36.1143 3.65723 35.123C3.94775 34.1489 4.375 33.2603 4.92188 32.457C5.46875 31.6538 6.11816 30.9531 6.87012 30.355C7.62207 29.7568 8.47656 29.2954 9.45068 28.9536C10.4248 28.6289 11.4502 28.458 12.5439 28.458C13.8086 28.458 15.022 28.6973 16.1499 29.1758C17.2778 29.6543 18.269 30.3208 19.0894 31.1753C19.9097 32.0298 20.5762 33.0552 21.0547 34.2686C21.5332 35.499 21.7725 36.7979 21.7725 38.1992C21.7725 39.6006 21.5332 40.9165 21.0547 42.1299C20.5762 43.3604 19.9097 44.3857 19.0894 45.2402C18.269 46.0947 17.2778 46.7612 16.1499 47.2397C15.022 47.7183 13.8086 47.9575 12.5439 47.9575Z" fill="white"/>
<path d="M37.7781 50.6406H40.7176V46.4023H44.221V43.7363H40.7176V26.6123H38.2225L26.6014 44.3003V46.4023H37.7781V50.6406ZM30.1561 43.8047L37.8294 31.9614V43.8047H30.1561Z" fill="white"/>
<path d="M56.1176 50.6406H71.4643V47.8379H59.1596V25.7749H56.1176V50.6406Z" fill="white"/>
<path d="M84.7697 17.9819L81.5397 17.999L77.4382 22.938H80.4118L84.7697 17.9819ZM85.5388 25.7749L79.113 36.4731H79.0446L72.6189 25.7749H69.1154L77.5407 39.5322V50.6406H80.5827V39.5322L89.0764 25.7749H85.5388Z" fill="white"/>
<path d="M100.375 50.6406H107.911C111.825 50.6406 114.935 49.5127 117.242 47.2227C119.55 44.9497 120.712 41.959 120.712 38.2505C120.712 36.439 120.404 34.7471 119.789 33.209C119.174 31.6709 118.319 30.355 117.225 29.2612C116.115 28.1675 114.747 27.313 113.141 26.6978C111.517 26.0825 109.74 25.7749 107.809 25.7749H100.375V50.6406ZM103.417 47.8721V28.5435H107.86C109.757 28.5435 111.449 28.9707 112.919 29.791C114.388 30.6113 115.533 31.7563 116.354 33.2261C117.157 34.6958 117.567 36.3706 117.567 38.2505C117.567 39.1733 117.448 40.062 117.242 40.8994C117.037 41.7539 116.73 42.5229 116.337 43.2236C115.944 43.9414 115.465 44.5737 114.884 45.1548C114.303 45.7358 113.637 46.2314 112.919 46.6245C112.201 47.0347 111.398 47.3423 110.509 47.5474C109.62 47.7695 108.698 47.8721 107.723 47.8721H103.417Z" fill="white"/>
<path d="M136.273 50.8628C137.999 50.8628 139.623 50.5552 141.161 49.9399C142.682 49.3247 143.998 48.4702 145.091 47.3765C146.185 46.2827 147.057 44.9497 147.706 43.3604C148.338 41.7881 148.663 40.062 148.663 38.1992C148.663 36.3535 148.338 34.6274 147.706 33.0381C147.057 31.4658 146.185 30.1328 145.091 29.0391C143.998 27.9453 142.682 27.0908 141.161 26.4756C139.623 25.8604 137.999 25.5527 136.273 25.5527C134.444 25.5527 132.753 25.8774 131.197 26.5269C129.625 27.1763 128.309 28.0649 127.233 29.1929C126.156 30.3208 125.318 31.6538 124.703 33.209C124.088 34.7642 123.797 36.4219 123.797 38.1992C123.797 39.9766 124.088 41.6514 124.703 43.2065C125.318 44.7617 126.156 46.0947 127.233 47.2227C128.309 48.3506 129.625 49.2393 131.197 49.8887C132.753 50.5381 134.444 50.8628 136.273 50.8628ZM136.273 47.9575C134.906 47.9575 133.641 47.7012 132.479 47.1885C131.317 46.6758 130.326 45.9922 129.523 45.1035C128.719 44.2319 128.087 43.2065 127.643 42.0103C127.181 40.814 126.959 39.5493 126.959 38.1992C126.959 37.1396 127.096 36.1143 127.386 35.123C127.677 34.1489 128.104 33.2603 128.651 32.457C129.198 31.6538 129.847 30.9531 130.599 30.355C131.351 29.7568 132.206 29.2954 133.18 28.9536C134.154 28.6289 135.179 28.458 136.273 28.458C137.538 28.458 138.751 28.6973 139.879 29.1758C141.007 29.6543 141.998 30.3208 142.818 31.1753C143.639 32.0298 144.305 33.0552 144.784 34.2686C145.262 35.499 145.502 36.7979 145.502 38.1992C145.502 39.6006 145.262 40.9165 144.784 42.1299C144.305 43.3604 143.639 44.3857 142.818 45.2402C141.998 46.0947 141.007 46.7612 139.879 47.2397C138.751 47.7183 137.538 47.9575 136.273 47.9575Z" fill="white"/>
<path d="M178.538 25.7749V45.582H178.47L164.456 25.7749H161.448V50.6406H164.49V31.0386H164.559L178.487 50.6406H181.58V25.7749H178.538Z" fill="white"/>
<path d="M194.527 19.8618H194.595L197.125 22.9893H200.013L195.826 17.9819H193.211L189.144 22.9893H192.015L194.527 19.8618ZM189.913 47.8379V39.7031H199.893V36.9004H189.913V28.5776H202.063V25.7749H186.854V50.6406H202.798V47.8379H189.913Z" fill="white"/>
<path d="M223.811 25.7749V45.582H223.743L209.729 25.7749H206.721V50.6406H209.763V31.0386H209.832L223.76 50.6406H226.853V25.7749H223.811Z" fill="white"/>
<path d="M252.012 50.8286C254.079 50.8286 255.925 50.4185 257.532 49.564C259.138 48.7266 260.539 47.5815 261.702 46.1289L259.429 44.2148C257.412 46.6929 254.951 47.9233 252.012 47.9233C250.952 47.9233 249.961 47.7866 249.038 47.4961C248.098 47.2227 247.244 46.7954 246.492 46.2485C245.74 45.7017 245.073 45.0352 244.526 44.2661C243.979 43.4971 243.552 42.6084 243.245 41.583C242.937 40.5747 242.8 39.481 242.8 38.3188C242.8 36.4048 243.159 34.7129 243.911 33.2261C244.646 31.7393 245.723 30.5771 247.124 29.7227C248.525 28.8853 250.149 28.458 252.012 28.458C253.43 28.458 254.78 28.7827 256.062 29.4321C257.344 30.0815 258.472 31.0044 259.429 32.2007L261.702 30.3037C260.813 29.2271 259.839 28.3213 258.745 27.6035C257.651 26.8857 256.54 26.356 255.43 26.0312C254.319 25.7236 253.174 25.5527 252.012 25.5527C250.439 25.5527 249.004 25.7749 247.671 26.2021C246.338 26.6465 245.176 27.2446 244.202 28.0137C243.21 28.7998 242.373 29.7056 241.689 30.7651C240.989 31.8247 240.476 33.0039 240.134 34.2856C239.792 35.5674 239.621 36.9175 239.621 38.3188C239.621 39.9082 239.827 41.3779 240.254 42.728C240.681 44.0952 241.279 45.2573 242.048 46.2485C242.8 47.2397 243.706 48.0771 244.748 48.7607C245.774 49.4614 246.919 49.9741 248.149 50.3159C249.38 50.6577 250.662 50.8286 252.012 50.8286Z" fill="white"/>
<path d="M265.163 50.6406H268.205V40.2329H281.211V50.6406H284.253V25.7749H281.211V37.4302H268.205V25.7749H265.163V50.6406Z" fill="white"/>
<path d="M300.925 50.8628C302.651 50.8628 304.274 50.5552 305.812 49.9399C307.333 49.3247 308.649 48.4702 309.743 47.3765C310.837 46.2827 311.708 44.9497 312.358 43.3604C312.99 41.7881 313.315 40.062 313.315 38.1992C313.315 36.3535 312.99 34.6274 312.358 33.0381C311.708 31.4658 310.837 30.1328 309.743 29.0391C308.649 27.9453 307.333 27.0908 305.812 26.4756C304.274 25.8604 302.651 25.5527 300.925 25.5527C299.096 25.5527 297.404 25.8774 295.849 26.5269C294.277 27.1763 292.961 28.0649 291.884 29.1929C290.808 30.3208 289.97 31.6538 289.355 33.209C288.74 34.7642 288.449 36.4219 288.449 38.1992C288.449 39.9766 288.74 41.6514 289.355 43.2065C289.97 44.7617 290.808 46.0947 291.884 47.2227C292.961 48.3506 294.277 49.2393 295.849 49.8887C297.404 50.5381 299.096 50.8628 300.925 50.8628ZM300.925 47.9575C299.558 47.9575 298.293 47.7012 297.131 47.1885C295.969 46.6758 294.978 45.9922 294.174 45.1035C293.371 44.2319 292.739 43.2065 292.294 42.0103C291.833 40.814 291.611 39.5493 291.611 38.1992C291.611 37.1396 291.748 36.1143 292.038 35.123C292.329 34.1489 292.756 33.2603 293.303 32.457C293.85 31.6538 294.499 30.9531 295.251 30.355C296.003 29.7568 296.857 29.2954 297.832 28.9536C298.806 28.6289 299.831 28.458 300.925 28.458C302.189 28.458 303.403 28.6973 304.531 29.1758C305.659 29.6543 306.65 30.3208 307.47 31.1753C308.291 32.0298 308.957 33.0552 309.436 34.2686C309.914 35.499 310.153 36.7979 310.153 38.1992C310.153 39.6006 309.914 40.9165 309.436 42.1299C308.957 43.3604 308.291 44.3857 307.47 45.2402C306.65 46.0947 305.659 46.7612 304.531 47.2397C303.403 47.7183 302.189 47.9575 300.925 47.9575ZM300.925 54.5371C300.361 54.5371 299.882 54.7422 299.489 55.1182C299.096 55.5112 298.908 55.9727 298.908 56.5195C298.908 57.0835 299.096 57.562 299.489 57.938C299.882 58.3311 300.361 58.519 300.925 58.519C301.489 58.519 301.967 58.3311 302.36 57.938C302.736 57.562 302.941 57.0835 302.941 56.5195C302.941 56.1606 302.839 55.8359 302.668 55.5283C302.497 55.2207 302.258 54.9814 301.95 54.8105C301.643 54.6396 301.301 54.5371 300.925 54.5371Z" fill="white"/>
<path d="M334.601 25.7749V45.582H334.533L320.519 25.7749H317.512V50.6406H320.554V31.0386H320.622L334.55 50.6406H337.643V25.7749H334.601Z" fill="white"/>
</svg>
